{
.appVersion = "3133";
.formatVersion = 3;
DisplayStrings = (
"3",
"{",
"4",
$,
"5",
"-",
"&",
"/.notdef/.null/CR  !\"#$%&'()*+,-.//0123456789:;<=>?@ABCDEFGHIJKLMNOPQRSTUVWXYZ[/backslash ]^_`abcdefghijklmnopqrstuvwxyz{|}~¡¢£¤¥¦§¨©ª«¬®¯°±²³´µ¶·¸¹º»¼½¾¿ÀÁÂÃÄÅÆÇÈÉÊËÌÍÎÏÐÑÒÓÔÕÖ×ØÙÚÛÜÝÞßàáâãäåæçèéêëìíîïðñòóôõö÷øùúûüýþÿıˆˇˉ˘˙˚˛˜˝–—‘’‚“”„†‡•…‹›⁄₣₤₧€№™∂∆∏∑−√∞∫≈≤≥/uniF001/uniF002 АБВГДЕЖЗИЙКЛМНОПРСТУФХЦЧШЩЪЫЬЭЮЯабвгдежзийклмнопрстуфхцчшщъыьэюяёєіїґҐЁЄІЇŒœ‰"
);
customParameters = (
{
name = vendorID;
value = "HL  ";
},
{
name = panose;
value = (
2,
0,
5,
0,
0,
0,
0,
0,
0,
0
);
},
{
name = unicodeRanges;
value = (
0,
1,
2,
5,
7,
31,
33,
35,
38,
60,
62
);
},
{
name = codePageRanges;
value = (
"1252",
"1254",
"1258",
"bit 29",
"857",
"850"
);
},
{
name = glyphOrder;
value = (
.notdef,
.null,
CR,
space,
exclam,
quotedbl,
numbersign,
dollar,
percent,
ampersand,
quotesingle,
parenleft,
parenright,
asterisk,
plus,
comma,
hyphen,
period,
slash,
zero,
one,
two,
three,
four,
five,
six,
seven,
eight,
nine,
colon,
semicolon,
less,
equal,
greater,
question,
at,
A,
B,
C,
D,
E,
F,
G,
H,
I,
J,
K,
L,
M,
N,
O,
P,
Q,
R,
S,
T,
U,
V,
W,
X,
Y,
Z,
bracketleft,
backslash,
bracketright,
asciicircum,
underscore,
grave,
a,
b,
c,
d,
e,
f,
g,
h,
i,
j,
k,
l,
m,
n,
o,
p,
q,
r,
s,
t,
u,
v,
w,
x,
y,
z,
braceleft,
bar,
braceright,
asciitilde,
exclamdown,
cent,
sterling,
currency,
yen,
brokenbar,
section,
dieresis,
copyright,
ordfeminine,
guillemotleft,
logicalnot,
registered,
macron,
degree,
plusminus,
uni00B2,
uni00B3,
acute,
mu,
paragraph,
periodcentered,
cedilla,
uni00B9,
ordmasculine,
guillemotright,
onequarter,
onehalf,
threequarters,
questiondown,
Agrave,
Aacute,
Acircumflex,
Atilde,
Adieresis,
Aring,
AE,
Ccedilla,
Egrave,
Eacute,
Ecircumflex,
Edieresis,
Igrave,
Iacute,
Icircumflex,
Idieresis,
Eth,
Ntilde,
Ograve,
Oacute,
Ocircumflex,
Otilde,
Odieresis,
multiply,
Oslash,
Ugrave,
Uacute,
Ucircumflex,
Udieresis,
Yacute,
Thorn,
germandbls,
agrave,
aacute,
acircumflex,
atilde,
adieresis,
aring,
ae,

glyphs = (
{
glyphname = .notdef;
lastChange = "2024-07-02 17:53:05 +0000";
layers = (
{
layerId = m01;
shapes = (
{
closed = 1;
nodes = (
(665,1083,l),
(72,1083,l),
(72,50,l),
(665,50,l)
);
},
{
closed = 1;
nodes = (
(629,1047,l),
(629,86,l),
(108,86,l),
(108,1047,l)
);
},
{
closed = 1;
nodes = (
(256,863,o),
(274,873,qs),
(297,886,o),
(324,886,qs),
(366,886,o),
(413,838,o),
(413,797,qs),
(413,743,o),
(296,539,o),
(296,484,qs),
(296,447,o),
(321,377,q),
(344,377,l),
(327,446,o),
(327,473,qs),
(327,507,o),
(379,582,o),
(424,639,qs),
(470,697,o),
(503,768,o),
(503,804,qs),
(503,861,o),
(423,930,o),
(356,930,qs),
(314,930,o),
(276,908,qs),
(256,897,o),
(234,877,q),
(234,845,l)
);
},
{
closed = 1;
nodes = (
(272,275,qs),
(272,269,o),
(277,262,qs),
(321,211,ls),
(328,204,o),
(336,204,qs),
(341,204,o),
(351,214,qs),
(391,258,ls),
(398,266,o),
(398,274,qs),
(398,281,o),
(392,289,qs),
(351,332,l),
(343,340,o),
(336,340,qs),
(329,340,o),
(321,333,qs),
(280,291,ls),
(272,282,o)
);
}
);
width = 737;
}
);
note = ".notdef";
},
{
glyphname = exclam;
lastChange = "2024-07-02 17:53:05 +0000";
layers = (
{
layerId = m01;
shapes = (
{
closed = 1;
nodes = (
(90,815,o),
(80,804,qs),
(54,771,o),
(54,589,qs),
(54,438,o),
(89,221,q),
(134,221,l),
(160,325,o),
(164,472,qs),
(166,529,o),
(166,577,qs),
(166,773,o),
(141,804,qs),
(132,815,o),
(111,815,qs)
);
},
{
closed = 1;
nodes = (
(80,150,o),
(68,138,qs),
(56,126,o),
(56,109,qs),
(56,82,ls),
(56,66,o),
(68,54,qs),
(80,42,o),
(96,42,qs),
(124,42,ls),
(140,42,o),
(152,54,qs),
(164,66,o),
(164,82,qs),
(164,109,ls),
(164,126,o),
(152,138,qs),
(140,150,o),
(124,150,qs),
(96,150,ls)
);
}
);
width = 227;
}
);
note = exclam;
unicode = 33;
},
{
glyphname = quotedbl;
lastChange = "2024-07-02 17:53:05 +0000";
layers = (
{
layerId = m01;
shapes = (
{
closed = 1;
nodes = (
(144,817,o),
(132,829,qs),
(120,841,o),
(104,841,qs),
(76,841,ls),
(60,841,o),
(48,829,qs),
(36,817,o),
(36,801,qs),
(36,773,ls),
(36,757,o),
(48,745,qs),
(60,733,o),
(76,733,qs),
(78,733,l),
(77,685,o),
(69,675,qs),
(61,664,o),
(52,664,qs),
(50,664,o),
(48,665,q),
(43,639,l),
(55,636,o),
(65,636,qs),
(91,636,o),
(112,654,qs),
(139,679,o),
(143,736,qs),
(144,743,o),
(144,778,qs),
(144,801,ls)
);
},
{
closed = 1;
nodes = (
(295,817,o),
(283,829,qs),
(271,841,o),
(255,841,qs),
(228,841,ls),
(211,841,o),
(199,829,qs),
(187,817,o),
(187,801,qs),
(187,773,ls),
(187,757,o),
(199,745,qs),
(211,733,o),
(228,733,qs),
(229,733,l),
(228,685,o),
(220,675,qs),
(212,664,o),
(203,664,qs),
(202,664,o),
(199,665,q),
(194,639,l),
(206,636,o),
(216,636,qs),
(242,636,o),
(263,654,qs),
(290,679,o),
(294,736,qs),
(295,743,o),
(295,778,qs),
(295,801,ls)
);
}
);
width = 331;
}
);
note = quotedbl;
unicode = 34;
},
{
glyphname = numbersign;
lastChange = "2024-07-02 17:53:05 +0000";
layers = (
{
layerId = m01;
shapes = (
{
closed = 1;
nodes = (
(14,274,l),
(122,274,l),
(50,32,l),
(123,32,l),
(196,274,l),
(413,274,l),
(340,32,l),
(413,32,l),
(486,274,l),
(634,274,l),
(652,338,l),
(505,338,l),
(566,541,l),
(693,541,l),
(711,606,l),
(586,606,l),
(652,824,l),
(579,824,l),
(513,606,l),
(296,606,l),
(361,824,l),
(289,824,l),
(222,606,l),
(92,606,l),
(74,541,l),
(203,541,l),
(142,338,l),
(32,338,l)
);
},
{
closed = 1;
nodes = (
(276,541,l),
(493,541,l),
(432,338,l),
(215,338,l)
);
}
);
width = 736;
}
);
note = numbersign;
unicode = 35;
},
{
glyphname = dollar;
lastChange = "2024-07-02 17:53:05 +0000";
layers = (
{
layerId = m01;
shapes = (
{
closed = 1;
nodes = (
(300,498,qs),
(225,539,o),
(194,571,qs),
(156,609,o),
(156,654,qs),
(156,659,o),
(157,664,qs),
(161,704,o),
(192,730,qs),
(224,758,o),
(276,758,qs),
(340,758,o),
(381,729,qs),
(426,698,o),
(438,652,q),
(440,644,o),
(440,631,qs),
(440,609,o),
(436,574,q),
(505,574,l),
(525,692,l),
(504,740,o),
(448,774,qs),
(384,812,o),
(298,815,q),
(323,973,l),
(236,973,l),
(261,814,l),
(195,811,o),
(146,789,qs),
(78,759,o),
(55,694,q),
(48,670,o),
(48,647,qs),
(48,513,o),
(258,401,qs),
(336,359,o),
(375,323,q),
(409,287,o),
(409,233,qs),
(409,222,ls),
(409,156,o),
(372,127,qs),
(335,99,o),
(283,99,qs),
(212,99,o),
(171,127,qs),
(126,159,o),
(113,204,q),
(112,212,o),
(112,226,qs),
(112,248,o),
(115,283,q),
(47,283,l),
(27,165,l),
(48,117,o),
(104,83,qs),
(168,45,o),
(261,42,q),
(236,-116,l),
(323,-116,l),
(298,42,l),
(366,46,o),
(418,69,qs),
(493,103,o),
(518,171,qs),
(532,212,o),
(532,247,qs),
(532,292,o),
(510,329,qs),
(463,408,o)
);
}
);
width = 561;
}
);
note = dollar;
unicode = 36;
},
{
glyphname = percent;
lastChange = "2024-07-02 17:53:05 +0000";
layers = (
{
layerId = m01;
shapes = (
{
closed = 1;
nodes = (
(117,705,qs),
(143,732,o),
(180,732,qs),
(217,732,o),
(243,705,qs),
(270,678,o),
(270,639,qs),
(270,600,o),
(243,573,qs),
(217,546,o),
(180,546,qs),
(143,546,o),
(117,573,qs),
(90,600,o),
(90,639,qs),
(90,678,o)
);
},
{
closed = 1;
nodes = (
(282,741,qs),
(240,783,o),
(180,783,qs),
(120,783,o),
(78,741,qs),
(36,698,o),
(36,639,qs),
(36,580,o),
(78,537,qs),
(120,495,o),
(180,495,qs),
(240,495,o),
(282,537,qs),
(324,580,o),
(324,639,qs),
(324,698,o)
);
},
{
closed = 1;
nodes = (
(433,107,qs),
(407,135,o),
(407,174,qs),
(407,212,o),
(433,239,qs),
(460,267,o),
(497,267,qs),
(534,267,o),
(561,239,qs),
(587,212,o),
(587,174,qs),
(587,135,o),
(561,107,qs),
(534,80,o),
(497,80,qs),
(460,80,o)
);
},
{
closed = 1;
nodes = (
(395,275,qs),
(353,233,o),
(353,174,qs),
(353,114,o),
(395,71,qs),
(438,30,o),
(497,30,qs),
(557,30,o),
(599,71,qs),
(641,114,o),
(641,174,qs),
(641,233,o),
(599,275,qs),
(557,318,o),
(497,318,qs),
(438,318,o)
);
},
{
closed = 1;
nodes = (
(107,50,l),
(175,50,l),
(584,770,l),
(526,806,l)
);
}
);
width = 677;
}
);
note = percent;
unicode = 37;
},
{
glyphname = ampersand;
lastChange = "2024-07-02 17:53:05 +0000";
layers = (
{
layerId = m01;
shapes = (
{
closed = 1;
nodes = (
(149,269,qs),
(149,352,o),
(220,397,qs),
(279,435,o),
(361,435,qs),
(427,435,l),
(427,215,l),
(422,161,o),
(364,122,qs),
(325,96,o),
(287,96,qs),
(264,96,o),
(240,106,qs),
(149,143,o)
);
},
{
closed = 1;
nodes = (
(570,103,o),
(562,103,qs),
(556,103,o),
(547,106,qs),
(526,114,o),
(518,135,qs),
(513,152,o),
(513,193,qs),
(513,435,l),
(625,435,l),
(625,508,l),
(359,508,ls),
(287,508,o),
(232,549,qs),
(178,589,o),
(178,639,qs),
(178,708,o),
(219,739,qs),
(251,764,o),
(304,764,qs),
(368,764,o),
(408,714,qs),
(437,679,o),
(444,638,qs),
(445,629,o),
(445,616,qs),
(445,598,o),
(441,574,q),
(510,574,l),
(530,692,l),
(516,726,o),
(464,761,qs),
(397,808,o),
(312,814,qs),
(296,815,o),
(280,815,qs),
(204,815,o),
(153,783,qs),
(81,739,o),
(81,643,qs),
(81,543,o),
(219,485,qs),
(225,483,o),
(239,480,q),
(239,476,l),
(234,475,o),
(228,473,q),
(158,457,o),
(109,415,qs),
(36,352,o),
(36,245,qs),
(36,143,o),
(118,87,qs),
(186,42,o),
(279,42,qs),
(372,42,o),
(437,108,q),
(441,95,o),
(445,87,qs),
(469,44,o),
(515,42,qs),
(520,42,ls),
(554,42,o),
(591,59,q),
(575,106,l)
);
}
);
width = 650;
}
);
note = ampersand;
unicode = 38;
},
{
glyphname = quotesingle;
lastChange = "2024-07-02 17:53:05 +0000";
layers = (
{
layerId = m01;
shapes = (
{
closed = 1;
nodes = (
(144,817,o),
(132,829,qs),
(120,841,o),
(104,841,qs),
(76,841,ls),
(60,841,o),
(48,829,qs),
(36,817,o),
(36,801,qs),
(36,773,ls),
(36,757,o),
(48,745,qs),
(60,733,o),
(76,733,qs),
(78,733,l),
(77,685,o),
(69,675,qs),
(61,664,o),
(52,664,qs),
(50,664,o),
(48,665,q),
(43,639,l),
(55,636,o),
(65,636,qs),
(91,636,o),
(112,654,qs),
(139,679,o),
(143,736,qs),
(144,743,o),
(144,778,qs),
(144,801,ls)
);
}
);
width = 180;
}
);
note = quotesingle;
unicode = 39;
},
{
glyphname = parenleft;
lastChange = "2024-07-02 17:53:05 +0000";
layers = (
{
layerId = m01;
shapes = (
{
closed = 1;
nodes = (
(217,-166,o),
(181,-27,qs),
(144,114,o),
(144,336,qs),
(144,557,o),
(181,698,qs),
(217,837,o),
(282,837,q),
(282,873,l),
(165,873,o),
(104,710,qs),
(50,562,o),
(50,336,qs),
(50,109,o),
(104,-39,qs),
(165,-202,o),
(282,-202,q),
(282,-166,l)
);
}
);
width = 319;
}
);
note = parenleft;
unicode = 40;
},
{
glyphname = parenright;
lastChange = "2024-07-02 17:53:05 +0000";
layers = (
{
layerId = m01;
shapes = (
{
closed = 1;
nodes = (
(168,-202,o),
(228,-39,qs),
(282,109,o),
(282,336,qs),
(282,562,o),
(228,710,qs),
(168,873,o),
(50,873,q),
(50,837,l),
(115,837,o),
(151,698,qs),
(189,557,o),
(189,336,qs),
(189,114,o),
(151,-27,qs),
(115,-166,o),
(50,-166,q),
(50,-202,l)
);
}
);
width = 319;
}
);
note = parenright;
unicode = 41;
},
{
glyphname = asterisk;
lastChange = "2024-07-02 17:53:05 +0000";
layers = (
{
layerId = m01;
shapes = (
{
closed = 1;
nodes = (
(350,753,o),
(350,757,qs),
(350,768,o),
(341,783,qs),
(328,804,o),
(316,806,q),
(312,806,ls),
(292,806,o),
(245,760,qs),
(219,735,o),
(197,709,q),
(209,742,o),
(217,778,qs),
(226,816,o),
(226,837,qs),
(226,856,o),
(220,863,qs),
(212,872,o),
(187,872,qs),
(163,872,o),
(156,863,qs),
(149,856,o),
(149,837,qs),
(149,816,o),
(158,778,qs),
(166,742,o),
(178,709,q),
(156,735,o),
(130,760,qs),
(84,806,o),
(63,806,qs),
(59,806,l),
(47,804,o),
(35,783,qs),
(25,768,o),
(25,757,qs),
(25,753,o),
(26,750,qs),
(32,730,o),
(103,709,qs),
(138,698,o),
(171,691,q),
(138,686,o),
(103,675,qs),
(32,654,o),
(26,634,qs),
(25,631,o),
(25,627,qs),
(25,616,o),
(35,600,qs),
(47,580,o),
(59,577,q),
(63,577,ls),
(84,577,o),
(130,624,qs),
(156,649,o),
(178,675,q),
(166,642,o),
(158,606,qs),
(149,568,o),
(149,546,qs),
(149,528,o),
(156,521,qs),
(163,512,o),
(187,512,qs),
(212,512,o),
(220,521,qs),
(226,528,o),
(226,546,qs),
(226,568,o),
(217,606,qs),
(209,642,o),
(197,675,q),
(219,649,o),
(245,624,qs),
(292,577,o),
(312,577,qs),
(316,577,l),
(328,580,o),
(341,600,qs),
(350,616,o),
(350,627,qs),
(350,631,o),
(349,634,qs),
(343,654,o),
(272,675,qs),
(238,686,o),
(204,691,q),
(238,698,o),
(272,709,qs),
(343,730,o),
(349,750,qs)
);
}
);
width = 375;
}
);
note = asterisk;
unicode = 42;
},
{
glyphname = plus;
lastChange = "2024-07-02 17:53:05 +0000";
layers = (
{
layerId = m01;
shapes = (
{
closed = 1;
nodes = (
(266,662,l),
(266,430,l),
(36,430,l),
(36,354,l),
(266,354,l),
(266,122,l),
(346,122,l),
(346,354,l),
(576,354,l),
(576,430,l),
(346,430,l),
(346,662,l)
);
}
);
width = 612;
}
);
note = plus;
unicode = 43;
},
{
glyphname = comma;
lastChange = "2024-07-02 17:53:05 +0000";
layers = (
{
layerId = m01;
shapes = (
{
closed = 1;
nodes = (
(180,126,o),
(168,138,qs),
(156,150,o),
(140,150,qs),
(112,150,ls),
(96,150,o),
(84,138,qs),
(72,126,o),
(72,109,qs),
(72,82,ls),
(72,66,o),
(84,54,qs),
(96,42,o),
(112,42,qs),
(114,42,l),
(113,-6,o),
(105,-17,qs),
(97,-27,o),
(88,-27,qs),
(86,-27,o),
(84,-27,q),
(79,-52,l),
(91,-55,o),
(101,-55,qs),
(127,-55,o),
(148,-37,qs),
(175,-12,o),
(179,45,qs),
(180,52,o),
(180,86,qs),
(180,109,ls)
);
}
);
width = 288;
}
);
note = comma;
unicode = 44;
},
{
glyphname = hyphen;
lastChange = "2024-07-02 17:53:05 +0000";
layers = (
{
layerId = m01;
shapes = (
{
closed = 1;
nodes = (
(40,282,l),
(400,282,l),
(400,354,l),
(40,354,l)
);
}
);
width = 439;
}
);
note = hyphen;
unicode = (45,173);
},
{
glyphname = period;
lastChange = "2024-07-02 17:53:05 +0000";
layers = (
{
layerId = m01;
shapes = (
{
closed = 1;
nodes = (
(96,150,o),
(84,138,qs),
(72,126,o),
(72,109,qs),
(72,82,ls),
(72,66,o),
(84,54,qs),
(96,42,o),
(112,42,qs),
(140,42,ls),
(156,42,o),
(168,54,qs),
(180,66,o),
(180,82,qs),
(180,109,ls),
(180,126,o),
(168,138,qs),
(156,150,o),
(140,150,qs),
(112,150,ls)
);
}
);
width = 288;
}
);
note = period;
unicode = 46;
},
{
glyphname = slash;
lastChange = "2024-07-02 17:53:05 +0000";
layers = (
{
layerId = m01;
shapes = (
{
closed = 1;
nodes = (
(11,-25,l),
(90,-25,l),
(320,868,l),
(241,868,l)
);
}
);
width = 331;
}
);
note = slash;
unicode = 47;
},
{
glyphname = zero;
lastChange = "2024-07-02 17:53:05 +0000";
layers = (
{
layerId = m01;
shapes = (
{
closed = 1;
nodes = (
(166,180,qs),
(125,274,o),
(125,436,qs),
(125,597,o),
(166,691,qs),
(206,781,o),
(271,781,qs),
(337,781,o),
(377,691,qs),
(418,597,o),
(418,436,qs),
(418,274,o),
(377,180,qs),
(337,90,o),
(271,90,qs),
(206,90,o)
);
},
{
closed = 1;
nodes = (
(86,710,qs),
(25,601,o),
(25,436,qs),
(25,270,o),
(86,161,qs),
(154,42,o),
(271,42,qs),
(389,42,o),
(456,161,qs),
(518,270,o),
(518,436,qs),
(518,601,o),
(456,710,qs),
(389,829,o),
(271,829,qs),
(154,829,o)
);
}
);
width = 543;
}
);
note = zero;
unicode = 48;
},
{
glyphname = one;
lastChange = "2024-07-02 17:53:05 +0000";
layers = (
{
layerId = m01;
shapes = (
{
closed = 1;
nodes = (
(25,720,l),
(25,683,l),
(125,719,l),
(125,110,l),
(78,87,l),
(78,50,l),
(258,50,l),
(258,87,l),
(212,109,l),
(212,821,l),
(175,821,l)
);
}
);
width = 284;
}
);
note = one;
unicode = 49;
},
{
glyphname = two;
lastChange = "2024-07-02 17:53:05 +0000";
layers = (
{
layerId = m01;
shapes = (
{
closed = 1;
nodes = (
(407,137,l),
(137,137,l),
(255,240,o),
(336,352,qs),
(449,509,o),
(449,634,qs),
(449,652,o),
(446,670,qs),
(436,743,o),
(379,786,qs),
(323,829,o),
(242,829,qs),
(176,829,o),
(122,789,qs),
(71,750,o),
(56,692,q),
(89,683,l),
(111,739,o),
(160,760,qs),
(186,770,o),
(213,770,qs),
(229,770,o),
(245,767,qs),
(347,744,o),
(347,618,qs),
(347,480,o),
(204,291,qs),
(160,231,o),
(97,162,qs),
(28,87,l),
(28,50,l),
(469,50,l),
(487,207,l),
(436,207,l)
);
}
);
width = 513;
}
);
note = two;
unicode = 50;
},
{
glyphname = three;
lastChange = "2024-07-02 17:53:05 +0000";
layers = (
{
layerId = m01;
shapes = (
{
closed = 1;
nodes = (
(363,482,qs),
(318,505,o),
(264,505,qs),
(253,505,o),
(243,505,q),
(384,577,o),
(384,670,qs),
(384,743,o),
(330,787,qs),
(279,829,o),
(197,829,qs),
(130,829,o),
(77,789,qs),
(25,750,o),
(11,692,q),
(44,683,l),
(66,739,o),
(115,760,qs),
(140,770,o),
(168,770,qs),
(184,770,o),
(200,767,qs),
(253,755,o),
(276,716,qs),
(291,692,o),
(291,662,qs),
(291,642,o),
(284,618,qs),
(258,526,o),
(120,488,q),
(120,450,l),
(168,463,o),
(205,463,qs),
(243,463,o),
(269,450,qs),
(329,423,o),
(344,334,qs),
(351,296,o),
(351,263,qs),
(351,205,o),
(330,165,qs),
(297,94,o),
(208,90,qs),
(200,90,ls),
(165,90,o),
(140,107,qs),
(112,126,o),
(103,161,qs),
(102,166,o),
(102,173,qs),
(102,185,o),
(104,207,q),
(51,207,l),
(37,125,l),
(51,92,o),
(89,69,qs),
(135,42,o),
(199,42,qs),
(256,42,o),
(310,67,qs),
(365,92,o),
(402,137,qs),
(459,205,o),
(459,289,qs),
(459,336,o),
(442,387,qs),
(422,451,o)
);
}
);
width = 500;
}
);
note = three;
unicode = 51;
},
{
glyphname = four;
lastChange = "2024-07-02 17:53:05 +0000";
layers = (
{
layerId = m01;
shapes = (
{
closed = 1;
nodes = (
(11,288,l),
(11,251,l),
(330,251,l),
(330,50,l),
(417,50,l),
(417,251,l),
(492,251,l),
(492,288,l),
(417,308,l),
(417,554,l),
(330,593,l),
(330,308,l),
(112,308,l),
(320,821,l),
(266,821,l)
);
}
);
width = 503;
}
);
note = four;
unicode = 52;
},
{
glyphname = five;
lastChange = "2024-07-02 17:53:34 +0000";
layers = (
{
background = {
shapes = (
{
closed = 1;
nodes = (
(424,673,qs),
(361,694,o),
(304,694,qs),
(233,694,o),
(172,661,q),
(192,950,l),
(499,950,l),
(541,852,l),
(612,852,l),
(587,1070,l),
(118,1070,l),
(82,569,l),
(121,569,l),
(191,617,o),
(261,617,qs),
(300,617,o),
(339,602,qs),
(459,557,o),
(492,394,qs),
(501,347,o),
(501,305,qs),
(501,219,o),
(461,156,qs),
(397,55,o),
(253,55,qs),
(192,55,o),
(158,78,qs),
(118,105,o),
(106,154,qs),
(105,160,o),
(105,170,qs),
(105,187,o),
(108,218,q),
(34,218,l),
(15,103,l),
(32,64,o),
(77,34,qs),
(147,-12,o),
(264,-12,qs),
(454,-12,o),
(567,127,qs),
(646,224,o),
(646,343,qs),
(646,402,o),
(627,467,qs),
(581,620,o)
);
}
);
};
layerId = m01;
shapes = (
{
closed = 1;
nodes = (
(305,535,qs),
(260,550,o),
(219,550,qs),
(168,550,o),
(124,526,q),
(138,734,l),
(359,734,l),
(390,664,l),
(441,664,l),
(423,821,l),
(85,821,l),
(59,460,l),
(87,460,l),
(138,495,o),
(188,495,qs),
(216,495,o),
(244,484,qs),
(330,451,o),
(354,334,qs),
(361,300,o),
(361,270,qs),
(361,208,o),
(332,163,qs),
(286,90,o),
(182,90,qs),
(138,90,o),
(114,107,qs),
(85,126,o),
(76,161,qs),
(76,166,o),
(76,173,qs),
(76,185,o),
(78,207,q),
(24,207,l),
(11,125,l),
(23,96,o),
(55,75,qs),
(106,42,o),
(190,42,qs),
(327,42,o),
(408,142,qs),
(465,212,o),
(465,297,qs),
(465,340,o),
(451,387,qs),
(418,497,o)
);
}
);
width = 504;
}
);
note = five;
unicode = 53;
},
{
glyphname = six;
lastChange = "2024-07-02 17:53:05 +0000";
layers = (
{
layerId = m01;
shapes = (
{
closed = 1;
nodes = (
(399,512,qs),
(344,551,o),
(276,551,qs),
(274,551,ls),
(196,551,o),
(151,507,q),
(162,483,l),
(211,500,o),
(248,500,qs),
(287,500,o),
(314,482,qs),
(370,446,o),
(380,332,qs),
(382,314,o),
(382,297,qs),
(382,234,o),
(360,177,qs),
(328,94,o),
(266,88,qs),
(261,87,o),
(256,87,qs),
(201,87,o),
(161,141,qs),
(112,207,o),
(103,334,qs),
(101,357,o),
(101,380,qs),
(101,527,o),
(168,652,qs),
(202,716,o),
(254,756,qs),
(297,789,o),
(339,797,q),
(339,838,l),
(197,811,o),
(107,687,qs),
(15,559,o),
(13,359,qs),
(13,348,ls),
(13,215,o),
(67,134,qs),
(128,43,o),
(247,42,qs),
(251,42,ls),
(367,42,o),
(439,139,qs),
(491,210,o),
(491,299,qs),
(491,341,o),
(480,387,qs),
(459,468,o)
);
}
);
width = 527;
}
);
note = six;
unicode = 54;
},
{
glyphname = seven;
lastChange = "2024-07-02 17:53:05 +0000";
layers = (
{
layerId = m01;
shapes = (
{
closed = 1;
nodes = (
(11,664,l),
(62,664,l),
(92,734,l),
(360,734,l),
(131,50,l),
(234,50,l),
(443,784,l),
(443,821,l),
(29,821,l)
);
}
);
width = 454;
}
);
note = seven;
unicode = 55;
},
{
glyphname = eight;
lastChange = "2024-07-02 17:53:05 +0000";
layers = (
{
layerId = m01;
shapes = (
{
closed = 1;
nodes = (
(144,129,qs),
(104,166,o),
(104,228,qs),
(104,282,o),
(131,331,qs),
(159,384,o),
(208,414,q),
(230,400,o),
(256,386,qs),
(326,347,o),
(359,311,qs),
(396,272,o),
(400,226,qs),
(401,218,o),
(401,211,qs),
(401,145,o),
(349,113,qs),
(311,89,o),
(261,89,qs),
(253,89,o),
(243,90,qs),
(181,95,o)
);
},
{
closed = 1;
nodes = (
(140,665,o),
(140,674,qs),
(140,719,o),
(161,746,qs),
(189,782,o),
(246,782,qs),
(303,782,o),
(332,751,qs),
(359,722,o),
(359,672,qs),
(359,575,o),
(254,503,q),
(149,571,o),
(141,654,qs)
);
},
{
closed = 1;
nodes = (
(284,485,q),
(335,503,o),
(373,538,qs),
(437,596,o),
(437,685,qs),
(437,749,o),
(382,790,qs),
(328,829,o),
(246,829,qs),
(161,829,o),
(102,775,qs),
(42,721,o),
(42,642,qs),
(42,630,o),
(43,618,qs),
(53,524,o),
(174,437,q),
(105,408,o),
(63,351,qs),
(22,297,o),
(17,235,qs),
(17,227,o),
(17,219,qs),
(17,132,o),
(83,86,qs),
(145,42,o),
(251,42,qs),
(367,42,o),
(434,96,qs),
(499,148,o),
(499,236,qs),
(499,301,o),
(472,344,qs),
(431,410,o),
(317,467,qs),
(300,477,o)
);
}
);
width = 509;
}
);
note = eight;
unicode = 56;
},
{
glyphname = nine;
lastChange = "2024-07-02 17:53:05 +0000";
layers = (
{
layerId = m01;
shapes = (
{
closed = 1;
nodes = (
(106,402,qs),
(164,355,o),
(238,352,qs),
(251,352,ls),
(319,352,o),
(365,390,q),
(354,414,l),
(308,397,o),
(271,397,qs),
(234,397,o),
(206,413,qs),
(144,449,o),
(134,562,qs),
(132,578,o),
(132,594,qs),
(132,657,o),
(156,710,qs),
(188,783,o),
(251,790,qs),
(257,791,o),
(263,791,qs),
(316,791,o),
(354,739,qs),
(400,675,o),
(412,548,qs),
(415,519,o),
(415,490,qs),
(415,346,o),
(354,229,qs),
(294,114,o),
(182,80,q),
(182,42,l),
(221,42,o),
(271,65,qs),
(332,93,o),
(382,143,qs),
(513,279,o),
(513,529,qs),
(513,670,o),
(453,751,qs),
(389,838,o),
(269,838,qs),
(163,838,o),
(91,762,qs),
(27,693,o),
(27,590,qs),
(27,564,o),
(31,536,qs),
(42,454,o)
);
}
);
width = 524;
}
);
note = nine;
unicode = 57;
},
{
glyphname = colon;
lastChange = "2024-07-02 17:53:05 +0000";
layers = (
{
layerId = m01;
shapes = (
{
closed = 1;
nodes = (
(96,567,o),
(84,554,qs),
(72,543,o),
(72,526,qs),
(72,499,ls),
(72,482,o),
(84,471,qs),
(96,459,o),
(112,459,qs),
(140,459,ls),
(156,459,o),
(168,471,qs),
(180,482,o),
(180,499,qs),
(180,526,ls),
(180,543,o),
(168,554,qs),
(156,567,o),
(140,567,qs),
(112,567,ls)
);
},
{
closed = 1;
nodes = (
(96,150,o),
(84,138,qs),
(72,126,o),
(72,109,qs),
(72,82,ls),
(72,66,o),
(84,54,qs),
(96,42,o),
(112,42,qs),
(140,42,ls),
(156,42,o),
(168,54,qs),
(180,66,o),
(180,82,qs),
(180,109,ls),
(180,126,o),
(168,138,qs),
(156,150,o),
(140,150,qs),
(112,150,ls)
);
}
);
width = 288;
}
);
note = colon;
unicode = 58;
},
{
glyphname = semicolon;
lastChange = "2024-07-02 17:53:05 +0000";
layers = (
{
layerId = m01;
shapes = (
{
closed = 1;
nodes = (
(180,125,o),
(168,137,qs),
(156,149,o),
(140,149,qs),
(113,149,ls),
(96,149,o),
(84,137,qs),
(73,125,o),
(73,109,qs),
(73,81,ls),
(73,65,o),
(84,53,qs),
(96,42,o),
(113,42,qs),
(114,42,l),
(113,-7,o),
(106,-17,qs),
(97,-27,o),
(88,-27,qs),
(85,-27,l),
(80,-52,l),
(91,-55,o),
(102,-55,qs),
(127,-55,o),
(148,-37,qs),
(175,-13,o),
(179,45,qs),
(180,51,o),
(180,86,qs),
(180,109,ls)
);
},
{
closed = 1;
nodes = (
(156,459,o),
(168,470,qs),
(179,482,o),
(179,499,qs),
(179,526,ls),
(179,542,o),
(168,554,qs),
(156,566,o),
(139,566,qs),
(112,566,ls),
(96,566,o),
(84,554,qs),
(72,542,o),
(72,526,qs),
(72,499,ls),
(72,482,o),
(84,470,qs),
(96,459,o),
(112,459,qs),
(139,459,ls)
);
}
);
width = 288;
}
);
note = semicolon;
unicode = (59,894);
},
{
glyphname = less;
lastChange = "2024-07-02 17:53:05 +0000";
layers = (
{
layerId = m01;
shapes = (
{
closed = 1;
nodes = (
(25,400,l),
(25,362,l),
(483,50,l),
(505,123,l),
(148,381,l),
(505,639,l),
(483,711,l)
);
}
);
width = 530;
}
);
note = less;
unicode = 60;
},
{
glyphname = equal;
lastChange = "2024-07-02 17:53:05 +0000";
layers = (
{
layerId = m01;
shapes = (
{
closed = 1;
nodes = (
(36,289,l),
(540,289,l),
(540,361,l),
(36,361,l)
);
},
{
closed = 1;
nodes = (
(540,426,l),
(540,498,l),
(36,498,l),
(36,426,l)
);
}
);
width = 576;
}
);
note = equal;
unicode = 61;
},
{
glyphname = greater;
lastChange = "2024-07-02 17:53:05 +0000";
layers = (
{
layerId = m01;
shapes = (
{
closed = 1;
nodes = (
(382,381,l),
(25,123,l),
(47,50,l),
(505,362,l),
(505,400,l),
(47,711,l),
(25,639,l)
);
}
);
width = 530;
}
);
note = greater;
unicode = 62;
},
{
glyphname = question;
lastChange = "2024-07-02 17:53:05 +0000";
layers = (
{
layerId = m01;
shapes = (
{
closed = 1;
nodes = (
(256,815,qs),
(126,815,o),
(76,732,qs),
(54,694,o),
(54,633,qs),
(54,606,o),
(58,574,q),
(112,574,l),
(112,736,o),
(220,748,qs),
(232,750,o),
(241,750,qs),
(318,750,o),
(318,674,qs),
(318,611,o),
(289,554,qs),
(276,524,o),
(228,457,qs),
(184,396,o),
(166,353,qs),
(138,287,o),
(138,221,q),
(187,221,l),
(212,320,o),
(242,363,qs),
(253,377,o),
(287,417,qs),
(328,464,o),
(363,508,qs),
(395,549,o),
(410,601,qs),
(418,634,o),
(418,661,qs),
(418,678,o),
(415,694,qs),
(388,815,o)
);
},
{
closed = 1;
nodes = (
(132,150,o),
(121,138,qs),
(109,126,o),
(109,109,qs),
(109,82,ls),
(109,66,o),
(121,54,qs),
(132,42,o),
(149,42,qs),
(176,42,ls),
(193,42,o),
(204,54,qs),
(217,66,o),
(217,82,qs),
(217,109,ls),
(217,126,o),
(204,138,qs),
(193,150,o),
(176,150,qs),
(149,150,ls)
);
}
);
width = 473;
}
);
note = question;
unicode = 63;
},
{
glyphname = at;
lastChange = "2024-07-02 17:53:05 +0000";
layers = (
{
layerId = m01;
shapes = (
{
closed = 1;
nodes = (
(516,359,o),
(492,322,qs),
(462,279,o),
(423,274,qs),
(414,272,o),
(406,272,qs),
(362,272,o),
(333,310,qs),
(302,351,o),
(298,420,qs),
(297,429,o),
(297,437,qs),
(297,503,o),
(325,543,qs),
(353,585,o),
(405,589,qs),
(411,590,o),
(417,590,qs),
(452,590,o),
(481,567,qs),
(514,541,o),
(527,495,q),
(527,412,l)
);
},
{
closed = 1;
nodes = (
(171,706,qs),
(54,588,o),
(54,428,qs),
(54,269,o),
(171,151,qs),
(287,35,o),
(448,35,qs),
(499,35,o),
(548,51,qs),
(598,68,o),
(626,96,q),
(602,137,l),
(530,90,o),
(448,90,qs),
(313,90,o),
(219,187,qs),
(124,291,o),
(124,428,qs),
(124,566,o),
(219,670,qs),
(313,767,o),
(448,767,qs),
(575,767,o),
(657,703,q),
(749,626,o),
(749,496,qs),
(749,400,o),
(716,343,qs),
(690,297,o),
(645,284,qs),
(634,282,o),
(626,282,qs),
(612,282,o),
(606,290,qs),
(594,305,o),
(594,348,qs),
(594,627,l),
(527,627,l),
(527,573,l),
(474,634,o),
(414,634,qs),
(334,634,o),
(278,570,qs),
(222,508,o),
(222,423,qs),
(222,300,o),
(305,253,qs),
(347,228,o),
(392,228,qs),
(405,228,o),
(417,230,qs),
(497,241,o),
(534,314,q),
(535,314,l),
(541,252,o),
(575,235,qs),
(588,228,o),
(607,228,qs),
(634,228,o),
(671,242,qs),
(736,266,o),
(775,326,qs),
(819,395,o),
(819,496,qs),
(819,647,o),
(701,739,qs),
(595,822,o),
(448,822,qs),
(287,822,o)
);
}
);
width = 873;
}
);
note = at;
unicode = 64;
},
{
glyphname = A;
lastChange = "2024-07-02 17:53:05 +0000";
layers = (
{
layerId = m01;
shapes = (
{
closed = 1;
nodes = (
(340,815,l),
(76,110,l),
(18,87,l),
(18,50,l),
(219,50,l),
(219,87,l),
(161,110,l),
(249,368,l),
(441,368,l),
(523,110,l),
(466,87,l),
(466,50,l),
(693,50,l),
(693,87,l),
(635,110,l),
(379,815,l)
);
},
{
closed = 1;
nodes = (
(350,657,l),
(423,426,l),
(273,426,l)
);
}
);
width = 711;
}
);
note = A;
unicode = 65;
},
{
glyphname = B;
lastChange = "2024-07-02 17:53:05 +0000";
layers = (
{
layerId = m01;
shapes = (
{
closed = 1;
nodes = (
(228,400,o),
(254,400,qs),
(341,400,o),
(393,381,qs),
(469,351,o),
(469,252,qs),
(469,245,o),
(469,238,qs),
(459,130,o),
(333,107,qs),
(303,102,o),
(264,102,qs),
(235,102,o),
(199,105,q),
(199,398,l)
);
},
{
closed = 1;
nodes = (
(371,474,q),
(321,459,o),
(251,459,qs),
(227,459,o),
(199,462,q),
(199,747,l),
(231,750,o),
(259,750,qs),
(463,750,o),
(463,606,qs),
(463,598,ls),
(463,516,o)
);
},
{
closed = 1;
nodes = (
(539,379,qs),
(503,420,o),
(444,433,q),
(427,434,l),
(427,436,l),
(437,438,l),
(501,462,o),
(531,503,qs),
(562,551,o),
(562,615,qs),
(562,732,o),
(463,775,qs),
(388,806,o),
(308,806,qs),
(36,806,l),
(36,770,l),
(106,747,l),
(106,110,l),
(36,85,l),
(36,50,l),
(292,50,ls),
(386,50,o),
(441,68,qs),
(508,89,o),
(541,129,qs),
(577,174,o),
(577,250,qs),
(577,333,o)
);
}
);
width = 596;
}
);
note = B;
unicode = 66;
},
{
glyphname = C;
lastChange = "2024-07-02 17:53:05 +0000";
layers = (
{
layerId = m01;
shapes = (
{
closed = 1;
nodes = (
(397,108,o),
(390,108,qs),
(302,108,o),
(219,191,q),
(145,279,o),
(141,408,qs),
(140,420,o),
(140,432,qs),
(140,560,o),
(189,648,q),
(247,737,o),
(351,755,q),
(365,757,o),
(378,757,qs),
(434,757,o),
(473,729,qs),
(518,698,o),
(531,652,q),
(532,644,o),
(532,631,qs),
(532,609,o),
(528,574,q),
(597,574,l),
(617,692,l),
(596,740,o),
(540,774,qs),
(472,815,o),
(377,815,qs),
(233,815,o),
(127,694,qs),
(25,577,o),
(25,413,qs),
(25,253,o),
(122,147,q),
(224,42,o),
(368,42,qs),
(529,42,o),
(620,188,q),
(578,210,l),
(529,160,o),
(501,142,qs),
(456,112,o),
(403,109,qs)
);
}
);
width = 645;
}
);
note = C;
unicode = 67;
},
{
glyphname = D;
lastChange = "2024-07-02 17:53:05 +0000";
layers = (
{
layerId = m01;
shapes = (
{
closed = 1;
nodes = (
(342,107,qs),
(330,106,o),
(312,106,qs),
(267,106,o),
(187,109,q),
(187,742,l),
(219,751,o),
(268,751,qs),
(297,751,o),
(333,747,qs),
(446,737,o),
(506,666,q),
(574,577,o),
(578,449,qs),
(579,438,o),
(579,428,qs),
(579,295,o),
(519,207,q),
(448,110,o)
);
},
{
closed = 1;
nodes = (
(351,806,qs),
(36,806,l),
(36,770,l),
(94,747,l),
(94,110,l),
(36,87,l),
(36,50,l),
(347,50,ls),
(510,50,o),
(600,165,qs),
(694,282,o),
(694,444,qs),
(694,603,o),
(598,710,qs),
(504,806,o)
);
}
);
width = 712;
}
);
note = D;
unicode = 68;
},
{
glyphname = E;
lastChange = "2024-07-02 17:53:05 +0000";
layers = (
{
layerId = m01;
shapes = (
{
closed = 1;
nodes = (
(36,770,l),
(94,747,l),
(94,109,l),
(36,87,l),
(36,50,l),
(548,50,l),
(573,283,l),
(508,283,l),
(456,106,l),
(187,106,l),
(187,398,l),
(325,398,l),
(369,307,l),
(399,307,l),
(392,426,l),
(399,544,l),
(369,544,l),
(325,454,l),
(187,454,l),
(187,751,l),
(456,751,l),
(508,574,l),
(573,574,l),
(548,806,l),
(36,806,l)
);
}
);
width = 599;
}
);
note = E;
unicode = 69;
},
{
glyphname = F;
lastChange = "2024-07-02 17:53:05 +0000";
layers = (
{
layerId = m01;
shapes = (
{
closed = 1;
nodes = (
(25,770,l),
(83,747,l),
(83,110,l),
(25,87,l),
(25,50,l),
(234,50,l),
(234,87,l),
(176,110,l),
(176,391,l),
(311,391,l),
(355,300,l),
(384,300,l),
(377,419,l),
(384,537,l),
(355,537,l),
(311,446,l),
(176,446,l),
(176,751,l),
(428,751,l),
(479,574,l),
(544,574,l),
(519,806,l),
(25,806,l)
);
}
);
width = 563;
}
);
note = F;
unicode = 70;
},
{
glyphname = G;
lastChange = "2024-07-02 17:53:05 +0000";
layers = (
{
layerId = m01;
shapes = (
{
closed = 1;
nodes = (
(377,382,l),
(528,359,l),
(528,225,ls),
(528,169,o),
(480,135,qs),
(441,109,o),
(396,109,qs),
(279,109,o),
(204,191,q),
(138,273,o),
(134,408,qs),
(133,420,o),
(133,432,qs),
(133,560,o),
(181,648,q),
(240,737,o),
(351,755,q),
(365,757,o),
(378,757,qs),
(434,757,o),
(473,729,qs),
(518,698,o),
(531,652,q),
(532,644,o),
(532,631,qs),
(532,609,o),
(528,574,q),
(597,574,l),
(617,692,l),
(596,740,o),
(540,774,qs),
(472,815,o),
(377,815,qs),
(225,815,o),
(120,694,qs),
(18,577,o),
(18,413,qs),
(18,253,o),
(107,147,q),
(210,42,o),
(361,42,qs),
(478,42,o),
(548,132,q),
(585,50,l),
(621,50,l),
(621,359,l),
(679,382,l),
(679,433,l),
(377,433,l)
);
}
);
width = 697;
}
);
note = G;
unicode = 71;
},
{
glyphname = H;
lastChange = "2024-07-02 17:53:05 +0000";
layers = (
{
layerId = m01;
shapes = (
{
closed = 1;
nodes = (
(485,770,l),
(542,747,l),
(542,454,l),
(176,454,l),
(176,747,l),
(234,770,l),
(234,806,l),
(25,806,l),
(25,770,l),
(83,747,l),
(83,110,l),
(25,87,l),
(25,50,l),
(234,50,l),
(234,87,l),
(176,110,l),
(176,397,l),
(542,397,l),
(542,110,l),
(485,87,l),
(485,50,l),
(693,50,l),
(693,87,l),
(636,110,l),
(636,747,l),
(693,770,l),
(693,806,l),
(485,806,l)
);
}
);
width = 729;
}
);
note = H;
unicode = 72;
},
{
glyphname = I;
lastChange = "2024-07-02 17:53:05 +0000";
layers = (
{
layerId = m01;
shapes = (
{
closed = 1;
nodes = (
(36,770,l),
(115,747,l),
(115,110,l),
(43,87,l),
(43,50,l),
(281,50,l),
(281,87,l),
(209,110,l),
(209,747,l),
(281,770,l),
(281,806,l),
(36,806,l)
);
}
);
width = 317;
}
);
note = I;
unicode = 73;
},
{
glyphname = J;
lastChange = "2024-07-02 17:53:05 +0000";
layers = (
{
layerId = m01;
shapes = (
{
closed = 1;
nodes = (
(30,770,l),
(131,747,l),
(131,220,ls),
(131,64,o),
(118,20,qs),
(104,-27,o),
(67,-38,qs),
(58,-41,o),
(50,-41,qs),
(42,-41,o),
(34,-38,q),
(18,-85,l),
(65,-102,o),
(107,-102,qs),
(156,-102,o),
(185,-71,qs),
(212,-42,o),
(220,13,qs),
(228,64,o),
(228,197,qs),
(228,747,l),
(307,770,l),
(307,806,l),
(30,806,l)
);
}
);
width = 326;
}
);
note = J;
unicode = 74;
},
{
glyphname = K;
lastChange = "2024-07-02 17:53:05 +0000";
layers = (
{
layerId = m01;
shapes = (
{
closed = 1;
nodes = (
(624,104,o),
(618,104,qs),
(611,104,o),
(603,106,qs),
(574,115,o),
(559,164,qs),
(535,238,o),
(503,364,q),
(403,433,o),
(369,443,q),
(369,444,l),
(559,743,l),
(632,770,l),
(632,806,l),
(409,806,l),
(409,770,l),
(469,747,l),
(298,449,l),
(187,449,l),
(187,747,l),
(245,770,l),
(245,806,l),
(36,806,l),
(36,770,l),
(94,747,l),
(94,110,l),
(36,87,l),
(36,50,l),
(245,50,l),
(245,87,l),
(187,110,l),
(187,396,l),
(312,396,ls),
(344,396,o),
(409,334,q),
(436,184,o),
(449,143,qs),
(461,101,o),
(489,73,qs),
(520,42,o),
(557,42,qs),
(603,42,o),
(646,59,q),
(630,106,l)
);
}
);
width = 664;
}
);
note = K;
unicode = 75;
},
{
glyphname = L;
lastChange = "2024-07-02 17:53:05 +0000";
layers = (
{
layerId = m01;
shapes = (
{
closed = 1;
nodes = (
(552,283,l),
(486,283,l),
(435,106,l),
(176,106,l),
(176,747,l),
(234,770,l),
(234,806,l),
(25,806,l),
(25,770,l),
(83,747,l),
(83,110,l),
(25,87,l),
(25,50,l),
(526,50,l)
);
}
);
width = 570;
}
);
note = L;
unicode = 76;
},
{
glyphname = M;
lastChange = "2024-07-02 17:53:05 +0000";
layers = (
{
layerId = m01;
shapes = (
{
closed = 1;
nodes = (
(462,210,l),
(289,806,l),
(91,806,l),
(91,770,l),
(145,747,l),
(81,114,l),
(11,87,l),
(11,50,l),
(220,50,l),
(220,87,l),
(158,111,l),
(212,688,l),
(221,688,l),
(415,50,l),
(493,50,l),
(678,688,l),
(684,688,l),
(754,111,l),
(693,87,l),
(693,50,l),
(917,50,l),
(917,87,l),
(856,112,l),
(780,747,l),
(832,770,l),
(832,806,l),
(642,806,l)
);
}
);
width = 928;
}
);
note = M;
unicode = 77;
},
{
glyphname = N;
lastChange = "2024-07-02 17:53:05 +0000";
layers = (
{
layerId = m01;
shapes = (
{
closed = 1;
nodes = (
(513,770,l),
(589,747,l),
(589,198,l),
(587,231,o),
(582,239,qs),
(486,382,o),
(186,806,q),
(18,806,l),
(18,770,l),
(94,747,l),
(94,110,l),
(18,87,l),
(18,50,l),
(245,50,l),
(245,87,l),
(169,110,l),
(169,688,l),
(174,649,o),
(176,644,qs),
(239,539,o),
(593,50,q),
(665,50,l),
(665,747,l),
(740,770,l),
(740,806,l),
(513,806,l)
);
}
);
width = 758;
}
);
note = N;
unicode = 78;
},
{
glyphname = O;
lastChange = "2024-07-02 17:53:05 +0000";
layers = (
{
layerId = m01;
shapes = (
{
closed = 1;
nodes = (
(397,107,o),
(387,107,qs),
(297,107,o),
(225,186,qs),
(145,274,o),
(133,408,qs),
(131,429,o),
(131,450,qs),
(131,557,o),
(184,641,qs),
(248,741,o),
(350,750,qs),
(359,750,o),
(369,750,qs),
(459,750,o),
(531,670,qs),
(611,582,o),
(623,449,qs),
(625,428,o),
(625,407,qs),
(625,300,o),
(572,216,qs),
(508,116,o),
(406,107,qs)
);
},
{
closed = 1;
nodes = (
(124,691,qs),
(18,570,o),
(18,407,qs),
(18,249,o),
(124,144,qs),
(228,42,o),
(378,42,qs),
(525,42,o),
(632,165,qs),
(738,287,o),
(738,449,qs),
(738,607,o),
(632,712,qs),
(528,815,o),
(378,815,qs),
(231,815,o)
);
}
);
width = 756;
}
);
note = O;
unicode = 79;
},
{
glyphname = P;
lastChange = "2024-07-02 17:53:05 +0000";
layers = (
{
layerId = m01;
shapes = (
{
closed = 1;
nodes = (
(199,806,qs),
(36,806,l),
(36,770,l),
(106,747,l),
(106,110,l),
(36,87,l),
(36,50,l),
(262,50,l),
(262,87,l),
(199,109,l),
(199,747,l),
(223,751,o),
(248,751,qs),
(285,751,o),
(325,743,qs),
(436,717,o),
(448,613,qs),
(449,598,o),
(449,583,qs),
(449,503,o),
(401,466,qs),
(354,431,o),
(244,431,q),
(235,389,l),
(277,384,o),
(315,384,qs),
(405,384,o),
(462,414,qs),
(561,466,o),
(561,593,qs),
(561,756,o),
(391,796,qs),
(345,806,o)
);
}
);
width = 586;
}
);
note = P;
unicode = 80;
},
{
glyphname = Q;
lastChange = "2024-07-02 17:53:05 +0000";
layers = (
{
layerId = m01;
shapes = (
{
closed = 1;
nodes = (
(133,408,qs),
(131,430,o),
(131,450,qs),
(131,557,o),
(184,641,qs),
(248,741,o),
(349,750,qs),
(359,750,o),
(369,750,qs),
(458,750,o),
(531,670,qs),
(611,582,o),
(622,450,qs),
(624,426,o),
(624,404,qs),
(624,293,o),
(571,210,qs),
(508,109,o),
(405,101,qs),
(396,100,o),
(386,100,qs),
(297,100,o),
(225,180,qs),
(145,267,o)
);
},
{
closed = 1;
nodes = (
(719,-55,o),
(698,-61,qs),
(682,-66,o),
(665,-66,qs),
(639,-66,o),
(611,-55,qs),
(519,-19,o),
(483,-10,qs),
(449,-1,o),
(419,-1,qs),
(392,-1,o),
(366,-9,q),
(481,53,o),
(518,75,qs),
(592,120,o),
(631,166,qs),
(737,287,o),
(737,449,qs),
(737,607,o),
(631,712,qs),
(528,815,o),
(377,815,qs),
(231,815,o),
(124,691,qs),
(18,570,o),
(18,408,qs),
(18,250,o),
(124,145,qs),
(218,51,o),
(352,43,q),
(205,-61,l),
(241,-103,l),
(309,-66,o),
(370,-66,qs),
(404,-66,o),
(452,-91,qs),
(461,-96,o),
(496,-117,qs),
(526,-133,o),
(546,-143,qs),
(585,-162,o),
(622,-162,qs),
(658,-162,o),
(693,-145,qs),
(732,-127,o),
(760,-61,q),
(731,-46,l)
);
}
);
width = 778;
}
);
note = Q;
unicode = 81;
},
{
glyphname = R;
lastChange = "2024-07-02 17:53:05 +0000";
layers = (
{
layerId = m01;
shapes = (
{
closed = 1;
nodes = (
(447,720,o),
(447,599,qs),
(447,590,o),
(446,580,qs),
(436,498,o),
(353,471,qs),
(315,459,o),
(189,458,q),
(189,744,l),
(220,747,o),
(254,747,qs),
(294,747,o),
(335,742,q)
);
},
{
closed = 1;
nodes = (
(197,401,ls),
(363,401,o),
(392,334,q),
(420,184,o),
(431,143,qs),
(444,101,o),
(472,73,qs),
(503,42,o),
(540,42,qs),
(586,42,o),
(629,59,q),
(613,106,l),
(608,104,o),
(600,104,qs),
(594,104,o),
(587,106,qs),
(557,115,o),
(542,164,qs),
(521,238,o),
(486,364,q),
(438,408,o),
(374,421,q),
(374,424,l),
(537,437,o),
(554,571,qs),
(556,586,o),
(556,600,qs),
(556,666,o),
(523,716,q),
(475,780,o),
(387,798,qs),
(348,806,o),
(196,806,qs),
(25,806,l),
(25,770,l),
(95,747,l),
(95,110,l),
(37,87,l),
(37,50,l),
(253,50,l),
(253,87,l),
(189,110,l),
(189,401,l)
);
}
);
width = 640;
}
);
note = R;
unicode = 82;
},
{
glyphname = S;
lastChange = "2024-07-02 17:53:05 +0000";
layers = (
{
layerId = m01;
shapes = (
{
closed = 1;
nodes = (
(222,571,qs),
(184,609,o),
(184,654,qs),
(184,659,o),
(185,664,qs),
(189,704,o),
(220,730,qs),
(252,758,o),
(304,758,qs),
(368,758,o),
(409,729,qs),
(454,698,o),
(467,652,q),
(468,644,o),
(468,631,qs),
(468,609,o),
(464,574,q),
(533,574,l),
(553,692,l),
(532,740,o),
(476,774,qs),
(408,815,o),
(313,815,qs),
(232,815,o),
(174,789,qs),
(107,759,o),
(83,694,q),
(76,670,o),
(76,647,qs),
(76,520,o),
(287,401,qs),
(364,359,o),
(403,323,qs),
(441,287,o),
(444,240,qs),
(444,230,ls),
(440,160,o),
(400,127,qs),
(363,99,o),
(311,99,qs),
(240,99,o),
(199,127,qs),
(154,159,o),
(141,204,q),
(140,212,o),
(140,226,qs),
(140,248,o),
(143,283,q),
(75,283,l),
(55,165,l),
(76,117,o),
(132,83,qs),
(200,42,o),
(302,42,qs),
(385,42,o),
(446,69,qs),
(521,103,o),
(546,171,qs),
(560,212,o),
(560,247,qs),
(560,292,o),
(538,329,qs),
(491,408,o),
(328,498,qs),
(253,539,o)
);
}
);
width = 596;
}
);
note = S;
unicode = 83;
},
{
glyphname = T;
lastChange = "2024-07-02 17:53:05 +0000";
layers = (
{
layerId = m01;
shapes = (
{
closed = 1;
nodes = (
(14,574,l),
(80,574,l),
(131,751,l),
(295,751,l),
(295,109,l),
(238,87,l),
(238,50,l),
(446,50,l),
(446,87,l),
(389,109,l),
(389,751,l),
(553,751,l),
(604,574,l),
(670,574,l),
(644,806,l),
(40,806,l)
);
}
);
width = 684;
}
);
note = T;
unicode = 84;
},
{
glyphname = U;
lastChange = "2024-07-02 17:53:05 +0000";
layers = (
{
layerId = m01;
shapes = (
{
closed = 1;
nodes = (
(128,133,qs),
(199,42,o),
(364,42,qs),
(517,42,o),
(581,133,qs),
(626,197,o),
(626,293,qs),
(626,747,l),
(701,770,l),
(701,806,l),
(478,806,l),
(478,770,l),
(554,747,l),
(554,282,ls),
(554,218,o),
(528,176,qs),
(484,102,o),
(361,102,qs),
(253,102,o),
(207,183,qs),
(180,230,o),
(180,297,qs),
(180,747,l),
(238,770,l),
(238,806,l),
(25,806,l),
(25,770,l),
(83,747,l),
(83,270,ls),
(83,192,o)
);
}
);
width = 726;
}
);
note = U;
unicode = 85;
},
{
glyphname = V;
lastChange = "2024-07-02 17:53:05 +0000";
layers = (
{
layerId = m01;
shapes = (
{
closed = 1;
nodes = (
(539,770,l),
(602,746,l),
(402,156,l),
(408,179,o),
(408,193,qs),
(408,199,o),
(407,203,q),
(364,330,o),
(199,746,q),
(261,770,l),
(261,806,l),
(11,806,l),
(11,770,l),
(79,745,l),
(366,50,l),
(444,50,l),
(679,743,l),
(749,770,l),
(749,806,l),
(539,806,l)
);
}
);
width = 760;
}
);
note = V;
unicode = 86;
},
{
glyphname = W;
lastChange = "2024-07-02 17:53:05 +0000";
layers = (
{
layerId = m01;
shapes = (
{
closed = 1;
nodes = (
(867,770,l),
(930,746,l),
(755,156,l),
(760,177,o),
(760,191,qs),
(760,198,o),
(759,203,qs),
(732,284,o),
(575,746,q),
(635,770,l),
(635,806,l),
(386,806,l),
(386,770,l),
(454,745,l),
(520,572,l),
(395,156,ls),
(400,176,o),
(400,190,qs),
(400,198,o),
(398,203,qs),
(356,330,o),
(199,746,q),
(261,770,l),
(261,806,l),
(11,806,l),
(11,770,l),
(79,745,l),
(359,50,l),
(436,50,l),
(562,460,l),
(719,50,l),
(796,50,l),
(1007,743,l),
(1076,770,l),
(1076,806,l),
(867,806,l)
);
}
);
width = 1087;
}
);
note = W;
unicode = 87;
},
{
glyphname = X;
lastChange = "2024-07-02 17:53:05 +0000";
layers = (
{
layerId = m01;
shapes = (
{
closed = 1;
nodes = (
(503,770,l),
(564,747,l),
(385,485,l),
(220,747,l),
(281,770,l),
(281,806,l),
(22,806,l),
(22,770,l),
(90,747,l),
(312,426,l),
(89,110,l),
(14,87,l),
(14,50,l),
(245,50,l),
(245,87,l),
(184,109,l),
(361,372,l),
(539,109,l),
(477,87,l),
(477,50,l),
(733,50,l),
(733,87,l),
(665,110,l),
(433,428,l),
(654,747,l),
(726,770,l),
(726,806,l),
(503,806,l)
);
}
);
width = 743;
}
);
note = X;
unicode = 88;
},
{
glyphname = Y;
lastChange = "2024-07-02 17:53:05 +0000";
layers = (
{
layerId = m01;
shapes = (
{
closed = 1;
nodes = (
(492,770,l),
(553,747,l),
(387,479,l),
(216,747,l),
(277,770,l),
(277,806,l),
(18,806,l),
(18,770,l),
(86,747,l),
(330,410,l),
(330,110,l),
(272,87,l),
(272,50,l),
(481,50,l),
(481,87,l),
(423,110,l),
(423,409,l),
(643,747,l),
(715,770,l),
(715,806,l),
(492,806,l)
);
}
);
width = 733;
}
);
note = Y;
unicode = 89;
},
{
glyphname = Z;
lastChange = "2024-07-02 17:53:05 +0000";
layers = (
{
layerId = m01;
shapes = (
{
closed = 1;
nodes = (
(33,574,l),
(98,574,l),
(149,751,l),
(456,751,l),
(18,87,l),
(18,50,l),
(566,50,l),
(591,283,l),
(526,283,l),
(474,106,l),
(158,106,l),
(598,770,l),
(598,806,l),
(58,806,l)
);
}
);
width = 617;
}
);
note = Z;
unicode = 90;
},
{
glyphname = bracketleft;
lastChange = "2024-07-02 17:53:05 +0000";
layers = (
{
layerId = m01;
shapes = (
{
closed = 1;
nodes = (
(36,-202,l),
(230,-202,l),
(230,-165,l),
(122,-142,l),
(122,813,l),
(230,836,l),
(230,873,l),
(36,873,l)
);
}
);
width = 266;
}
);
note = bracketleft;
unicode = 91;
},
{
glyphname = backslash;
lastChange = "2024-07-02 17:53:05 +0000";
layers = (
{
layerId = m01;
shapes = (
{
closed = 1;
nodes = (
(241,-25,l),
(320,-25,l),
(90,868,l),
(11,868,l)
);
}
);
width = 331;
}
);
note = backslash;
unicode = 92;
},
{
glyphname = bracketright;
lastChange = "2024-07-02 17:53:05 +0000";
layers = (
{
layerId = m01;
shapes = (
{
closed = 1;
nodes = (
(36,836,l),
(144,813,l),
(144,-142,l),
(36,-165,l),
(36,-202,l),
(230,-202,l),
(230,873,l),
(36,873,l)
);
}
);
width = 266;
}
);
note = bracketright;
unicode = 93;
},
{
glyphname = asciicircum;
lastChange = "2024-07-02 17:53:05 +0000";
layers = (
{
layerId = m01;
shapes = (
{
closed = 1;
nodes = (
(288,858,l),
(251,858,l),
(25,421,l),
(112,421,l),
(269,747,l),
(426,421,l),
(513,421,l)
);
}
);
width = 538;
}
);
note = asciicircum;
unicode = 94;
},
{
glyphname = underscore;
lastChange = "2024-07-02 17:53:05 +0000";
layers = (
{
layerId = m01;
shapes = (
{
closed = 1;
nodes = (
(36,-2,l),
(540,-2,l),
(540,63,l),
(36,63,l)
);
}
);
width = 576;
}
);
note = underscore;
unicode = 95;
},
{
glyphname = grave;
lastChange = "2024-07-02 17:53:05 +0000";
layers = (
{
layerId = m01;
shapes = (
{
closed = 1;
nodes = (
(167,626,l),
(235,645,l),
(152,835,l),
(25,835,l)
);
}
);
width = 260;
}
);
note = grave;
unicode = 96;
},
{
glyphname = a;
lastChange = "2024-07-02 17:53:05 +0000";
layers = (
{
layerId = m01;
shapes = (
{
closed = 1;
nodes = (
(253,120,o),
(206,105,qs),
(189,100,o),
(174,100,qs),
(157,100,o),
(142,107,qs),
(110,120,o),
(109,157,qs),
(109,161,ls),
(109,222,o),
(175,258,qs),
(197,270,o),
(279,298,q),
(279,163,l)
);
},
{
closed = 1;
nodes = (
(369,563,o),
(179,563,qs),
(129,563,o),
(82,536,qs),
(40,510,o),
(27,480,q),
(41,390,l),
(92,390,l),
(91,410,o),
(91,424,qs),
(91,437,o),
(92,444,qs),
(100,477,o),
(122,496,qs),
(143,515,o),
(175,515,qs),
(231,515,o),
(256,480,qs),
(280,444,o),
(280,364,qs),
(280,354,o),
(279,343,q),
(154,307,o),
(122,292,qs),
(10,237,o),
(10,146,qs),
(10,141,o),
(11,135,qs),
(14,91,o),
(42,67,qs),
(71,42,o),
(125,42,qs),
(222,42,o),
(286,113,q),
(289,97,o),
(299,81,qs),
(317,50,o),
(347,50,qs),
(401,50,o),
(431,68,q),
(415,115,l),
(407,112,o),
(400,112,qs),
(393,112,o),
(387,115,qs),
(369,125,o),
(369,164,qs),
(369,355,ls)
);
}
);
width = 441;
}
);
note = a;
unicode = 97;
},
{
glyphname = b;
lastChange = "2024-07-02 17:53:05 +0000";
layers = (
{
layerId = m01;
shapes = (
{
closed = 1;
nodes = (
(319,94,qs),
(312,94,o),
(305,94,qs),
(248,94,o),
(204,137,qs),
(152,187,o),
(145,271,qs),
(145,276,o),
(144,297,q),
(147,374,o),
(186,441,q),
(227,502,o),
(284,509,qs),
(289,510,o),
(296,510,qs),
(352,510,o),
(397,459,qs),
(446,402,o),
(454,316,qs),
(455,302,o),
(455,289,qs),
(455,220,o),
(423,165,qs),
(383,100,o)
);
},
{
closed = 1;
nodes = (
(327,563,qs),
(197,563,o),
(143,446,q),
(143,815,l),
(11,809,l),
(11,771,l),
(58,749,l),
(58,50,l),
(94,50,l),
(131,132,l),
(192,42,o),
(301,42,qs),
(407,42,o),
(478,123,qs),
(551,206,o),
(551,332,qs),
(551,433,o),
(482,500,qs),
(418,563,o)
);
}
);
width = 562;
}
);
note = b;
unicode = 98;
},
{
glyphname = c;
lastChange = "2024-07-02 17:53:05 +0000";
layers = (
{
layerId = m01;
shapes = (
{
closed = 1;
nodes = (
(271,94,ls),
(211,94,o),
(162,146,qs),
(107,204,o),
(104,289,qs),
(104,302,ls),
(104,393,o),
(140,449,qs),
(178,506,o),
(244,514,qs),
(253,516,o),
(263,516,qs),
(296,516,o),
(321,498,qs),
(350,479,o),
(359,444,qs),
(360,438,o),
(360,428,qs),
(360,415,o),
(357,390,q),
(410,390,l),
(424,480,l),
(410,513,o),
(372,536,qs),
(326,563,o),
(263,563,qs),
(159,563,o),
(84,482,qs),
(11,401,o),
(11,292,qs),
(11,181,o),
(77,112,qs),
(145,42,o),
(256,42,qs),
(365,42,o),
(426,140,q),
(396,157,l),
(364,126,o),
(346,114,qs),
(318,96,o),
(281,94,qs)
);
}
);
width = 437;
}
);
note = c;
unicode = 99;
},
{
glyphname = d;
lastChange = "2024-07-02 17:53:05 +0000";
layers = (
{
layerId = m01;
shapes = (
{
closed = 1;
nodes = (
(278,96,qs),
(272,95,o),
(266,95,qs),
(210,95,o),
(165,145,qs),
(116,202,o),
(108,289,qs),
(107,302,o),
(107,315,qs),
(107,385,o),
(139,440,qs),
(179,505,o),
(243,510,qs),
(250,511,o),
(256,511,qs),
(314,511,o),
(358,468,qs),
(410,418,o),
(417,333,qs),
(417,329,o),
(418,307,q),
(415,230,o),
(376,164,q),
(335,103,o)
);
},
{
closed = 1;
nodes = (
(371,771,l),
(418,749,l),
(418,484,l),
(410,515,l),
(358,563,o),
(266,563,qs),
(261,563,ls),
(155,563,o),
(84,482,qs),
(11,399,o),
(11,273,qs),
(11,171,o),
(79,105,qs),
(144,42,o),
(235,42,qs),
(364,42,o),
(418,159,q),
(425,49,l),
(547,55,l),
(547,93,l),
(500,115,l),
(500,815,l),
(371,809,l)
);
}
);
width = 558;
}
);
note = d;
unicode = 100;
},
{
glyphname = e;
lastChange = "2024-07-02 17:53:05 +0000";
layers = (
{
layerId = m01;
shapes = (
{
closed = 1;
nodes = (
(248,519,o),
(258,519,qs),
(330,519,o),
(342,444,qs),
(346,419,o),
(346,396,qs),
(346,383,l),
(115,383,l),
(127,440,o),
(160,475,qs),
(193,512,o),
(238,518,qs)
);
},
{
closed = 1;
nodes = (
(428,356,o),
(428,373,qs),
(428,436,o),
(410,480,qs),
(378,563,o),
(260,563,qs),
(157,563,o),
(84,482,qs),
(11,401,o),
(11,292,qs),
(11,181,o),
(76,112,qs),
(144,42,o),
(256,42,qs),
(365,42,o),
(426,140,q),
(395,157,l),
(364,126,o),
(345,114,qs),
(317,96,o),
(281,94,qs),
(271,94,ls),
(211,94,o),
(162,146,qs),
(107,204,o),
(104,289,qs),
(104,301,o),
(104,310,qs),
(104,330,o),
(106,339,q),
(427,339,l)
);
}
);
width = 444;
}
);
note = e;
unicode = 101;
},
{
glyphname = f;
lastChange = "2024-07-02 17:53:05 +0000";
layers = (
{
layerId = m01;
shapes = (
{
closed = 1;
nodes = (
(338,751,l),
(301,815,o),
(222,815,qs),
(166,815,o),
(132,786,qs),
(78,741,o),
(78,602,qs),
(78,557,l),
(11,549,l),
(11,498,l),
(78,498,l),
(78,110,l),
(17,87,l),
(17,50,l),
(233,50,l),
(233,87,l),
(165,109,l),
(165,498,l),
(310,498,l),
(310,563,l),
(165,560,l),
(165,605,ls),
(165,747,o),
(210,765,q),
(217,767,o),
(225,767,qs),
(240,767,o),
(256,757,qs),
(271,746,o),
(273,714,qs),
(274,706,o),
(274,697,qs),
(274,681,o),
(271,661,q),
(325,661,l)
);
}
);
width = 349;
}
);
note = f;
unicode = 102;
},
{
glyphname = g;
lastChange = "2024-07-02 17:53:05 +0000";
layers = (
{
layerId = m01;
shapes = (
{
closed = 1;
nodes = (
(229,217,qs),
(224,217,ls),
(207,217,o),
(189,226,qs),
(166,237,o),
(153,257,qs),
(125,299,o),
(122,362,qs),
(122,375,ls),
(122,430,o),
(143,471,qs),
(166,516,o),
(215,519,qs),
(220,519,ls),
(238,519,o),
(256,511,qs),
(279,500,o),
(292,480,qs),
(320,438,o),
(323,375,qs),
(323,361,ls),
(323,307,o),
(302,266,qs),
(278,221,o)
);
},
{
closed = 1;
nodes = (
(325,543,l),
(286,563,o),
(222,563,qs),
(131,563,o),
(74,500,qs),
(19,439,o),
(19,358,qs),
(19,278,o),
(74,225,qs),
(81,219,o),
(89,212,q),
(53,195,o),
(37,162,qs),
(28,144,o),
(28,127,qs),
(28,117,o),
(32,107,qs),
(43,76,o),
(80,63,qs),
(118,48,o),
(210,42,qs),
(320,35,o),
(368,18,qs),
(424,-1,o),
(431,-41,qs),
(431,-47,o),
(431,-52,qs),
(431,-91,o),
(383,-112,qs),
(344,-129,o),
(284,-129,qs),
(265,-129,o),
(243,-127,q),
(143,-114,o),
(102,-62,qs),
(89,-45,o),
(76,-1,qs),
(75,4,o),
(75,14,qs),
(75,27,o),
(78,50,q),
(24,50,l),
(11,-40,l),
(30,-84,o),
(51,-103,q),
(107,-161,o),
(231,-174,qs),
(262,-177,o),
(290,-177,qs),
(379,-177,o),
(433,-148,qs),
(498,-111,o),
(498,-40,qs),
(498,33,o),
(454,69,qs),
(397,114,o),
(260,117,qs),
(251,118,o),
(163,120,qs),
(118,122,o),
(105,130,qs),
(91,140,o),
(91,158,qs),
(91,161,ls),
(93,181,o),
(114,196,q),
(156,174,o),
(222,174,qs),
(314,174,o),
(370,235,qs),
(426,297,o),
(426,379,qs),
(426,449,o),
(383,498,q),
(510,498,l),
(510,563,l)
);
}
);
width = 520;
}
);
note = g;
unicode = 103;
},
{
glyphname = h;
lastChange = "2024-07-02 17:53:05 +0000";
layers = (
{
layerId = m01;
shapes = (
{
closed = 1;
nodes = (
(495,348,ls),
(495,477,o),
(433,530,qs),
(394,563,o),
(334,563,qs),
(318,563,o),
(300,561,qs),
(220,549,o),
(155,446,q),
(155,815,l),
(22,809,l),
(22,771,l),
(68,749,l),
(68,110,l),
(14,87,l),
(14,50,l),
(209,50,l),
(209,87,l),
(155,109,l),
(155,348,l),
(173,396,o),
(208,443,q),
(249,491,o),
(287,502,qs),
(304,507,o),
(318,507,qs),
(409,507,o),
(409,315,qs),
(409,110,l),
(355,87,l),
(355,50,l),
(549,50,l),
(549,87,l),
(495,109,l)
);
}
);
width = 560;
}
);
note = h;
unicode = 104;
},
{
glyphname = i;
lastChange = "2024-07-02 17:53:05 +0000";
layers = (
{
layerId = m01;
shapes = (
{
closed = 1;
nodes = (
(145,697,o),
(158,710,qs),
(171,723,o),
(171,742,qs),
(171,760,ls),
(171,778,o),
(158,791,qs),
(145,805,o),
(126,805,qs),
(112,805,ls),
(93,805,o),
(80,791,qs),
(67,778,o),
(67,760,qs),
(67,742,ls),
(67,723,o),
(80,710,qs),
(93,697,o),
(112,697,qs),
(126,697,ls)
);
},
{
closed = 1;
nodes = (
(32,549,l),
(32,498,l),
(79,490,l),
(79,110,l),
(25,87,l),
(25,50,l),
(220,50,l),
(220,87,l),
(166,109,l),
(166,563,l)
);
}
);
width = 245;
}
);
note = i;
unicode = 105;
},
{
glyphname = j;
lastChange = "2024-07-02 17:53:05 +0000";
layers = (
{
layerId = m01;
shapes = (
{
closed = 1;
nodes = (
(27,498,l),
(106,490,l),
(106,111,ls),
(106,-45,o),
(93,-112,o),
(75,-132,qs),
(58,-151,o),
(36,-156,qs),
(29,-158,o),
(22,-158,qs),
(16,-158,o),
(9,-156,q),
(-4,-194,l),
(25,-211,o),
(78,-211,q),
(125,-207,o),
(153,-173,qs),
(181,-138,o),
(192,-47,o),
(192,81,qs),
(192,563,l),
(27,549,l)
);
},
{
closed = 1;
nodes = (
(166,697,o),
(180,710,qs),
(193,723,o),
(193,742,qs),
(193,760,ls),
(193,778,o),
(180,791,qs),
(166,805,o),
(148,805,qs),
(134,805,ls),
(114,805,o),
(102,791,qs),
(89,778,o),
(89,760,qs),
(89,742,ls),
(89,723,o),
(102,710,qs),
(114,697,o),
(134,697,qs),
(148,697,ls)
);
}
);
width = 229;
}
);
note = j;
unicode = 106;
},
{
glyphname = k;
lastChange = "2024-07-02 17:53:05 +0000";
layers = (
{
layerId = m01;
shapes = (
{
closed = 1;
nodes = (
(445,104,o),
(439,104,qs),
(433,104,o),
(427,106,qs),
(401,115,o),
(386,164,qs),
(362,245,o),
(359,264,q),
(301,315,o),
(267,325,q),
(266,326,l),
(378,491,l),
(444,518,l),
(444,554,l),
(271,554,l),
(271,518,l),
(317,495,l),
(217,331,l),
(148,331,l),
(148,815,l),
(14,809,l),
(14,771,l),
(61,749,l),
(61,110,l),
(14,87,l),
(14,50,l),
(194,50,l),
(194,87,l),
(148,109,l),
(148,284,l),
(229,284,ls),
(261,284,o),
(288,243,q),
(294,192,o),
(305,143,qs),
(321,89,o),
(331,73,qs),
(350,42,o),
(384,42,qs),
(430,42,o),
(466,59,q),
(450,106,l)
);
}
);
width = 477;
}
);
note = k;
unicode = 107;
},
{
glyphname = l;
lastChange = "2024-07-02 17:53:05 +0000";
layers = (
{
layerId = m01;
shapes = (
{
closed = 1;
nodes = (
(25,809,l),
(25,771,l),
(72,749,l),
(72,110,l),
(11,87,l),
(11,50,l),
(220,50,l),
(220,87,l),
(158,109,l),
(158,815,l)
);
}
);
width = 230;
}
);
note = l;
unicode = 108;
},
{
glyphname = m;
lastChange = "2024-07-02 17:53:05 +0000";
layers = (
{
layerId = m01;
shapes = (
{
closed = 1;
nodes = (
(821,347,ls),
(821,477,o),
(759,530,qs),
(720,563,o),
(661,563,qs),
(644,563,o),
(626,560,qs),
(579,554,o),
(536,521,qs),
(493,489,o),
(474,446,q),
(454,518,o),
(400,546,qs),
(368,563,o),
(325,563,qs),
(309,563,o),
(291,560,qs),
(244,554,o),
(207,523,qs),
(170,492,o),
(151,446,q),
(144,563,l),
(18,549,l),
(18,498,l),
(65,490,l),
(65,110,l),
(11,87,l),
(11,50,l),
(205,50,l),
(205,87,l),
(151,109,l),
(151,334,l),
(163,384,o),
(190,428,qs),
(225,484,o),
(274,502,qs),
(296,510,o),
(314,510,qs),
(348,510,o),
(369,480,qs),
(400,434,o),
(400,315,qs),
(400,110,l),
(346,87,l),
(346,50,l),
(540,50,l),
(540,87,l),
(486,109,l),
(486,347,l),
(498,395,o),
(525,434,qs),
(559,484,o),
(608,502,qs),
(631,510,o),
(649,510,qs),
(683,510,o),
(703,480,qs),
(734,434,o),
(734,315,qs),
(734,110,l),
(680,87,l),
(680,50,l),
(875,50,l),
(875,87,l),
(821,109,l)
);
}
);
width = 886;
}
);
note = m;
unicode = 109;
},
{
glyphname = n;
lastChange = "2024-07-02 17:53:05 +0000";
layers = (
{
layerId = m01;
shapes = (
{
closed = 1;
nodes = (
(510,347,ls),
(510,477,o),
(449,530,qs),
(410,563,o),
(351,563,qs),
(334,563,o),
(315,560,qs),
(270,554,o),
(224,520,qs),
(181,488,o),
(155,446,q),
(148,563,l),
(22,549,l),
(22,498,l),
(68,490,l),
(68,110,l),
(14,87,l),
(14,50,l),
(209,50,l),
(209,87,l),
(155,109,l),
(155,334,l),
(166,382,o),
(199,431,q),
(239,484,o),
(287,502,q),
(305,505,o),
(320,505,qs),
(424,505,o),
(424,332,qs),
(424,110,l),
(370,87,l),
(370,50,l),
(564,50,l),
(564,87,l),
(510,109,l)
);
}
);
width = 575;
}
);
note = n;
unicode = 110;
},
{
glyphname = o;
lastChange = "2024-07-02 17:53:05 +0000";
layers = (
{
layerId = m01;
shapes = (
{
closed = 1;
nodes = (
(280,94,o),
(274,94,qs),
(217,94,o),
(171,145,qs),
(120,202,o),
(112,289,qs),
(110,302,o),
(110,315,qs),
(110,385,o),
(145,440,qs),
(185,505,o),
(250,510,qs),
(256,511,o),
(261,511,qs),
(319,511,o),
(365,459,qs),
(416,402,o),
(424,316,qs),
(426,303,o),
(426,290,qs),
(426,220,o),
(391,165,qs),
(351,100,o),
(286,94,qs)
);
},
{
closed = 1;
nodes = (
(89,480,qs),
(14,397,o),
(14,288,qs),
(14,181,o),
(89,111,qs),
(162,42,o),
(268,42,qs),
(372,42,o),
(446,125,qs),
(521,207,o),
(521,316,qs),
(521,423,o),
(446,494,qs),
(374,563,o),
(268,563,qs),
(165,563,o)
);
}
);
width = 536;
}
);
note = o;
unicode = 111;
},
{
glyphname = p;
lastChange = "2024-07-02 17:53:05 +0000";
layers = (
{
layerId = m01;
shapes = (
{
closed = 1;
nodes = (
(319,94,o),
(312,94,qs),
(255,94,o),
(211,137,qs),
(159,187,o),
(152,271,qs),
(152,276,o),
(151,297,q),
(154,374,o),
(193,441,q),
(234,502,o),
(291,509,qs),
(297,510,o),
(303,510,qs),
(359,510,o),
(404,459,qs),
(453,402,o),
(461,316,qs),
(462,302,o),
(462,289,qs),
(462,220,o),
(430,165,qs),
(390,100,o),
(326,94,qs)
);
},
{
closed = 1;
nodes = (
(151,446,q),
(144,556,l),
(18,549,l),
(18,512,l),
(65,490,l),
(65,-142,l),
(18,-165,l),
(18,-202,l),
(198,-202,l),
(198,-165,l),
(151,-143,l),
(151,99,l),
(220,42,o),
(308,42,qs),
(414,42,o),
(485,123,qs),
(558,206,o),
(558,332,qs),
(558,433,o),
(490,500,qs),
(425,563,o),
(334,563,qs),
(204,563,o)
);
}
);
width = 572;
}
);
note = p;
unicode = 112;
},
{
glyphname = q;
lastChange = "2024-07-02 17:53:05 +0000";
layers = (
{
layerId = m01;
shapes = (
{
closed = 1;
nodes = (
(278,96,qs),
(272,95,o),
(266,95,qs),
(210,95,o),
(166,145,qs),
(116,202,o),
(109,289,qs),
(107,302,o),
(107,316,qs),
(107,385,o),
(139,440,qs),
(179,505,o),
(243,510,qs),
(250,511,o),
(257,511,qs),
(315,511,o),
(359,468,qs),
(410,418,o),
(418,333,qs),
(418,329,o),
(418,307,q),
(415,230,o),
(377,164,q),
(335,103,o)
);
},
{
closed = 1;
nodes = (
(505,554,l),
(468,554,l),
(431,472,l),
(371,563,o),
(261,563,qs),
(155,563,o),
(84,482,qs),
(11,399,o),
(11,273,qs),
(11,171,o),
(79,105,qs),
(144,42,o),
(235,42,qs),
(365,42,o),
(420,159,q),
(420,-143,l),
(373,-165,l),
(373,-202,l),
(552,-202,l),
(552,-165,l),
(505,-142,l)
);
}
);
width = 568;
}
);
note = q;
unicode = 113;
},
{
glyphname = r;
lastChange = "2024-07-02 17:53:05 +0000";
layers = (
{
layerId = m01;
shapes = (
{
closed = 1;
nodes = (
(340,444,qs),
(341,438,o),
(341,428,qs),
(341,415,o),
(338,390,q),
(392,390,l),
(405,480,l),
(394,507,o),
(369,530,qs),
(333,563,o),
(288,563,qs),
(212,563,o),
(155,446,q),
(148,563,l),
(22,549,l),
(22,498,l),
(68,490,l),
(68,110,l),
(14,87,l),
(14,50,l),
(209,50,l),
(209,87,l),
(155,109,l),
(155,334,l),
(174,424,o),
(213,473,q),
(235,495,o),
(258,503,qs),
(267,505,o),
(276,505,qs),
(289,505,o),
(302,498,qs),
(330,484,o)
);
}
);
width = 416;
}
);
note = r;
unicode = 114;
},
{
glyphname = s;
lastChange = "2024-07-02 17:53:05 +0000";
layers = (
{
layerId = m01;
shapes = (
{
closed = 1;
nodes = (
(155,379,qs),
(107,416,o),
(107,456,qs),
(107,482,o),
(126,498,qs),
(146,514,o),
(180,516,qs),
(189,516,ls),
(230,516,o),
(257,498,qs),
(286,479,o),
(294,444,qs),
(296,438,o),
(296,428,qs),
(296,415,o),
(293,390,q),
(346,390,l),
(360,480,l),
(346,513,o),
(308,536,qs),
(262,563,o),
(192,563,qs),
(127,563,o),
(89,544,qs),
(40,519,o),
(31,460,qs),
(29,448,o),
(29,436,qs),
(29,354,o),
(125,295,qs),
(196,251,o),
(225,232,qs),
(270,199,o),
(270,160,qs),
(270,133,o),
(256,114,qs),
(239,94,o),
(208,89,qs),
(197,88,o),
(186,88,qs),
(147,88,o),
(114,107,q),
(85,126,o),
(76,161,qs),
(75,166,o),
(75,176,qs),
(75,190,o),
(78,215,q),
(24,215,l),
(11,125,l),
(24,92,o),
(63,69,qs),
(109,42,o),
(189,42,qs),
(258,42,o),
(296,58,qs),
(351,82,o),
(358,145,qs),
(359,156,o),
(359,166,qs),
(359,212,o),
(336,248,qs),
(313,285,o),
(258,319,q),
(171,367,o)
);
}
);
width = 385;
}
);
note = s;
unicode = 115;
},
{
glyphname = t;
lastChange = "2024-07-02 17:53:05 +0000";
layers = (
{
layerId = m01;
shapes = (
{
closed = 1;
nodes = (
(288,563,l),
(165,560,l),
(165,686,l),
(108,680,l),
(79,557,l),
(11,549,l),
(11,498,l),
(78,498,l),
(78,179,ls),
(78,112,o),
(93,87,qs),
(116,46,o),
(166,42,q),
(207,42,o),
(243,59,q),
(227,106,l),
(221,103,o),
(214,103,qs),
(207,103,o),
(199,106,qs),
(177,114,o),
(170,135,qs),
(165,152,o),
(165,193,qs),
(165,498,l),
(288,498,l)
);
}
);
width = 299;
}
);
note = t;
unicode = 116;
},
{
glyphname = u;
lastChange = "2024-07-02 17:53:05 +0000";
layers = (
{
layerId = m01;
shapes = (
{
closed = 1;
nodes = (
(500,563,l),
(359,549,l),
(359,498,l),
(413,490,l),
(413,264,ls),
(413,218,o),
(380,168,qs),
(343,110,o),
(288,96,q),
(274,94,o),
(261,94,qs),
(210,94,o),
(184,131,qs),
(151,177,o),
(151,289,qs),
(151,563,l),
(11,549,l),
(11,498,l),
(65,490,l),
(65,257,ls),
(65,129,o),
(127,76,qs),
(167,42,o),
(231,42,qs),
(248,42,o),
(265,44,qs),
(312,50,o),
(354,82,qs),
(395,114,o),
(413,159,q),
(420,49,l),
(546,55,l),
(546,93,l),
(500,115,l)
);
}
);
width = 561;
}
);
note = u;
unicode = 117;
},
{
glyphname = v;
lastChange = "2024-07-02 17:53:05 +0000";
layers = (
{
layerId = m01;
shapes = (
{
closed = 1;
nodes = (
(369,518,l),
(415,495,l),
(289,123,l),
(294,140,o),
(294,158,qs),
(294,171,o),
(292,185,q),
(163,495,l),
(210,518,l),
(210,554,l),
(11,554,l),
(11,518,l),
(65,495,l),
(262,50,l),
(314,50,l),
(481,495,l),
(535,518,l),
(535,554,l),
(369,554,l)
);
}
);
width = 545;
}
);
note = v;
unicode = 118;
},
{
glyphname = w;
lastChange = "2024-07-02 17:53:05 +0000";
layers = (
{
layerId = m01;
shapes = (
{
closed = 1;
nodes = (
(588,518,l),
(634,495,l),
(519,123,l),
(523,140,o),
(523,160,qs),
(523,172,o),
(522,185,q),
(413,495,l),
(464,518,l),
(464,554,l),
(266,554,l),
(266,518,l),
(320,495,l),
(361,390,l),
(279,123,ls),
(284,139,o),
(284,158,qs),
(284,171,o),
(282,185,q),
(159,495,l),
(210,518,l),
(210,554,l),
(11,554,l),
(11,518,l),
(65,495,l),
(250,50,l),
(310,50,l),
(393,311,l),
(498,50,l),
(549,50,l),
(700,495,l),
(754,518,l),
(754,554,l),
(588,554,l)
);
}
);
width = 765;
}
);
note = w;
unicode = 119;
},
{
glyphname = x;
lastChange = "2024-07-02 17:53:05 +0000";
layers = (
{
layerId = m01;
shapes = (
{
closed = 1;
nodes = (
(341,518,l),
(395,495,l),
(276,349,l),
(169,495,l),
(223,518,l),
(223,554,l),
(14,554,l),
(14,518,l),
(68,495,l),
(223,304,l),
(71,110,l),
(11,87,l),
(11,50,l),
(194,50,l),
(194,87,l),
(140,109,l),
(259,261,l),
(372,109,l),
(318,87,l),
(318,50,l),
(530,50,l),
(530,87,l),
(476,110,l),
(313,309,l),
(467,495,l),
(525,518,l),
(525,554,l),
(341,554,l)
);
}
);
width = 541;
}
);
note = x;
unicode = 120;
},
{
glyphname = y;
lastChange = "2024-07-02 17:53:05 +0000";
layers = (
{
layerId = m01;
shapes = (
{
closed = 1;
nodes = (
(348,518,l),
(405,495,l),
(286,123,l),
(286,199,o),
(162,495,q),
(220,518,l),
(220,554,l),
(11,554,l),
(11,518,l),
(72,495,l),
(251,50,l),
(220,-50,o),
(168,-119,qs),
(145,-148,o),
(116,-151,qs),
(113,-152,o),
(109,-152,qs),
(100,-152,o),
(88,-145,q),
(65,-193,l),
(97,-217,o),
(143,-217,qs),
(205,-217,o),
(261,-109,qs),
(279,-72,o),
(317,42,qs),
(464,494,l),
(526,518,l),
(526,554,l),
(348,554,l)
);
}
);
width = 537;
}
);
note = y;
unicode = 121;
},
{
glyphname = z;
lastChange = "2024-07-02 17:53:05 +0000";
layers = (
{
layerId = m01;
shapes = (
{
closed = 1;
nodes = (
(19,390,l),
(71,390,l),
(114,503,l),
(285,503,l),
(11,87,l),
(11,50,l),
(384,50,l),
(402,215,l),
(351,215,l),
(307,102,l),
(122,102,l),
(397,518,l),
(397,554,l),
(37,554,l)
);
}
);
width = 412;
}
);
note = z;
unicode = 122;
},
{
glyphname = braceleft;
lastChange = "2024-07-02 17:53:05 +0000";
layers = (
{
layerId = m01;
shapes = (
{
closed = 1;
nodes = (
(135,480,qs),
(136,470,o),
(136,462,qs),
(136,353,o),
(36,353,q),
(36,318,l),
(136,318,o),
(136,209,qs),
(136,201,o),
(135,192,qs),
(133,140,o),
(100,-1,qs),
(95,-22,o),
(95,-40,qs),
(95,-104,o),
(149,-150,qs),
(209,-202,o),
(282,-202,q),
(282,-166,l),
(227,-150,o),
(202,-114,qs),
(183,-86,o),
(183,-50,qs),
(183,-26,o),
(190,1,qs),
(212,81,o),
(212,150,qs),
(212,189,o),
(205,223,qs),
(184,336,o),
(100,336,q),
(184,336,o),
(205,448,qs),
(212,482,o),
(212,521,qs),
(212,590,o),
(190,670,qs),
(183,697,o),
(183,721,qs),
(183,757,o),
(202,785,qs),
(227,822,o),
(282,837,q),
(282,873,l),
(209,873,o),
(149,822,qs),
(95,775,o),
(95,711,qs),
(95,693,o),
(100,672,qs),
(133,531,o)
);
}
);
width = 319;
}
);
note = braceleft;
unicode = 123;
},
{
glyphname = bar;
lastChange = "2024-07-02 17:53:05 +0000";
layers = (
{
layerId = m01;
shapes = (
{
closed = 1;
nodes = (
(36,-241,l),
(108,-241,l),
(108,1084,l),
(36,1084,l)
);
}
);
width = 144;
}
);
note = bar;
unicode = 124;
},
{
glyphname = braceright;
lastChange = "2024-07-02 17:53:05 +0000";
layers = (
{
layerId = m01;
shapes = (
{
closed = 1;
nodes = (
(223,693,o),
(223,711,qs),
(223,775,o),
(169,822,qs),
(109,873,o),
(36,873,q),
(36,837,l),
(91,822,o),
(117,785,qs),
(135,757,o),
(135,721,qs),
(135,697,o),
(128,670,qs),
(107,590,o),
(107,521,qs),
(107,482,o),
(113,448,qs),
(134,336,o),
(218,336,q),
(134,336,o),
(113,223,qs),
(107,189,o),
(107,150,qs),
(107,81,o),
(128,1,qs),
(135,-26,o),
(135,-50,qs),
(135,-86,o),
(117,-114,qs),
(91,-150,o),
(36,-166,q),
(36,-202,l),
(109,-202,o),
(169,-150,qs),
(223,-104,o),
(223,-40,qs),
(223,-22,o),
(218,-1,qs),
(185,140,o),
(183,192,qs),
(182,201,o),
(182,209,qs),
(182,318,o),
(282,318,q),
(282,353,l),
(182,353,o),
(182,462,qs),
(182,470,o),
(183,480,qs),
(185,531,o),
(218,672,qs)
);
}
);
width = 319;
}
);
note = braceright;
unicode = 125;
},
{
glyphname = asciitilde;
lastChange = "2024-07-02 17:53:05 +0000";
layers = (
{
layerId = m01;
shapes = (
{
closed = 1;
nodes = (
(546,413,o),
(528,391,qs),
(503,359,o),
(466,359,qs),
(452,359,o),
(436,364,qs),
(420,369,o),
(336,399,qs),
(251,428,o),
(248,429,qs),
(204,443,o),
(168,443,qs),
(129,443,o),
(101,427,qs),
(62,405,o),
(45,343,qs),
(37,312,o),
(36,285,q),
(71,276,l),
(76,302,o),
(94,324,qs),
(119,356,o),
(158,356,qs),
(171,356,o),
(187,352,qs),
(205,347,o),
(289,317,qs),
(311,309,o),
(346,297,qs),
(373,287,o),
(375,286,qs),
(418,271,o),
(454,271,qs),
(492,271,o),
(523,288,qs),
(562,310,o),
(578,372,qs),
(587,403,o),
(588,430,q),
(552,438,l)
);
}
);
width = 624;
}
);
note = asciitilde;
unicode = 126;
},
{
glyphname = cent;
lastChange = "2024-07-02 17:53:05 +0000";
layers = (
{
layerId = m01;
shapes = (
{
closed = 1;
nodes = (
(299,506,o),
(310,498,qs),
(339,479,o),
(348,444,qs),
(349,438,o),
(349,428,qs),
(349,415,o),
(346,390,q),
(400,390,l),
(413,480,l),
(400,513,o),
(361,536,qs),
(332,554,o),
(294,559,q),
(332,767,l),
(276,767,l),
(240,563,l),
(144,558,o),
(73,482,qs),
(0,401,o),
(0,292,qs),
(0,181,o),
(66,112,qs),
(102,76,o),
(148,58,q),
(115,-126,l),
(171,-126,l),
(202,45,l),
(222,42,o),
(246,42,qs),
(354,42,o),
(415,140,q),
(385,157,l),
(354,126,o),
(335,114,qs),
(307,96,o),
(270,94,qs),
(261,94,ls),
(235,94,o),
(212,104,q),
(286,510,l)
);
},
{
closed = 1;
nodes = (
(157,140,o),
(151,146,qs),
(96,204,o),
(94,289,qs),
(94,302,ls),
(94,393,o),
(130,449,qs),
(166,505,o),
(231,514,q),
(163,135,l)
);
}
);
width = 543;
}
);
note = cent;
unicode = 162;
},
{
glyphname = sterling;
lastChange = "2024-07-02 17:53:05 +0000";
layers = (
{
layerId = m01;
shapes = (
{
closed = 1;
nodes = (
(531,240,o),
(516,199,qs),
(489,134,o),
(448,134,qs),
(438,134,o),
(428,138,qs),
(423,139,o),
(398,154,qs),
(372,170,o),
(353,178,qs),
(324,189,o),
(297,189,qs),
(259,189,o),
(225,168,q),
(276,251,o),
(276,324,qs),
(276,352,o),
(269,379,q),
(461,379,l),
(461,444,l),
(242,444,l),
(179,566,o),
(172,612,qs),
(168,637,o),
(168,657,qs),
(168,679,o),
(173,695,qs),
(189,753,o),
(261,758,qs),
(269,759,o),
(275,759,qs),
(327,759,o),
(368,729,qs),
(413,698,o),
(426,652,q),
(427,644,o),
(427,631,qs),
(427,609,o),
(423,574,q),
(492,574,l),
(512,692,l),
(469,757,o),
(397,789,qs),
(340,815,o),
(282,815,qs),
(205,815,o),
(158,789,qs),
(114,765,o),
(90,717,qs),
(68,675,o),
(68,625,qs),
(68,616,o),
(68,606,qs),
(76,526,o),
(126,444,q),
(25,444,l),
(25,379,l),
(165,379,l),
(190,330,o),
(190,284,qs),
(190,273,o),
(189,262,qs),
(179,187,o),
(108,78,q),
(108,42,l),
(131,65,o),
(163,86,qs),
(214,118,o),
(253,118,qs),
(265,118,o),
(275,116,qs),
(292,111,o),
(323,91,qs),
(365,62,o),
(366,61,qs),
(400,42,o),
(436,42,qs),
(441,42,ls),
(476,43,o),
(503,63,qs),
(544,91,o),
(567,189,qs),
(580,239,o),
(583,283,q),
(536,283,l)
);
}
);
width = 608;
}
);
note = sterling;
unicode = 163;
},
{
glyphname = currency;
lastChange = "2024-07-02 17:53:05 +0000";
layers = (
{
layerId = m01;
shapes = (
{
closed = 1;
nodes = (
(215,296,qs),
(159,353,o),
(159,434,qs),
(159,515,o),
(215,572,qs),
(269,629,o),
(347,629,qs),
(425,629,o),
(480,572,qs),
(535,515,o),
(535,434,qs),
(535,353,o),
(480,296,qs),
(425,239,o),
(347,239,qs),
(269,239,o)
);
},
{
closed = 1;
nodes = (
(551,268,l),
(610,341,o),
(610,434,qs),
(610,536,o),
(546,606,q),
(660,683,l),
(596,747,l),
(519,633,l),
(519,632,l),
(446,697,o),
(347,697,qs),
(253,697,o),
(181,638,q),
(104,751,l),
(40,688,l),
(153,611,l),
(84,536,o),
(84,434,qs),
(84,336,o),
(148,262,q),
(36,186,l),
(99,122,l),
(176,235,l),
(250,171,o),
(347,171,qs),
(449,171,o),
(524,240,q),
(601,127,l),
(665,191,l)
);
}
);
width = 700;
}
);
note = currency;
unicode = 164;
},
{
glyphname = brokenbar;
lastChange = "2024-07-02 17:53:05 +0000";
layers = (
{
layerId = m01;
shapes = (
{
closed = 1;
nodes = (
(36,508,l),
(108,508,l),
(108,1084,l),
(36,1084,l)
);
},
{
closed = 1;
nodes = (
(108,-241,l),
(108,335,l),
(36,335,l),
(36,-241,l)
);
}
);
width = 144;
}
);
note = brokenbar;
unicode = 166;
},
{
glyphname = section;
lastChange = "2024-07-02 17:53:05 +0000";
layers = (
{
layerId = m01;
shapes = (
{
closed = 1;
nodes = (
(298,204,qs),
(210,271,o),
(180,312,qs),
(145,359,o),
(145,405,qs),
(145,452,o),
(183,497,q),
(222,451,o),
(289,401,qs),
(377,334,o),
(407,293,qs),
(441,246,o),
(441,200,qs),
(441,153,o),
(404,108,q),
(365,153,o)
);
},
{
closed = 1;
nodes = (
(260,742,qs),
(281,750,o),
(307,750,qs),
(319,750,o),
(332,748,qs),
(395,740,o),
(438,679,qs),
(469,634,o),
(483,574,q),
(549,574,l),
(542,668,o),
(491,732,qs),
(424,815,o),
(297,815,qs),
(222,815,o),
(175,777,qs),
(135,744,o),
(125,694,qs),
(120,671,o),
(120,649,qs),
(120,590,o),
(154,536,q),
(71,495,o),
(53,411,qs),
(48,389,o),
(48,366,qs),
(48,317,o),
(74,271,qs),
(120,194,o),
(259,83,qs),
(315,37,o),
(337,11,qs),
(369,-29,o),
(369,-69,qs),
(369,-120,o),
(327,-137,qs),
(306,-145,o),
(280,-145,qs),
(269,-145,o),
(256,-143,qs),
(192,-135,o),
(149,-74,qs),
(118,-30,o),
(104,31,q),
(39,31,l),
(45,-63,o),
(96,-127,qs),
(163,-210,o),
(291,-210,qs),
(365,-210,o),
(412,-172,qs),
(451,-140,o),
(462,-89,qs),
(467,-66,o),
(467,-43,qs),
(467,16,o),
(433,69,q),
(516,109,o),
(535,194,qs),
(539,216,o),
(539,237,qs),
(539,287,o),
(513,333,qs),
(467,410,o),
(328,522,qs),
(272,567,o),
(250,594,qs),
(217,634,o),
(217,674,qs),
(217,724,o)
);
}
);
width = 587;
}
);
note = section;
unicode = 167;
},
{
glyphname = dieresis;
lastChange = "2024-07-02 17:53:05 +0000";
layers = (
{
layerId = m01;
shapes = (
{
closed = 1;
nodes = (
(58,877,o),
(48,865,qs),
(36,855,o),
(36,840,qs),
(36,814,ls),
(36,798,o),
(48,788,qs),
(58,776,o),
(73,776,qs),
(99,776,ls),
(114,776,o),
(125,788,qs),
(137,798,o),
(137,814,qs),
(137,840,ls),
(137,855,o),
(125,865,qs),
(114,877,o),
(99,877,qs),
(73,877,ls)
);
},
{
closed = 1;
nodes = (
(294,877,o),
(284,865,qs),
(272,855,o),
(272,840,qs),
(272,814,ls),
(272,798,o),
(284,788,qs),
(294,776,o),
(310,776,qs),
(336,776,ls),
(351,776,o),
(361,788,qs),
(373,798,o),
(373,814,qs),
(373,840,ls),
(373,855,o),
(361,865,qs),
(351,877,o),
(336,877,qs),
(310,877,ls)
);
}
);
width = 409;
}
);
note = dieresis;
unicode = 168;
},
{
glyphname = copyright;
lastChange = "2024-07-02 17:53:05 +0000";
layers = (
{
layerId = m01;
shapes = (
{
closed = 1;
nodes = (
(449,218,qs),
(439,218,ls),
(379,218,o),
(330,270,qs),
(275,328,o),
(272,413,qs),
(272,426,ls),
(272,517,o),
(308,572,qs),
(346,630,o),
(412,638,qs),
(421,639,o),
(431,639,qs),
(464,639,o),
(489,622,qs),
(518,603,o),
(526,567,qs),
(528,562,o),
(528,552,qs),
(528,539,o),
(525,514,q),
(578,514,l),
(592,604,l),
(578,636,o),
(540,660,qs),
(494,687,o),
(431,687,qs),
(327,687,o),
(252,606,qs),
(179,525,o),
(179,415,qs),
(179,305,o),
(245,236,qs),
(312,166,o),
(424,166,qs),
(533,166,o),
(594,264,q),
(564,281,l),
(532,250,o),
(513,238,qs),
(485,220,o)
);
},
{
closed = 1;
nodes = (
(174,186,qs),
(76,287,o),
(76,428,qs),
(76,570,o),
(174,670,qs),
(272,770,o),
(412,770,qs),
(552,770,o),
(650,670,qs),
(749,570,o),
(749,428,qs),
(749,287,o),
(650,186,qs),
(552,86,o),
(412,86,qs),
(272,86,o)
);
},
{
closed = 1;
nodes = (
(138,702,qs),
(25,588,o),
(25,428,qs),
(25,269,o),
(138,155,qs),
(252,42,o),
(412,42,qs),
(572,42,o),
(685,155,qs),
(798,269,o),
(798,428,qs),
(798,588,o),
(685,702,qs),
(572,815,o),
(412,815,qs),
(252,815,o)
);
}
);
width = 824;
}
);
note = copyright;
unicode = 169;
},
{
glyphname = logicalnot;
lastChange = "2024-07-02 17:53:05 +0000";
layers = (
{
layerId = m01;
shapes = (
{
closed = 1;
nodes = (
(396,299,l),
(396,556,l),
(36,556,l),
(36,469,l),
(310,469,l),
(310,299,l)
);
}
);
width = 432;
}
);
note = logicalnot;
unicode = 172;
},
{
glyphname = registered;
lastChange = "2024-07-02 17:53:05 +0000";
layers = (
{
layerId = m01;
shapes = (
{
closed = 1;
nodes = (
(348,644,o),
(372,644,qs),
(397,644,o),
(423,640,q),
(498,626,o),
(498,546,qs),
(498,540,o),
(497,533,qs),
(490,480,o),
(435,462,qs),
(410,453,o),
(327,453,q),
(327,641,l)
);
},
{
closed = 1;
nodes = (
(560,259,qs),
(546,308,o),
(523,390,q),
(491,420,o),
(449,428,q),
(449,431,l),
(557,439,o),
(568,527,qs),
(569,537,o),
(569,546,qs),
(569,590,o),
(548,623,q),
(516,665,o),
(458,677,qs),
(432,683,o),
(332,683,qs),
(219,683,l),
(219,658,l),
(265,643,l),
(265,223,l),
(228,208,l),
(228,184,l),
(369,184,l),
(369,208,l),
(327,223,l),
(327,415,l),
(330,415,ls),
(442,415,o),
(461,371,q),
(480,272,o),
(487,246,qs),
(495,217,o),
(514,199,qs),
(534,179,o),
(559,179,qs),
(589,179,o),
(617,190,q),
(607,220,l),
(603,219,o),
(599,219,qs),
(595,219,o),
(590,220,qs),
(570,227,o)
);
},
{
closed = 1;
nodes = (
(174,186,qs),
(76,287,o),
(76,428,qs),
(76,570,o),
(174,670,qs),
(272,770,o),
(412,770,qs),
(552,770,o),
(650,670,qs),
(749,570,o),
(749,428,qs),
(749,287,o),
(650,186,qs),
(552,86,o),
(412,86,qs),
(272,86,o)
);
},
{
closed = 1;
nodes = (
(138,702,qs),
(25,588,o),
(25,428,qs),
(25,269,o),
(138,155,qs),
(252,42,o),
(412,42,qs),
(572,42,o),
(685,155,qs),
(798,269,o),
(798,428,qs),
(798,588,o),
(685,702,qs),
(572,815,o),
(412,815,qs),
(252,815,o)
);
}
);
width = 824;
}
);
note = registered;
unicode = 174;
},
{
glyphname = degree;
lastChange = "2024-07-02 17:53:05 +0000";
layers = (
{
layerId = m01;
shapes = (
{
closed = 1;
nodes = (
(81,826,qs),
(58,850,o),
(58,884,qs),
(58,918,o),
(81,942,qs),
(104,966,o),
(137,966,qs),
(169,966,o),
(192,942,qs),
(215,918,o),
(215,884,qs),
(215,850,o),
(192,826,qs),
(169,802,o),
(137,802,qs),
(104,802,o)
);
},
{
closed = 1;
nodes = (
(48,973,qs),
(11,936,o),
(11,884,qs),
(11,832,o),
(48,795,qs),
(85,758,o),
(137,758,qs),
(189,758,o),
(226,795,qs),
(263,832,o),
(263,884,qs),
(263,936,o),
(226,973,qs),
(189,1010,o),
(137,1010,qs),
(85,1010,o)
);
}
);
width = 274;
}
);
note = degree;
unicode = 176;
},
{
glyphname = acute;
lastChange = "2024-07-02 17:53:05 +0000";
layers = (
{
layerId = m01;
shapes = (
{
closed = 1;
nodes = (
(25,645,l),
(93,626,l),
(235,835,l),
(108,835,l)
);
}
);
width = 260;
}
);
note = acute;
unicode = 180;
},
{
glyphname = mu;
lastChange = "2024-07-02 17:53:05 +0000";
layers = (
{
layerId = m01;
shapes = (
{
closed = 1;
nodes = (
(563,112,o),
(556,112,qs),
(549,112,o),
(543,116,qs),
(525,126,o),
(525,165,qs),
(525,563,l),
(384,549,l),
(384,498,l),
(438,490,l),
(438,264,ls),
(438,225,o),
(403,168,qs),
(359,96,o),
(300,96,qs),
(235,96,o),
(202,181,qs),
(176,246,o),
(176,323,qs),
(176,563,l),
(36,549,l),
(36,498,l),
(90,490,l),
(90,-142,l),
(43,-165,l),
(43,-202,l),
(223,-202,l),
(223,-165,l),
(176,-142,l),
(176,113,l),
(202,42,o),
(301,42,qs),
(344,42,o),
(382,66,qs),
(426,95,o),
(438,143,q),
(439,114,o),
(456,87,qs),
(476,55,o),
(510,51,qs),
(516,50,o),
(523,50,qs),
(556,50,o),
(587,69,q),
(571,116,l)
);
}
);
width = 612;
}
);
note = mu;
unicode = 181;
},
{
glyphname = paragraph;
lastChange = "2024-07-02 17:53:05 +0000";
layers = (
{
layerId = m01;
shapes = (
{
closed = 1;
nodes = (
(163,806,o),
(99,743,qs),
(36,680,o),
(36,590,qs),
(36,501,o),
(99,438,qs),
(163,374,o),
(252,374,qs),
(305,374,l),
(305,-134,l),
(377,-134,l),
(377,751,l),
(482,751,l),
(482,-134,l),
(554,-134,l),
(554,747,l),
(612,770,l),
(612,806,l),
(252,806,ls)
);
}
);
width = 648;
}
);
note = paragraph;
unicode = 182;
},
{
glyphname = cedilla;
lastChange = "2024-07-02 17:53:05 +0000";
layers = (
{
layerId = m01;
shapes = (
{
closed = 1;
nodes = (
(49,50,l),
(25,-28,l),
(68,-28,o),
(68,-67,qs),
(68,-96,o),
(43,-112,qs),
(30,-119,o),
(18,-121,q),
(25,-151,l),
(42,-150,o),
(63,-143,qs),
(104,-129,o),
(122,-96,qs),
(132,-77,o),
(132,-58,qs),
(132,-48,o),
(130,-37,qs),
(120,-4,o),
(84,0,q),
(95,50,l)
);
}
);
width = 149;
}
);
note = cedilla;
unicode = 184;
},
{
glyphname = AE;
lastChange = "2024-07-02 17:53:05 +0000";
layers = (
{
layerId = m01;
shapes = (
{
closed = 1;
nodes = (
(340,454,l),
(469,751,l),
(469,454,l)
);
},
{
closed = 1;
nodes = (
(226,50,l),
(226,87,l),
(168,110,l),
(307,398,l),
(469,398,l),
(469,109,l),
(412,87,l),
(412,50,l),
(902,50,l),
(927,283,l),
(862,283,l),
(811,106,l),
(563,106,l),
(563,398,l),
(680,398,l),
(724,307,l),
(753,307,l),
(746,426,l),
(753,544,l),
(724,544,l),
(680,454,l),
(563,454,l),
(563,751,l),
(811,751,l),
(862,574,l),
(927,574,l),
(902,806,l),
(432,806,l),
(83,110,l),
(25,87,l),
(25,50,l)
);
}
);
width = 952;
}
);
note = AE;
unicode = 198;
},
{
glyphname = Thorn;
lastChange = "2024-07-02 17:53:05 +0000";
layers = (
{
layerId = m01;
shapes = (
{
closed = 1;
nodes = (
(281,770,l),
(281,806,l),
(36,806,l),
(36,770,l),
(115,747,l),
(117,110,l),
(45,87,l),
(45,50,l),
(282,50,l),
(282,87,l),
(211,110,l),
(210,603,l),
(233,607,o),
(258,607,qs),
(295,607,o),
(336,599,qs),
(446,573,o),
(458,469,qs),
(459,454,o),
(459,439,qs),
(459,359,o),
(411,322,qs),
(364,287,o),
(254,287,q),
(245,245,l),
(287,240,o),
(325,240,qs),
(415,240,o),
(472,270,qs),
(571,322,o),
(571,449,qs),
(571,612,o),
(401,652,qs),
(355,662,o),
(210,662,q),
(209,662,l),
(209,747,l)
);
}
);
width = 586;
}
);
note = Thorn;
unicode = 222;
},
{
glyphname = germandbls;
lastChange = "2024-07-02 17:53:05 +0000";
layers = (
{
layerId = m01;
shapes = (
{
closed = 1;
nodes = (
(478,351,qs),
(418,393,o),
(416,394,q),
(388,416,o),
(388,433,qs),
(388,447,o),
(405,466,qs),
(407,467,o),
(444,503,qs),
(505,562,o),
(517,620,qs),
(521,641,o),
(521,660,qs),
(521,708,o),
(493,748,qs),
(446,815,o),
(331,815,qs),
(241,815,o),
(176,757,qs),
(106,693,o),
(106,593,qs),
(106,111,l),
(36,86,l),
(36,51,l),
(199,51,l),
(199,601,ls),
(199,673,o),
(233,718,qs),
(268,765,o),
(325,765,qs),
(386,765,o),
(413,716,qs),
(429,690,o),
(429,657,qs),
(429,629,o),
(418,598,qs),
(411,577,o),
(363,526,qs),
(320,479,o),
(318,444,qs),
(318,436,ls),
(318,373,o),
(384,310,qs),
(391,302,o),
(411,284,qs),
(428,269,o),
(436,261,qs),
(463,234,o),
(469,212,qs),
(474,192,o),
(474,173,qs),
(474,135,o),
(449,110,qs),
(429,91,o),
(402,91,qs),
(379,91,o),
(351,105,q),
(349,113,o),
(349,127,qs),
(349,148,o),
(353,184,q),
(284,184,l),
(264,66,l),
(310,42,o),
(384,42,qs),
(397,42,o),
(411,42,qs),
(494,48,o),
(541,104,qs),
(578,150,o),
(578,206,qs),
(578,215,o),
(577,225,qs),
(570,287,o)
);
}
);
width = 610;
}
);
note = germandbls;
unicode = 223;
},
{
glyphname = ae;
lastChange = "2024-07-02 17:53:05 +0000";
layers = (
{
layerId = m01;
shapes = (
{
closed = 1;
nodes = (
(520,518,qs),
(530,519,o),
(539,519,qs),
(611,519,o),
(624,444,qs),
(627,419,o),
(627,396,qs),
(627,383,l),
(397,383,l),
(409,440,o),
(441,475,qs),
(474,512,o)
);
},
{
closed = 1;
nodes = (
(261,120,o),
(214,105,qs),
(197,100,o),
(182,100,qs),
(165,100,o),
(150,107,qs),
(118,120,o),
(117,157,qs),
(117,161,ls),
(117,222,o),
(183,258,qs),
(204,270,o),
(294,298,q),
(294,163,l)
);
},
{
closed = 1;
nodes = (
(186,563,qs),
(137,563,o),
(90,536,qs),
(48,510,o),
(35,480,q),
(49,390,l),
(100,390,l),
(99,410,o),
(99,424,qs),
(99,437,o),
(100,444,qs),
(108,477,o),
(130,496,qs),
(151,515,o),
(190,515,qs),
(246,515,o),
(271,480,qs),
(295,444,o),
(295,364,qs),
(295,354,o),
(294,343,q),
(162,307,o),
(130,292,qs),
(18,237,o),
(18,146,qs),
(18,141,o),
(19,135,qs),
(22,91,o),
(50,67,qs),
(78,42,o),
(132,42,qs),
(254,42,o),
(339,135,q),
(348,123,o),
(358,112,qs),
(426,42,o),
(538,42,qs),
(647,42,o),
(708,140,q),
(677,157,l),
(646,126,o),
(626,114,qs),
(598,96,o),
(562,94,qs),
(553,94,ls),
(492,94,o),
(444,146,qs),
(389,204,o),
(386,289,qs),
(385,301,o),
(385,310,qs),
(385,330,o),
(387,339,q),
(708,339,l),
(710,356,o),
(710,373,qs),
(710,436,o),
(692,480,qs),
(660,563,o),
(541,563,qs),
(438,563,o),
(365,482,qs),
(360,476,o),
(356,471,q),
(313,563,o)
);
}
);
width = 728;
}
);
note = ae;
unicode = 230;
},
{
glyphname = eth;
lastChange = "2024-07-02 17:53:05 +0000";
layers = (
{
layerId = m01;
shapes = (
{
closed = 1;
nodes = (
(280,94,o),
(274,94,qs),
(217,94,o),
(176,144,qs),
(130,198,o),
(122,285,qs),
(121,300,o),
(121,315,qs),
(121,383,o),
(150,433,qs),
(186,496,o),
(250,501,qs),
(256,502,o),
(262,502,qs),
(318,502,o),
(358,453,qs),
(401,400,o),
(409,312,qs),
(410,297,o),
(410,282,qs),
(410,213,o),
(384,163,qs),
(349,100,o),
(286,94,qs)
);
},
{
closed = 1;
nodes = (
(402,834,l),
(324,765,l),
(277,788,o),
(205,806,q),
(189,767,l),
(244,752,o),
(283,729,q),
(215,669,l),
(245,634,l),
(322,701,l),
(424,616,o),
(431,441,q),
(406,499,o),
(353,529,qs),
(309,554,o),
(261,554,qs),
(158,554,o),
(91,474,qs),
(25,395,o),
(25,284,qs),
(25,177,o),
(94,109,qs),
(163,42,o),
(268,42,qs),
(374,42,o),
(439,112,qs),
(509,189,o),
(516,332,qs),
(516,354,o),
(516,374,qs),
(516,636,o),
(366,740,q),
(433,800,l)
);
}
);
width = 554;
}
);
note = eth;
unicode = 240;
},
{
glyphname = oslash;
lastChange = "2024-07-02 17:53:05 +0000";
layers = (
{
layerId = m01;
shapes = (
{
closed = 1;
nodes = (
(189,-46,l),
(218,45,l),
(240,42,o),
(264,42,qs),
(368,42,o),
(443,125,qs),
(518,207,o),
(518,316,qs),
(518,423,o),
(443,494,qs),
(413,522,o),
(377,539,q),
(419,668,l),
(340,668,l),
(305,560,l),
(285,563,o),
(264,563,qs),
(161,563,o),
(86,480,qs),
(11,397,o),
(11,288,qs),
(11,181,o),
(86,111,qs),
(114,84,o),
(146,68,q),
(109,-46,l)
);
},
{
closed = 1;
nodes = (
(361,459,qs),
(413,402,o),
(420,316,qs),
(422,303,o),
(422,290,qs),
(422,220,o),
(387,165,qs),
(347,100,o),
(282,94,qs),
(276,94,o),
(271,94,qs),
(253,94,o),
(235,99,q),
(354,467,l),
(358,464,o)
);
},
{
closed = 1;
nodes = (
(167,145,qs),
(116,202,o),
(108,289,qs),
(107,302,o),
(107,315,qs),
(107,385,o),
(141,440,qs),
(181,505,o),
(246,510,qs),
(252,511,o),
(258,511,qs),
(274,511,o),
(288,508,q),
(170,142,l),
(168,144,o)
);
}
);
width = 528;
}
);
note = oslash;
unicode = 248;
},
{
glyphname = thorn;
lastChange = "2024-07-02 17:53:05 +0000";
layers = (
{
layerId = m01;
shapes = (
{
closed = 1;
nodes = (
(11,-165,l),
(11,-202,l),
(220,-202,l),
(220,-165,l),
(158,-143,l),
(158,99,l),
(227,42,o),
(315,42,qs),
(421,42,o),
(492,123,qs),
(565,206,o),
(565,332,qs),
(565,433,o),
(497,500,qs),
(432,563,o),
(341,563,qs),
(212,563,o),
(158,446,q),
(158,815,l),
(25,809,l),
(25,771,l),
(72,749,l),
(72,-142,l)
);
},
{
closed = 1;
nodes = (
(193,441,q),
(234,502,o),
(291,509,qs),
(297,510,o),
(303,510,qs),
(359,510,o),
(404,459,qs),
(453,402,o),
(461,316,qs),
(462,302,o),
(462,289,qs),
(462,220,o),
(430,165,qs),
(390,100,o),
(326,94,qs),
(319,94,o),
(312,94,qs),
(255,94,o),
(211,137,qs),
(172,174,o),
(158,231,q),
(158,354,l),
(168,399,o)
);
}
);
width = 576;
}
);
note = thorn;
unicode = 254;
},
{
glyphname = dotlessi;
lastChange = "2024-07-02 17:53:05 +0000";
layers = (
{
layerId = m01;
shapes = (
{
closed = 1;
nodes = (
(32,549,l),
(32,498,l),
(79,490,l),
(79,110,l),
(25,87,l),
(25,50,l),
(220,50,l),
(220,87,l),
(166,109,l),
(166,563,l)
);
}
);
width = 245;
}
);
note = dotlessi;
unicode = 305;
},
{
glyphname = circumflex;
lastChange = "2024-07-02 17:53:05 +0000";
layers = (
{
layerId = m01;
shapes = (
{
closed = 1;
nodes = (
(279,806,l),
(260,806,l),
(148,590,l),
(212,590,l),
(269,708,l),
(326,590,l),
(391,590,l)
);
}
);
width = 538;
}
);
note = circumflex;
unicode = 710;
},
{
glyphname = caron;
lastChange = "2024-07-02 17:53:05 +0000";
layers = (
{
layerId = m01;
shapes = (
{
closed = 1;
nodes = (
(269,688,l),
(212,806,l),
(148,806,l),
(260,590,l),
(279,590,l),
(391,806,l),
(326,806,l)
);
}
);
width = 538;
}
);
note = caron;
unicode = 711;
},
{
glyphname = breve;
lastChange = "2024-07-02 17:53:05 +0000";
layers = (
{
layerId = m01;
shapes = (
{
closed = 1;
nodes = (
(81,826,qs),
(58,850,o),
(58,884,q),
(11,884,l),
(11,832,o),
(48,795,qs),
(85,758,o),
(137,758,qs),
(189,758,o),
(226,795,qs),
(263,832,o),
(263,884,q),
(215,884,l),
(215,850,o),
(192,826,qs),
(169,802,o),
(137,802,qs),
(104,802,o)
);
}
);
width = 274;
}
);
note = breve;
unicode = 728;
},
{
glyphname = ring;
lastChange = "2024-07-02 17:53:05 +0000";
layers = (
{
layerId = m01;
shapes = (
{
closed = 1;
nodes = (
(110,842,qs),
(94,860,o),
(94,885,qs),
(94,909,o),
(110,927,qs),
(127,945,o),
(151,945,qs),
(175,945,o),
(192,927,qs),
(209,909,o),
(209,885,qs),
(209,860,o),
(192,842,qs),
(175,825,o),
(151,825,qs),
(127,825,o)
);
},
{
closed = 1;
nodes = (
(75,961,qs),
(43,930,o),
(43,885,qs),
(43,840,o),
(75,808,qs),
(107,777,o),
(151,777,qs),
(196,777,o),
(228,808,qs),
(259,840,o),
(259,885,qs),
(259,930,o),
(228,961,qs),
(196,993,o),
(151,993,qs),
(107,993,o)
);
}
);
width = 302;
}
);
note = ring;
unicode = 730;
},
{
glyphname = ogonek;
lastChange = "2024-07-02 17:53:05 +0000";
layers = (
{
layerId = m01;
shapes = (
{
closed = 1;
nodes = (
(94,-150,o),
(94,-61,qs),
(94,-50,o),
(96,-38,qs),
(99,-16,o),
(117,13,qs),
(134,40,o),
(150,50,q),
(87,50,l),
(70,41,o),
(50,15,qs),
(29,-14,o),
(24,-39,qs),
(20,-59,o),
(20,-76,qs),
(20,-119,o),
(42,-147,qs),
(75,-187,o),
(148,-187,qs),
(172,-187,o),
(189,-184,q),
(179,-150,l)
);
}
);
width = 200;
}
);
note = ogonek;
unicode = 731;
},
{
glyphname = tilde;
lastChange = "2024-07-02 17:53:05 +0000";
layers = (
{
layerId = m01;
shapes = (
{
closed = 1;
nodes = (
(411,870,o),
(397,854,qs),
(379,829,o),
(351,829,qs),
(341,829,o),
(328,833,qs),
(316,837,o),
(252,860,qs),
(188,882,o),
(186,883,qs),
(152,893,o),
(125,893,qs),
(96,893,o),
(74,881,qs),
(45,865,o),
(32,817,qs),
(26,793,o),
(25,773,q),
(52,767,l),
(55,786,o),
(69,803,qs),
(88,827,o),
(117,827,qs),
(127,827,o),
(140,824,qs),
(153,820,o),
(217,798,qs),
(233,791,o),
(260,782,qs),
(280,775,o),
(282,774,qs),
(315,763,o),
(342,763,qs),
(371,763,o),
(394,775,qs),
(423,793,o),
(436,840,qs),
(442,863,o),
(443,883,q),
(416,889,l)
);
}
);
width = 468;
}
);
note = tilde;
unicode = 732;
},
{
glyphname = endash;
lastChange = "2024-07-02 17:53:05 +0000";
layers = (
{
layerId = m01;
shapes = (
{
closed = 1;
nodes = (
(40,309,l),
(544,309,l),
(544,370,l),
(40,370,l)
);
}
);
width = 583;
}
);
note = endash;
unicode = 8211;
},
{
glyphname = emdash;
lastChange = "2024-07-02 17:53:05 +0000";
layers = (
{
layerId = m01;
shapes = (
{
closed = 1;
nodes = (
(40,311,l),
(688,311,l),
(688,369,l),
(40,369,l)
);
}
);
width = 727;
}
);
note = emdash;
unicode = 8212;
},
{
glyphname = quoteleft;
lastChange = "2024-07-02 17:53:05 +0000";
layers = (
{
layerId = m01;
shapes = (
{
closed = 1;
nodes = (
(36,660,o),
(48,648,qs),
(60,636,o),
(76,636,qs),
(104,636,ls),
(120,636,o),
(132,648,qs),
(144,660,o),
(144,677,qs),
(144,704,ls),
(144,721,o),
(132,732,qs),
(120,744,o),
(104,744,qs),
(102,744,l),
(103,793,o),
(111,803,qs),
(119,814,o),
(128,814,qs),
(130,814,o),
(132,813,q),
(137,838,l),
(125,841,o),
(115,841,qs),
(89,841,o),
(68,823,qs),
(41,798,o),
(37,742,qs),
(36,734,o),
(36,700,qs),
(36,677,ls)
);
}
);
width = 180;
}
);
note = quoteleft;
unicode = 8216;
},
{
glyphname = quoteright;
lastChange = "2024-07-02 17:53:05 +0000";
layers = (
{
layerId = m01;
shapes = (
{
closed = 1;
nodes = (
(144,817,o),
(132,829,qs),
(120,841,o),
(104,841,qs),
(76,841,ls),
(60,841,o),
(48,829,qs),
(36,817,o),
(36,801,qs),
(36,773,ls),
(36,757,o),
(48,745,qs),
(60,733,o),
(76,733,qs),
(78,733,l),
(77,685,o),
(69,675,qs),
(61,664,o),
(52,664,qs),
(50,664,o),
(48,665,q),
(43,639,l),
(55,636,o),
(65,636,qs),
(91,636,o),
(112,654,qs),
(139,679,o),
(143,736,qs),
(144,743,o),
(144,778,qs),
(144,801,ls)
);
}
);
width = 180;
}
);
note = quoteright;
unicode = 8217;
},
{
glyphname = quotesinglbase;
lastChange = "2024-07-02 17:53:05 +0000";
layers = (
{
layerId = m01;
shapes = (
{
closed = 1;
nodes = (
(180,83,o),
(168,95,qs),
(156,107,o),
(140,107,qs),
(112,107,ls),
(96,107,o),
(84,95,qs),
(72,83,o),
(72,66,qs),
(72,39,ls),
(72,22,o),
(84,11,qs),
(96,-1,o),
(112,-1,qs),
(114,-1,l),
(113,-50,o),
(105,-60,qs),
(97,-71,o),
(88,-71,qs),
(86,-71,o),
(84,-70,q),
(79,-95,l),
(91,-98,o),
(101,-98,qs),
(127,-98,o),
(148,-80,qs),
(175,-55,o),
(179,1,qs),
(180,9,o),
(180,43,qs),
(180,66,ls)
);
}
);
width = 288;
}
);
note = quotesinglbase;
unicode = 8218;
},
{
glyphname = dagger;
lastChange = "2024-07-02 17:53:05 +0000";
layers = (
{
layerId = m01;
shapes = (
{
closed = 1;
nodes = (
(176,562,l),
(119,585,l),
(25,585,l),
(25,503,l),
(119,503,l),
(176,526,l),
(176,50,l),
(205,-202,l),
(242,-202,l),
(270,50,l),
(270,526,l),
(328,503,l),
(421,503,l),
(421,585,l),
(328,585,l),
(270,562,l),
(270,806,l),
(176,806,l)
);
}
);
width = 446;
}
);
note = dagger;
unicode = 8224;
},
{
glyphname = daggerdbl;
lastChange = "2024-07-02 17:53:05 +0000";
layers = (
{
layerId = m01;
shapes = (
{
closed = 1;
nodes = (
(176,562,l),
(119,585,l),
(25,585,l),
(25,503,l),
(119,503,l),
(176,526,l),
(176,263,l),
(119,286,l),
(25,286,l),
(25,202,l),
(119,202,l),
(176,226,l),
(176,50,l),
(204,-202,l),
(241,-202,l),
(270,50,l),
(270,226,l),
(328,202,l),
(421,202,l),
(421,286,l),
(328,286,l),
(270,263,l),
(270,526,l),
(328,503,l),
(421,503,l),
(421,585,l),
(328,585,l),
(270,562,l),
(270,806,l),
(176,806,l)
);
}
);
width = 446;
}
);
note = daggerdbl;
unicode = 8225;
},
{
glyphname = bullet;
lastChange = "2024-07-02 17:53:05 +0000";
layers = (
{
layerId = m01;
shapes = (
{
closed = 1;
nodes = (
(141,546,o),
(36,440,o),
(36,366,qs),
(36,291,o),
(141,186,o),
(216,186,qs),
(291,186,o),
(396,291,o),
(396,366,qs),
(396,440,o),
(291,546,o),
(216,546,qs)
);
}
);
width = 432;
}
);
note = bullet;
unicode = 8226;
},
{
glyphname = guilsinglleft;
lastChange = "2024-07-02 17:53:05 +0000";
layers = (
{
layerId = m01;
shapes = (
{
closed = 1;
nodes = (
(25,321,l),
(25,284,l),
(184,86,l),
(206,123,l),
(141,302,l),
(206,482,l),
(184,518,l)
);
}
);
width = 231;
}
);
note = guilsinglleft;
unicode = 8249;
},
{
glyphname = guilsinglright;
lastChange = "2024-07-02 17:53:05 +0000";
layers = (
{
layerId = m01;
shapes = (
{
closed = 1;
nodes = (
(90,302,l),
(25,123,l),
(47,86,l),
(206,284,l),
(206,321,l),
(47,518,l),
(25,482,l)
);
}
);
width = 231;
}
);
note = guilsinglright;
unicode = 8250;
},
{
glyphname = fraction;
lastChange = "2024-07-02 17:53:05 +0000";
layers = (
{
layerId = m01;
shapes = (
{
closed = 1;
nodes = (
(18,-11,l),
(97,-11,l),
(558,853,l),
(479,853,l)
);
}
);
width = 576;
}
);
note = fraction;
unicode = (8260,8725);
},
{
glyphname = lira;
lastChange = "2024-07-02 17:53:05 +0000";
layers = (
{
layerId = m01;
shapes = (
{
closed = 1;
nodes = (
(531,240,o),
(516,199,qs),
(489,134,o),
(448,134,qs),
(438,134,o),
(428,138,qs),
(423,139,o),
(398,154,qs),
(372,170,o),
(353,178,qs),
(324,189,o),
(297,189,qs),
(259,189,o),
(225,168,q),
(258,222,o),
(270,269,q),
(461,269,l),
(461,333,l),
(276,333,l),
(275,356,o),
(269,379,q),
(461,379,l),
(461,444,l),
(242,444,l),
(179,566,o),
(172,612,qs),
(168,637,o),
(168,657,qs),
(168,679,o),
(173,695,qs),
(189,753,o),
(261,758,qs),
(269,759,o),
(275,759,qs),
(327,759,o),
(368,729,qs),
(413,698,o),
(426,652,q),
(427,644,o),
(427,631,qs),
(427,609,o),
(423,574,q),
(492,574,l),
(512,692,l),
(469,757,o),
(397,789,qs),
(340,815,o),
(282,815,qs),
(205,815,o),
(158,789,qs),
(114,765,o),
(90,717,qs),
(68,675,o),
(68,625,qs),
(68,616,o),
(68,606,qs),
(76,526,o),
(126,444,q),
(25,444,l),
(25,379,l),
(165,379,l),
(177,354,o),
(184,333,q),
(25,333,l),
(25,269,l),
(189,269,l),
(182,192,o),
(108,78,q),
(108,42,l),
(131,65,o),
(163,86,qs),
(214,118,o),
(253,118,qs),
(265,118,o),
(275,116,qs),
(292,111,o),
(323,91,qs),
(365,62,o),
(366,61,qs),
(400,42,o),
(436,42,qs),
(441,42,ls),
(476,43,o),
(503,63,qs),
(544,91,o),
(567,189,qs),
(580,239,o),
(583,283,q),
(536,283,l)
);
}
);
width = 608;
}
);
note = lira;
unicode = 8356;
},
{
glyphname = Euro;
lastChange = "2024-07-02 17:53:05 +0000";
layers = (
{
layerId = m01;
shapes = (
{
closed = 1;
nodes = (
(235,567,o),
(279,648,q),
(337,737,o),
(441,755,q),
(455,757,o),
(468,757,qs),
(524,757,o),
(563,729,qs),
(608,698,o),
(621,652,q),
(622,644,o),
(622,631,qs),
(622,609,o),
(618,574,q),
(687,574,l),
(707,692,l),
(686,740,o),
(630,774,qs),
(562,815,o),
(467,815,qs),
(323,815,o),
(217,694,qs),
(115,577,o),
(115,413,qs),
(115,253,o),
(212,147,q),
(314,42,o),
(458,42,qs),
(619,42,o),
(710,188,q),
(668,210,l),
(619,160,o),
(591,142,qs),
(546,112,o),
(493,109,qs),
(487,108,o),
(480,108,qs),
(392,108,o),
(309,191,q),
(238,276,o),
(232,399,qs),
(231,452,l)
);
},
{
closed = 1;
nodes = (
(25,473,l),
(529,473,l),
(529,538,l),
(25,538,l)
);
},
{
closed = 1;
nodes = (
(25,322,l),
(529,322,l),
(529,387,l),
(25,387,l)
);
}
);
width = 735;
}
);
note = Euro;
unicode = 8364;
},
{
glyphname = partialdiff;
lastChange = "2024-07-02 17:53:05 +0000";
layers = (
{
layerId = m01;
shapes = (
{
closed = 1;
nodes = (
(266,101,o),
(261,101,qs),
(205,101,o),
(168,150,qs),
(131,201,o),
(131,282,qs),
(131,288,ls),
(132,373,o),
(172,432,qs),
(213,493,o),
(276,498,qs),
(282,499,o),
(288,499,qs),
(342,499,o),
(377,451,qs),
(413,400,o),
(413,318,qs),
(413,315,ls),
(411,228,o),
(373,168,qs),
(333,107,o),
(271,102,qs)
);
},
{
closed = 1;
nodes = (
(177,753,q),
(203,740,l),
(231,762,o),
(264,770,qs),
(271,773,o),
(280,773,qs),
(300,773,o),
(322,761,qs),
(357,743,o),
(385,704,qs),
(448,618,o),
(448,480,qs),
(448,461,o),
(446,440,q),
(428,496,o),
(379,526,qs),
(338,550,o),
(291,550,qs),
(192,550,o),
(118,472,qs),
(47,395,o),
(36,287,qs),
(35,271,o),
(35,256,qs),
(35,172,o),
(86,116,qs),
(146,50,o),
(248,50,qs),
(352,50,o),
(423,120,qs),
(498,194,o),
(518,333,qs),
(528,407,o),
(528,471,qs),
(528,626,o),
(464,723,qs),
(425,782,o),
(369,804,qs),
(338,815,o),
(307,815,qs),
(281,815,o),
(253,807,qs),
(201,791,o)
);
}
);
width = 580;
}
);
note = partialdiff;
unicode = 8706;
},
{
glyphname = Delta;
lastChange = "2024-07-02 17:53:05 +0000";
layers = (
{
layerId = m01;
shapes = (
{
closed = 1;
nodes = (
(745,89,l),
(745,50,l),
(25,50,l),
(25,89,l),
(27,89,l),
(355,806,l),
(392,806,l)
);
},
{
closed = 1;
nodes = (
(616,113,l),
(358,670,l),
(112,113,l)
);
}
);
width = 770;
}
);
note = Delta;
unicode = 8710;
},
{
glyphname = product;
lastChange = "2024-07-02 17:53:05 +0000";
layers = (
{
layerId = m01;
shapes = (
{
closed = 1;
nodes = (
(36,770,l),
(94,747,l),
(94,-135,l),
(36,-158,l),
(36,-194,l),
(245,-194,l),
(245,-158,l),
(187,-135,l),
(187,751,l),
(496,751,l),
(496,-135,l),
(438,-158,l),
(438,-194,l),
(647,-194,l),
(647,-158,l),
(590,-135,l),
(590,747,l),
(647,770,l),
(647,806,l),
(36,806,l)
);
}
);
width = 683;
}
);
note = product;
unicode = 8719;
},
{
glyphname = summation;
lastChange = "2024-07-02 17:53:05 +0000";
layers = (
{
layerId = m01;
shapes = (
{
closed = 1;
nodes = (
(36,770,l),
(284,334,l),
(36,-107,l),
(36,-144,l),
(598,-144,l),
(624,89,l),
(558,89,l),
(507,-89,l),
(160,-89,l),
(381,334,l),
(160,751,l),
(507,751,l),
(558,574,l),
(624,574,l),
(598,806,l),
(36,806,l)
);
}
);
width = 660;
}
);
note = summation;
unicode = 8721;
},
{
glyphname = minus;
lastChange = "2024-07-02 17:53:05 +0000";
layers = (
{
layerId = m01;
shapes = (
{
closed = 1;
nodes = (
(36,372,l),
(468,372,l),
(468,437,l),
(36,437,l)
);
}
);
width = 504;
}
);
note = minus;
unicode = 8722;
},
{
glyphname = radical;
lastChange = "2024-07-02 17:53:05 +0000";
layers = (
{
layerId = m01;
shapes = (
{
closed = 1;
nodes = (
(719,836,l),
(506,836,l),
(318,50,l),
(205,50,l),
(83,466,l),
(25,489,l),
(25,526,l),
(170,526,l),
(272,166,l),
(456,922,l),
(719,922,l)
);
}
);
width = 744;
}
);
note = radical;
unicode = 8730;
},
{
glyphname = infinity;
lastChange = "2024-07-02 17:53:05 +0000";
layers = (
{
layerId = m01;
shapes = (
{
closed = 1;
nodes = (
(968,381,qs),
(919,359,o),
(835,359,qs),
(762,359,o),
(696,374,qs),
(625,390,o),
(584,418,q),
(603,430,o),
(622,444,qs),
(675,484,o),
(723,503,qs),
(775,523,o),
(837,526,qs),
(847,526,o),
(858,526,qs),
(945,526,o),
(989,497,qs),
(1009,484,o),
(1017,467,qs),
(1021,456,o),
(1021,446,qs),
(1021,441,o),
(1020,437,qs),
(1014,402,o)
);
},
{
closed = 1;
nodes = (
(387,405,qs),
(335,384,o),
(273,382,qs),
(253,382,ls),
(165,382,o),
(121,410,qs),
(102,423,o),
(94,441,qs),
(89,451,o),
(89,461,qs),
(89,466,o),
(90,470,qs),
(96,505,o),
(143,526,qs),
(192,548,o),
(275,548,qs),
(348,548,o),
(415,534,qs),
(485,518,o),
(526,490,q),
(507,477,o),
(488,463,qs),
(436,423,o)
);
},
{
closed = 1;
nodes = (
(698,571,qs),
(622,555,o),
(555,510,q),
(516,549,o),
(441,572,qs),
(368,595,o),
(285,598,qs),
(264,598,ls),
(146,598,o),
(84,560,qs),
(25,526,o),
(25,465,qs),
(25,400,o),
(98,362,qs),
(168,325,o),
(287,325,qs),
(362,325,o),
(413,336,qs),
(488,352,o),
(555,397,q),
(595,359,o),
(670,335,qs),
(742,312,o),
(825,310,qs),
(846,310,ls),
(964,310,o),
(1027,347,qs),
(1085,382,o),
(1085,442,qs),
(1085,507,o),
(1012,545,qs),
(942,582,o),
(824,582,qs),
(748,582,o)
);
}
);
width = 1111;
}
);
note = infinity;
unicode = 8734;
},
{
glyphname = integral;
lastChange = "2024-07-02 17:53:05 +0000";
layers = (
{
layerId = m01;
shapes = (
{
closed = 1;
nodes = (
(302,878,o),
(384,878,q),
(384,821,l),
(323,821,o),
(290,793,qs),
(256,764,o),
(256,683,qs),
(256,-15,ls),
(256,-143,o),
(164,-184,qs),
(107,-210,o),
(25,-210,q),
(25,-153,l),
(86,-153,o),
(119,-125,qs),
(153,-96,o),
(153,-15,qs),
(153,683,ls),
(153,811,o),
(245,852,qs)
);
}
);
width = 409;
}
);
note = integral;
unicode = 8747;
},
{
glyphname = uniF001;
lastChange = "2024-07-02 17:53:05 +0000";
layers = (
{
layerId = m01;
shapes = (
{
closed = 1;
nodes = (
(388,110,l),
(334,87,l),
(334,50,l),
(528,50,l),
(528,87,l),
(474,109,l),
(474,563,l),
(165,560,l),
(165,605,ls),
(165,747,o),
(210,765,q),
(217,767,o),
(225,767,qs),
(240,767,o),
(256,757,qs),
(271,746,o),
(273,714,qs),
(274,706,o),
(274,697,qs),
(274,681,o),
(271,661,q),
(325,661,l),
(338,751,l),
(301,815,o),
(222,815,qs),
(166,815,o),
(132,786,qs),
(78,741,o),
(78,602,qs),
(78,557,l),
(11,549,l),
(11,498,l),
(78,498,l),
(78,110,l),
(17,87,l),
(17,50,l),
(233,50,l),
(233,87,l),
(165,109,l),
(165,498,l),
(388,498,l)
);
},
{
closed = 1;
nodes = (
(461,697,o),
(474,710,qs),
(487,723,o),
(487,742,qs),
(487,760,ls),
(487,778,o),
(474,791,qs),
(461,805,o),
(442,805,qs),
(428,805,ls),
(409,805,o),
(396,791,qs),
(383,778,o),
(383,760,qs),
(383,742,ls),
(383,723,o),
(396,710,qs),
(409,697,o),
(428,697,qs),
(442,697,ls)
);
}
);
width = 554;
}
);
note = uniF001;
unicode = (61441,64257);
},
{
glyphname = afii10017;
lastChange = "2024-07-02 17:53:05 +0000";
layers = (
{
layerId = m01;
shapes = (
{
closed = 1;
nodes = (
(343,815,l),
(79,110,l),
(22,87,l),
(22,50,l),
(222,50,l),
(222,87,l),
(165,110,l),
(253,368,l),
(444,368,l),
(527,110,l),
(469,87,l),
(469,50,l),
(696,50,l),
(696,87,l),
(639,110,l),
(383,815,l)
);
},
{
closed = 1;
nodes = (
(354,657,l),
(427,426,l),
(276,426,l)
);
}
);
width = 715;
}
);
note = afii10017;
unicode = 1040;
},
{
glyphname = afii10018;
lastChange = "2024-07-02 17:53:05 +0000";
layers = (
{
layerId = m01;
shapes = (
{
closed = 1;
nodes = (
(321,107,o),
(277,107,qs),
(241,107,o),
(203,113,q),
(203,408,l),
(226,409,o),
(247,409,qs),
(325,409,o),
(379,390,qs),
(461,359,o),
(472,277,qs),
(474,262,o),
(474,248,qs),
(474,142,o),
(361,116,qs)
);
},
{
closed = 1;
nodes = (
(494,574,l),
(559,574,l),
(534,806,l),
(40,806,l),
(40,770,l),
(109,747,l),
(109,110,l),
(40,87,l),
(40,50,l),
(239,50,ls),
(380,50,o),
(420,59,qs),
(508,76,o),
(549,140,qs),
(581,191,o),
(581,256,qs),
(581,271,o),
(580,286,qs),
(567,407,o),
(449,446,qs),
(378,468,o),
(271,468,qs),
(238,468,o),
(203,466,q),
(203,751,l),
(443,751,l)
);
}
);
width = 617;
}
);
note = afii10018;
unicode = 1041;
},
{
glyphname = afii10019;
lastChange = "2024-07-02 17:53:05 +0000";
layers = (
{
layerId = m01;
shapes = (
{
closed = 1;
nodes = (
(232,400,o),
(258,400,qs),
(345,400,o),
(397,381,qs),
(473,351,o),
(473,252,qs),
(473,245,o),
(472,238,qs),
(462,130,o),
(336,107,qs),
(307,102,o),
(268,102,qs),
(238,102,o),
(203,105,q),
(203,398,l)
);
},
{
closed = 1;
nodes = (
(374,474,q),
(325,459,o),
(255,459,qs),
(230,459,o),
(203,462,q),
(203,747,l),
(235,750,o),
(263,750,qs),
(467,750,o),
(467,606,qs),
(467,598,ls),
(467,516,o)
);
},
{
closed = 1;
nodes = (
(542,379,qs),
(507,420,o),
(447,433,q),
(431,434,l),
(431,436,l),
(441,438,l),
(505,462,o),
(534,503,qs),
(565,551,o),
(565,615,qs),
(565,732,o),
(467,775,qs),
(392,806,o),
(312,806,qs),
(40,806,l),
(40,770,l),
(109,747,l),
(109,110,l),
(40,85,l),
(40,50,l),
(296,50,ls),
(390,50,o),
(445,68,qs),
(511,89,o),
(544,129,qs),
(581,174,o),
(581,250,qs),
(581,333,o)
);
}
);
width = 603;
}
);
note = afii10019;
unicode = 1042;
},
{
glyphname = afii10020;
lastChange = "2024-07-02 17:53:05 +0000";
layers = (
{
layerId = m01;
shapes = (
{
closed = 1;
nodes = (
(36,770,l),
(94,747,l),
(94,109,l),
(36,87,l),
(36,50,l),
(244,50,l),
(244,87,l),
(186,109,l),
(186,751,l),
(444,751,l),
(495,574,l),
(560,574,l),
(535,806,l),
(36,806,l)
);
}
);
width = 581;
}
);
note = afii10020;
unicode = 1043;
},
{
glyphname = afii10021;
lastChange = "2024-07-02 17:53:05 +0000";
layers = (
{
layerId = m01;
shapes = (
{
closed = 1;
nodes = (
(199,106,l),
(211,119,o),
(240,205,qs),
(295,384,o),
(297,751,q),
(528,751,l),
(528,106,l)
);
},
{
closed = 1;
nodes = (
(625,105,l),
(625,747,l),
(701,770,l),
(701,806,l),
(150,806,l),
(150,770,l),
(231,742,l),
(210,320,o),
(159,222,q),
(114,114,o),
(93,106,q),
(29,106,l),
(11,-112,l),
(76,-112,l),
(121,50,l),
(611,50,l),
(655,-112,l),
(721,-112,l),
(703,105,l)
);
}
);
width = 735;
}
);
note = afii10021;
unicode = 1044;
},
{
glyphname = afii10022;
lastChange = "2024-07-02 17:53:05 +0000";
layers = (
{
layerId = m01;
shapes = (
{
closed = 1;
nodes = (
(36,770,l),
(94,747,l),
(94,109,l),
(36,87,l),
(36,50,l),
(548,50,l),
(573,283,l),
(508,283,l),
(456,106,l),
(187,106,l),
(187,398,l),
(325,398,l),
(369,307,l),
(399,307,l),
(392,426,l),
(399,544,l),
(369,544,l),
(325,454,l),
(187,454,l),
(187,751,l),
(456,751,l),
(508,574,l),
(573,574,l),
(548,806,l),
(36,806,l)
);
}
);
width = 602;
}
);
note = afii10022;
unicode = 1045;
},
{
glyphname = afii10024;
lastChange = "2024-07-02 17:53:05 +0000";
layers = (
{
layerId = m01;
shapes = (
{
closed = 1;
nodes = (
(603,770,l),
(603,806,l),
(394,806,l),
(394,770,l),
(451,747,l),
(451,450,l),
(362,450,l),
(199,747,l),
(258,770,l),
(258,806,l),
(35,806,l),
(35,770,l),
(108,743,l),
(292,445,l),
(291,444,l),
(257,434,o),
(165,364,q),
(132,238,o),
(109,164,qs),
(94,115,o),
(64,106,qs),
(57,104,o),
(50,104,qs),
(44,104,o),
(37,106,q),
(22,59,l),
(65,42,o),
(111,42,qs),
(148,42,o),
(179,73,qs),
(207,101,o),
(220,143,qs),
(231,184,o),
(259,334,q),
(316,397,o),
(348,397,qs),
(451,397,l),
(451,110,l),
(394,87,l),
(394,50,l),
(603,50,l),
(603,87,l),
(545,110,l),
(545,397,l),
(649,397,ls),
(680,397,o),
(738,334,q),
(765,184,o),
(778,143,qs),
(790,101,o),
(818,73,qs),
(849,42,o),
(886,42,qs),
(932,42,o),
(975,59,q),
(959,106,l),
(953,104,o),
(947,104,qs),
(940,104,o),
(932,106,qs),
(903,115,o),
(888,164,qs),
(864,238,o),
(832,364,q),
(739,434,o),
(706,444,q),
(706,445,l),
(888,743,l),
(961,770,l),
(961,806,l),
(738,806,l),
(738,770,l),
(798,747,l),
(634,450,l),
(545,450,l),
(545,747,l)
);
}
);
width = 996;
}
);
note = afii10024;
unicode = 1046;
},
{
glyphname = afii10025;
lastChange = "2024-07-02 17:53:05 +0000";
layers = (
{
layerId = m01;
shapes = (
{
closed = 1;
nodes = (
(374,428,q),
(374,432,l),
(389,436,o),
(395,438,qs),
(449,461,o),
(481,500,qs),
(518,545,o),
(518,606,qs),
(518,815,o),
(265,815,qs),
(177,815,o),
(42,739,o),
(22,692,q),
(42,574,l),
(111,574,l),
(107,600,o),
(107,618,qs),
(107,630,o),
(109,638,qs),
(114,691,o),
(147,723,q),
(191,758,o),
(257,758,qs),
(412,758,o),
(412,606,qs),
(412,509,o),
(289,469,qs),
(254,456,o),
(156,456,q),
(156,397,l),
(244,396,o),
(290,387,qs),
(414,362,o),
(414,251,qs),
(414,241,ls),
(414,158,o),
(346,123,qs),
(310,104,o),
(262,104,qs),
(236,104,o),
(207,109,qs),
(133,120,o),
(53,219,q),
(14,198,l),
(93,55,o),
(242,43,qs),
(258,42,o),
(274,42,qs),
(346,42,o),
(410,68,qs),
(527,117,o),
(527,245,qs),
(527,322,o),
(487,366,qs),
(457,401,o),
(395,423,qs),
(388,426,o)
);
}
);
width = 542;
}
);
note = afii10025;
unicode = 1047;
},
{
glyphname = afii10026;
lastChange = "2024-07-02 17:53:05 +0000";
layers = (
{
layerId = m01;
shapes = (
{
closed = 1;
nodes = (
(496,770,l),
(561,747,l),
(561,682,l),
(194,268,l),
(194,747,l),
(253,770,l),
(253,806,l),
(36,806,l),
(36,770,l),
(101,747,l),
(101,110,l),
(36,87,l),
(36,50,l),
(253,50,l),
(253,87,l),
(194,109,l),
(194,174,l),
(561,588,l),
(561,110,l),
(496,87,l),
(496,50,l),
(712,50,l),
(712,87,l),
(654,109,l),
(654,747,l),
(712,770,l),
(712,806,l),
(496,806,l)
);
}
);
width = 748;
}
);
note = afii10026;
unicode = 1048;
},
{
glyphname = afii10027;
lastChange = "2024-07-02 17:53:05 +0000";
layers = (
{
layerId = m01;
shapes = (
{
closed = 1;
nodes = (
(496,770,l),
(561,747,l),
(561,682,l),
(194,268,l),
(194,747,l),
(253,770,l),
(253,806,l),
(36,806,l),
(36,770,l),
(101,747,l),
(101,110,l),
(36,87,l),
(36,50,l),
(253,50,l),
(253,87,l),
(194,109,l),
(194,174,l),
(561,588,l),
(561,110,l),
(496,87,l),
(496,50,l),
(712,50,l),
(712,87,l),
(654,109,l),
(654,747,l),
(712,770,l),
(712,806,l),
(496,806,l)
);
},
{
closed = 1;
nodes = (
(487,858,qs),
(532,873,o),
(549,901,qs),
(564,925,o),
(564,955,qs),
(564,960,ls),
(564,990,o),
(552,1004,qs),
(541,1017,o),
(516,1022,qs),
(510,1022,o),
(505,1022,qs),
(484,1022,o),
(470,1008,qs),
(459,996,o),
(459,981,qs),
(459,973,o),
(462,964,qs),
(467,951,o),
(474,942,q),
(474,925,o),
(462,909,qs),
(436,881,o),
(374,881,qs),
(312,881,o),
(286,909,q),
(274,925,o),
(274,942,q),
(281,951,o),
(285,964,qs),
(288,973,o),
(288,981,qs),
(288,996,o),
(277,1008,qs),
(264,1022,o),
(243,1022,qs),
(238,1022,o),
(232,1022,qs),
(208,1017,o),
(197,1004,qs),
(184,990,o),
(184,960,qs),
(184,955,ls),
(184,925,o),
(199,901,qs),
(215,873,o),
(261,858,qs),
(307,842,o),
(374,842,qs),
(441,842,o)
);
}
);
width = 748;
}
);
note = afii10027;
unicode = 1049;
},
{
glyphname = afii10028;
lastChange = "2024-07-02 17:53:05 +0000";
layers = (
{
layerId = m01;
shapes = (
{
closed = 1;
nodes = (
(624,104,o),
(618,104,qs),
(611,104,o),
(603,106,qs),
(574,115,o),
(559,164,qs),
(535,238,o),
(503,364,q),
(403,433,o),
(369,443,q),
(369,444,l),
(559,743,l),
(632,770,l),
(632,806,l),
(409,806,l),
(409,770,l),
(469,747,l),
(298,449,l),
(187,449,l),
(187,747,l),
(245,770,l),
(245,806,l),
(36,806,l),
(36,770,l),
(94,747,l),
(94,110,l),
(36,87,l),
(36,50,l),
(245,50,l),
(245,87,l),
(187,110,l),
(187,396,l),
(312,396,ls),
(344,396,o),
(409,334,q),
(436,184,o),
(449,143,qs),
(461,101,o),
(489,73,qs),
(520,42,o),
(557,42,qs),
(603,42,o),
(646,59,q),
(630,106,l)
);
}
);
width = 668;
}
);
note = afii10028;
unicode = 1050;
},
{
glyphname = afii10029;
lastChange = "2024-07-02 17:53:05 +0000";
layers = (
{
layerId = m01;
shapes = (
{
closed = 1;
nodes = (
(662,806,l),
(137,806,l),
(137,770,l),
(210,743,l),
(202,274,o),
(148,163,q),
(130,115,o),
(82,106,q),
(78,106,ls),
(60,106,o),
(37,113,q),
(14,63,l),
(48,42,o),
(101,42,qs),
(213,42,o),
(235,134,q),
(266,225,o),
(278,751,q),
(512,751,l),
(512,110,l),
(454,87,l),
(454,50,l),
(662,50,l),
(662,87,l),
(605,110,l),
(605,747,l),
(662,770,l)
);
}
);
width = 698;
}
);
note = afii10029;
unicode = 1051;
},
{
glyphname = afii10030;
lastChange = "2024-07-02 17:53:05 +0000";
layers = (
{
layerId = m01;
shapes = (
{
closed = 1;
nodes = (
(462,210,l),
(289,806,l),
(91,806,l),
(91,770,l),
(145,747,l),
(81,114,l),
(11,87,l),
(11,50,l),
(220,50,l),
(220,87,l),
(158,111,l),
(212,688,l),
(221,688,l),
(415,50,l),
(493,50,l),
(678,688,l),
(684,688,l),
(754,111,l),
(693,87,l),
(693,50,l),
(917,50,l),
(917,87,l),
(856,112,l),
(780,747,l),
(832,770,l),
(832,806,l),
(642,806,l)
);
}
);
width = 928;
}
);
note = afii10030;
unicode = 1052;
},
{
glyphname = afii10031;
lastChange = "2024-07-02 17:53:05 +0000";
layers = (
{
layerId = m01;
shapes = (
{
closed = 1;
nodes = (
(495,770,l),
(553,747,l),
(553,454,l),
(187,454,l),
(187,747,l),
(245,770,l),
(245,806,l),
(36,806,l),
(36,770,l),
(94,747,l),
(94,110,l),
(36,87,l),
(36,50,l),
(245,50,l),
(245,87,l),
(187,110,l),
(187,397,l),
(553,397,l),
(553,110,l),
(495,87,l),
(495,50,l),
(704,50,l),
(704,87,l),
(647,110,l),
(647,747,l),
(704,770,l),
(704,806,l),
(495,806,l)
);
}
);
width = 740;
}
);
note = afii10031;
unicode = 1053;
},
{
glyphname = afii10032;
lastChange = "2024-07-02 17:53:05 +0000";
layers = (
{
layerId = m01;
shapes = (
{
closed = 1;
nodes = (
(397,107,o),
(387,107,qs),
(297,107,o),
(225,186,qs),
(145,274,o),
(133,408,qs),
(131,429,o),
(131,450,qs),
(131,557,o),
(184,641,qs),
(248,741,o),
(350,750,qs),
(359,750,o),
(369,750,qs),
(459,750,o),
(531,670,qs),
(611,582,o),
(623,449,qs),
(625,428,o),
(625,407,qs),
(625,300,o),
(572,216,qs),
(508,116,o),
(406,107,qs)
);
},
{
closed = 1;
nodes = (
(124,691,qs),
(18,570,o),
(18,407,qs),
(18,249,o),
(124,144,qs),
(228,42,o),
(378,42,qs),
(525,42,o),
(632,165,qs),
(738,287,o),
(738,449,qs),
(738,607,o),
(632,712,qs),
(528,815,o),
(378,815,qs),
(231,815,o)
);
}
);
width = 756;
}
);
note = afii10032;
unicode = 1054;
},
{
glyphname = afii10033;
lastChange = "2024-07-02 17:53:05 +0000";
layers = (
{
layerId = m01;
shapes = (
{
closed = 1;
nodes = (
(36,770,l),
(94,747,l),
(94,110,l),
(36,87,l),
(36,50,l),
(245,50,l),
(245,87,l),
(187,110,l),
(187,751,l),
(532,751,l),
(532,110,l),
(474,87,l),
(474,50,l),
(683,50,l),
(683,87,l),
(626,110,l),
(626,747,l),
(683,770,l),
(683,806,l),
(36,806,l)
);
}
);
width = 719;
}
);
note = afii10033;
unicode = 1055;
},
{
glyphname = afii10034;
lastChange = "2024-07-02 17:53:05 +0000";
layers = (
{
layerId = m01;
shapes = (
{
closed = 1;
nodes = (
(199,806,qs),
(36,806,l),
(36,770,l),
(106,747,l),
(106,110,l),
(36,87,l),
(36,50,l),
(262,50,l),
(262,87,l),
(199,109,l),
(199,747,l),
(223,751,o),
(248,751,qs),
(285,751,o),
(325,743,qs),
(436,717,o),
(448,613,qs),
(449,598,o),
(449,583,qs),
(449,503,o),
(401,466,qs),
(354,431,o),
(244,431,q),
(235,389,l),
(277,384,o),
(315,384,qs),
(405,384,o),
(462,414,qs),
(561,466,o),
(561,593,qs),
(561,756,o),
(391,796,qs),
(345,806,o)
);
}
);
width = 586;
}
);
note = afii10034;
unicode = 1056;
},
{
glyphname = afii10035;
lastChange = "2024-07-02 17:53:05 +0000";
layers = (
{
layerId = m01;
shapes = (
{
closed = 1;
nodes = (
(397,108,o),
(390,108,qs),
(302,108,o),
(219,191,q),
(145,279,o),
(141,408,qs),
(140,420,o),
(140,432,qs),
(140,560,o),
(189,648,q),
(247,737,o),
(351,755,q),
(365,757,o),
(378,757,qs),
(434,757,o),
(473,729,qs),
(518,698,o),
(531,652,q),
(532,644,o),
(532,631,qs),
(532,609,o),
(528,574,q),
(597,574,l),
(617,692,l),
(596,740,o),
(540,774,qs),
(472,815,o),
(377,815,qs),
(233,815,o),
(127,694,qs),
(25,577,o),
(25,413,qs),
(25,253,o),
(122,147,q),
(224,42,o),
(368,42,qs),
(529,42,o),
(620,188,q),
(578,210,l),
(529,160,o),
(501,142,qs),
(456,112,o),
(403,109,qs)
);
}
);
width = 645;
}
);
note = afii10035;
unicode = 1057;
},
{
glyphname = afii10036;
lastChange = "2024-07-02 17:53:05 +0000";
layers = (
{
layerId = m01;
shapes = (
{
closed = 1;
nodes = (
(18,574,l),
(84,574,l),
(135,751,l),
(299,751,l),
(299,109,l),
(241,87,l),
(241,50,l),
(450,50,l),
(450,87,l),
(392,109,l),
(392,751,l),
(557,751,l),
(608,574,l),
(673,574,l),
(648,806,l),
(43,806,l)
);
}
);
width = 691;
}
);
note = afii10036;
unicode = 1058;
},
{
glyphname = afii10037;
lastChange = "2024-07-02 17:53:05 +0000";
layers = (
{
layerId = m01;
shapes = (
{
closed = 1;
nodes = (
(495,806,l),
(495,770,l),
(554,747,l),
(351,254,l),
(354,266,o),
(354,283,qs),
(354,301,o),
(345,332,q),
(178,747,l),
(234,770,l),
(234,806,l),
(11,806,l),
(11,770,l),
(65,747,l),
(308,200,l),
(300,175,o),
(251,107,o),
(224,100,q),
(218,99,o),
(212,99,qs),
(188,99,o),
(166,113,q),
(140,63,l),
(176,35,o),
(237,35,qs),
(312,35,o),
(360,127,qs),
(446,290,o),
(624,747,q),
(683,770,l),
(683,806,l)
);
}
);
width = 694;
}
);
note = afii10037;
unicode = 1059;
},
{
glyphname = afii10038;
lastChange = "2024-07-02 17:53:05 +0000";
layers = (
{
layerId = m01;
shapes = (
{
closed = 1;
nodes = (
(206,649,q),
(250,690,o),
(328,690,qs),
(356,690,o),
(388,685,q),
(388,221,l),
(352,214,o),
(321,214,qs),
(254,214,o),
(212,248,qs),
(131,316,o),
(131,454,qs),
(131,587,o)
);
},
{
closed = 1;
nodes = (
(663,258,qs),
(619,217,o),
(541,217,qs),
(513,217,o),
(481,222,q),
(481,686,l),
(517,693,o),
(548,693,qs),
(615,693,o),
(657,659,qs),
(738,598,o),
(738,474,qs),
(738,328,o)
);
},
{
closed = 1;
nodes = (
(743,696,qs),
(677,744,o),
(567,744,qs),
(527,744,o),
(481,737,q),
(481,775,l),
(539,798,l),
(539,835,l),
(323,835,l),
(323,798,l),
(388,775,l),
(388,737,l),
(354,741,o),
(323,741,qs),
(197,741,o),
(126,687,qs),
(18,603,o),
(18,444,qs),
(18,292,o),
(126,212,qs),
(192,163,o),
(302,163,qs),
(342,163,o),
(388,170,q),
(388,110,l),
(330,87,l),
(330,50,l),
(539,50,l),
(539,87,l),
(481,110,l),
(481,170,l),
(516,166,o),
(546,166,qs),
(672,166,o),
(743,220,q),
(851,311,o),
(851,478,q),
(844,622,o)
);
}
);
width = 866;
}
);
note = afii10038;
unicode = 1060;
},
{
glyphname = afii10039;
lastChange = "2024-07-02 17:53:05 +0000";
layers = (
{
layerId = m01;
shapes = (
{
closed = 1;
nodes = (
(503,770,l),
(564,747,l),
(385,485,l),
(220,747,l),
(281,770,l),
(281,806,l),
(22,806,l),
(22,770,l),
(90,747,l),
(312,426,l),
(89,110,l),
(14,87,l),
(14,50,l),
(245,50,l),
(245,87,l),
(184,109,l),
(361,372,l),
(539,109,l),
(477,87,l),
(477,50,l),
(733,50,l),
(733,87,l),
(665,110,l),
(433,428,l),
(654,747,l),
(726,770,l),
(726,806,l),
(503,806,l)
);
}
);
width = 747;
}
);
note = afii10039;
unicode = 1061;
},
{
glyphname = afii10040;
lastChange = "2024-07-02 17:53:05 +0000";
layers = (
{
layerId = m01;
shapes = (
{
closed = 1;
nodes = (
(729,-112,l),
(711,105,l),
(640,105,l),
(640,747,l),
(698,770,l),
(698,806,l),
(489,806,l),
(489,770,l),
(546,747,l),
(546,106,l),
(187,106,l),
(187,747,l),
(245,770,l),
(245,806,l),
(36,806,l),
(36,770,l),
(94,747,l),
(94,110,l),
(36,87,l),
(36,50,l),
(619,50,l),
(664,-112,l)
);
}
);
width = 736;
}
);
note = afii10040;
unicode = 1062;
},
{
glyphname = afii10041;
lastChange = "2024-07-02 17:53:05 +0000";
layers = (
{
layerId = m01;
shapes = (
{
closed = 1;
nodes = (
(663,806,l),
(447,806,l),
(447,770,l),
(512,747,l),
(512,516,l),
(490,474,o),
(447,452,qs),
(406,431,o),
(346,431,qs),
(333,431,ls),
(284,431,o),
(243,446,qs),
(198,462,o),
(179,503,q),
(169,521,o),
(169,572,qs),
(169,747,l),
(227,770,l),
(227,806,l),
(18,806,l),
(18,770,l),
(76,747,l),
(76,557,ls),
(76,485,o),
(100,449,qs),
(159,364,o),
(318,361,qs),
(390,361,o),
(456,395,qs),
(493,415,o),
(512,440,q),
(512,110,l),
(454,87,l),
(454,50,l),
(663,50,l),
(663,87,l),
(606,109,l),
(606,747,l),
(663,770,l)
);
}
);
width = 699;
}
);
note = afii10041;
unicode = 1063;
},
{
glyphname = afii10042;
lastChange = "2024-07-02 17:53:05 +0000";
layers = (
{
layerId = m01;
shapes = (
{
closed = 1;
nodes = (
(598,770,l),
(598,806,l),
(388,806,l),
(388,770,l),
(446,747,l),
(446,106,l),
(187,106,l),
(187,747,l),
(245,770,l),
(245,806,l),
(36,806,l),
(36,770,l),
(94,747,l),
(94,110,l),
(36,87,l),
(36,50,l),
(950,50,l),
(950,87,l),
(892,110,l),
(892,747,l),
(950,770,l),
(950,806,l),
(741,806,l),
(741,770,l),
(798,747,l),
(798,106,l),
(540,106,l),
(540,747,l)
);
}
);
width = 986;
}
);
note = afii10042;
unicode = 1064;
},
{
glyphname = afii10043;
lastChange = "2024-07-02 17:53:05 +0000";
layers = (
{
layerId = m01;
shapes = (
{
closed = 1;
nodes = (
(981,-112,l),
(963,105,l),
(892,105,l),
(892,747,l),
(950,770,l),
(950,806,l),
(741,806,l),
(741,770,l),
(798,747,l),
(798,106,l),
(540,106,l),
(540,747,l),
(598,770,l),
(598,806,l),
(388,806,l),
(388,770,l),
(446,747,l),
(446,106,l),
(187,106,l),
(187,747,l),
(245,770,l),
(245,806,l),
(36,806,l),
(36,770,l),
(94,747,l),
(94,110,l),
(36,87,l),
(36,50,l),
(871,50,l),
(916,-112,l)
);
}
);
width = 992;
}
);
note = afii10043;
unicode = 1065;
},
{
glyphname = afii10044;
lastChange = "2024-07-02 17:53:05 +0000";
layers = (
{
layerId = m01;
shapes = (
{
closed = 1;
nodes = (
(478,107,o),
(441,107,qs),
(410,107,o),
(382,113,q),
(382,408,l),
(400,409,o),
(417,409,qs),
(482,409,o),
(536,390,qs),
(618,359,o),
(629,277,qs),
(631,262,o),
(631,248,qs),
(631,142,o),
(518,116,qs)
);
},
{
closed = 1;
nodes = (
(18,574,l),
(84,574,l),
(135,751,l),
(288,751,l),
(288,110,l),
(218,87,l),
(218,50,l),
(382,50,ls),
(537,50,o),
(577,59,qs),
(665,76,o),
(706,140,qs),
(738,191,o),
(738,256,qs),
(738,271,o),
(737,286,qs),
(724,407,o),
(606,446,qs),
(535,468,o),
(441,468,qs),
(412,468,o),
(382,466,q),
(382,747,l),
(446,770,l),
(446,806,l),
(43,806,l)
);
}
);
width = 763;
}
);
note = afii10044;
unicode = 1066;
},
{
glyphname = afii10045;
lastChange = "2024-07-02 17:53:05 +0000";
layers = (
{
layerId = m01;
shapes = (
{
closed = 1;
nodes = (
(441,262,o),
(441,248,qs),
(441,142,o),
(328,116,qs),
(289,107,o),
(253,107,qs),
(225,107,o),
(199,113,q),
(199,408,l),
(216,409,o),
(233,409,qs),
(293,409,o),
(346,390,qs),
(428,359,o),
(439,277,qs)
);
},
{
closed = 1;
nodes = (
(417,446,qs),
(346,468,o),
(256,468,qs),
(228,468,o),
(199,466,q),
(199,747,l),
(264,770,l),
(264,806,l),
(36,806,l),
(36,770,l),
(106,747,l),
(106,110,l),
(36,87,l),
(36,50,l),
(199,50,ls),
(348,50,o),
(387,59,qs),
(475,76,o),
(516,140,qs),
(549,191,o),
(549,256,qs),
(549,271,o),
(547,286,qs),
(535,407,o)
);
},
{
closed = 1;
nodes = (
(589,770,l),
(647,747,l),
(647,110,l),
(589,87,l),
(589,50,l),
(798,50,l),
(798,87,l),
(740,110,l),
(740,747,l),
(798,770,l),
(798,806,l),
(589,806,l)
);
}
);
width = 833;
}
);
note = afii10045;
unicode = 1067;
},
{
glyphname = afii10046;
lastChange = "2024-07-02 17:53:05 +0000";
layers = (
{
layerId = m01;
shapes = (
{
closed = 1;
nodes = (
(449,262,o),
(449,248,qs),
(449,142,o),
(336,116,qs),
(296,107,o),
(258,107,qs),
(228,107,o),
(199,113,q),
(199,408,l),
(217,409,o),
(235,409,qs),
(300,409,o),
(354,390,qs),
(436,359,o),
(446,277,qs)
);
},
{
closed = 1;
nodes = (
(424,446,qs),
(353,468,o),
(258,468,qs),
(230,468,o),
(199,466,q),
(199,747,l),
(264,770,l),
(264,806,l),
(36,806,l),
(36,770,l),
(106,747,l),
(106,110,l),
(36,87,l),
(36,50,l),
(199,50,ls),
(355,50,o),
(395,59,qs),
(482,76,o),
(523,140,qs),
(556,191,o),
(556,256,qs),
(556,271,o),
(554,286,qs),
(542,407,o)
);
}
);
width = 581;
}
);
note = afii10046;
unicode = 1068;
},
{
glyphname = afii10047;
lastChange = "2024-07-02 17:53:05 +0000";
layers = (
{
layerId = m01;
shapes = (
{
closed = 1;
nodes = (
(445,203,q),
(375,109,o),
(268,109,qs),
(167,109,o),
(67,210,q),
(25,188,l),
(114,44,o),
(273,42,qs),
(431,44,o),
(526,165,qs),
(620,282,o),
(620,444,qs),
(620,603,o),
(523,710,q),
(421,815,o),
(277,815,qs),
(182,815,o),
(114,774,qs),
(58,740,o),
(37,692,q),
(58,574,l),
(126,574,l),
(122,608,o),
(122,629,qs),
(122,644,o),
(124,652,qs),
(135,697,o),
(167,727,q),
(202,753,o),
(258,755,qs),
(267,755,ls),
(359,755,o),
(432,670,q),
(499,581,o),
(504,452,q),
(498,452,ls),
(482,452,o),
(465,455,qs),
(446,458,o),
(410,467,qs),
(366,477,o),
(346,481,qs),
(320,486,o),
(296,486,qs),
(271,486,o),
(248,480,qs),
(213,472,o),
(186,449,qs),
(168,433,o),
(155,413,qs),
(148,402,o),
(145,395,q),
(181,387,l),
(187,397,o),
(203,405,q),
(230,410,o),
(261,410,qs),
(276,410,o),
(292,408,q),
(375,392,o),
(387,390,qs),
(415,385,o),
(438,385,qs),
(450,385,o),
(461,387,qs),
(482,389,o),
(503,397,q),
(498,282,o)
);
}
);
width = 645;
}
);
note = afii10047;
unicode = 1069;
},
{
glyphname = afii10048;
lastChange = "2024-07-02 17:53:05 +0000";
layers = (
{
layerId = m01;
shapes = (
{
closed = 1;
nodes = (
(682,107,o),
(672,107,qs),
(595,107,o),
(523,179,q),
(444,274,o),
(432,408,qs),
(430,429,o),
(430,449,qs),
(430,558,o),
(484,648,q),
(546,741,o),
(634,750,qs),
(643,750,o),
(652,750,qs),
(729,750,o),
(801,678,q),
(881,582,o),
(893,449,qs),
(895,428,o),
(895,408,qs),
(895,299,o),
(841,209,q),
(778,116,o),
(690,107,qs)
);
},
{
closed = 1;
nodes = (
(423,137,q),
(526,42,o),
(662,42,qs),
(795,42,o),
(902,158,q),
(1008,287,o),
(1008,449,qs),
(1008,607,o),
(902,719,q),
(798,815,o),
(662,815,qs),
(530,815,o),
(423,698,q),
(333,589,o),
(319,454,q),
(187,454,l),
(187,747,l),
(245,770,l),
(245,806,l),
(36,806,l),
(36,770,l),
(94,747,l),
(94,110,l),
(36,87,l),
(36,50,l),
(245,50,l),
(245,87,l),
(187,110,l),
(187,397,l),
(317,397,l),
(320,246,o)
);
}
);
width = 1022;
}
);
note = afii10048;
unicode = 1070;
},
{
glyphname = afii10049;
lastChange = "2024-07-02 17:53:05 +0000";
layers = (
{
layerId = m01;
shapes = (
{
closed = 1;
nodes = (
(361,747,o),
(400,747,qs),
(434,747,o),
(466,744,q),
(466,458,l),
(339,459,o),
(302,471,qs),
(219,498,o),
(208,580,qs),
(207,590,o),
(207,599,qs),
(207,720,o),
(320,742,q)
);
},
{
closed = 1;
nodes = (
(401,87,l),
(401,50,l),
(617,50,l),
(617,87,l),
(559,110,l),
(559,747,l),
(629,770,l),
(629,806,l),
(459,806,ls),
(307,806,o),
(267,798,qs),
(179,780,o),
(131,716,q),
(99,666,o),
(99,600,qs),
(99,586,o),
(100,571,qs),
(117,437,o),
(281,424,q),
(281,421,l),
(217,408,o),
(168,364,q),
(134,238,o),
(112,164,qs),
(97,115,o),
(68,106,qs),
(60,104,o),
(54,104,qs),
(48,104,o),
(41,106,q),
(25,59,l),
(68,42,o),
(114,42,qs),
(151,42,o),
(182,73,qs),
(210,101,o),
(223,143,qs),
(235,184,o),
(263,334,q),
(292,401,o),
(458,401,qs),
(466,401,l),
(466,110,l)
);
}
);
width = 665;
}
);
note = afii10049;
unicode = 1071;
},
{
glyphname = afii10065;
lastChange = "2024-07-02 17:53:05 +0000";
layers = (
{
layerId = m01;
shapes = (
{
closed = 1;
nodes = (
(258,120,o),
(210,105,qs),
(194,100,o),
(179,100,qs),
(161,100,o),
(146,107,qs),
(114,120,o),
(113,157,qs),
(113,161,ls),
(113,222,o),
(179,258,qs),
(201,270,o),
(284,298,q),
(284,163,l)
);
},
{
closed = 1;
nodes = (
(373,563,o),
(183,563,qs),
(133,563,o),
(86,536,qs),
(44,510,o),
(31,480,q),
(45,390,l),
(96,390,l),
(95,410,o),
(95,424,qs),
(95,437,o),
(96,444,qs),
(104,477,o),
(126,496,qs),
(148,515,o),
(179,515,qs),
(235,515,o),
(260,480,qs),
(284,444,o),
(284,364,qs),
(284,354,o),
(284,343,q),
(158,307,o),
(126,292,qs),
(14,237,o),
(14,146,qs),
(14,141,o),
(15,135,qs),
(18,91,o),
(46,67,qs),
(75,42,o),
(129,42,qs),
(227,42,o),
(290,113,q),
(294,97,o),
(303,81,qs),
(321,50,o),
(351,50,qs),
(405,50,o),
(435,68,q),
(419,115,l),
(411,112,o),
(404,112,qs),
(397,112,o),
(391,115,qs),
(373,125,o),
(373,164,qs),
(373,355,ls)
);
}
);
width = 442;
}
);
note = afii10065;
unicode = 1072;
},
{
glyphname = afii10066;
lastChange = "2024-07-02 17:53:05 +0000";
layers = (
{
layerId = m01;
shapes = (
{
closed = 1;
nodes = (
(298,94,o),
(292,94,qs),
(235,94,o),
(192,142,qs),
(143,195,o),
(135,281,qs),
(134,297,o),
(134,312,qs),
(134,380,o),
(163,431,qs),
(199,496,o),
(263,501,qs),
(269,502,o),
(274,502,qs),
(331,502,o),
(374,451,qs),
(420,395,o),
(427,308,qs),
(428,291,o),
(428,275,qs),
(428,209,o),
(402,161,qs),
(368,100,o),
(305,94,qs)
);
},
{
closed = 1;
nodes = (
(117,456,qs),
(104,434,o),
(91,386,q),
(91,403,ls),
(91,432,o),
(95,456,qs),
(113,564,o),
(173,616,qs),
(220,656,o),
(367,663,qs),
(412,665,o),
(444,690,qs),
(474,713,o),
(486,751,qs),
(498,786,o),
(498,801,qs),
(498,804,o),
(498,806,q),
(462,806,l),
(460,798,o),
(449,789,qs),
(426,771,o),
(373,763,qs),
(257,747,o),
(201,716,qs),
(140,685,o),
(93,611,qs),
(52,547,o),
(38,451,qs),
(32,407,o),
(32,363,qs),
(32,321,o),
(37,280,qs),
(56,155,o),
(126,94,qs),
(187,42,o),
(282,42,qs),
(384,42,o),
(455,121,qs),
(525,199,o),
(525,308,qs),
(525,415,o),
(455,485,qs),
(386,554,o),
(282,554,qs),
(177,554,o)
);
}
);
width = 550;
}
);
note = afii10066;
unicode = 1073;
},
{
glyphname = afii10067;
lastChange = "2024-07-02 17:53:05 +0000";
layers = (
{
layerId = m01;
shapes = (
{
closed = 1;
nodes = (
(181,282,o),
(199,282,qs),
(261,282,o),
(289,269,qs),
(330,248,o),
(330,194,qs),
(330,187,o),
(330,180,qs),
(323,114,o),
(246,105,qs),
(232,104,o),
(217,104,qs),
(189,104,o),
(158,109,q),
(158,280,l)
);
},
{
closed = 1;
nodes = (
(263,335,qs),
(247,331,o),
(181,331,qs),
(158,331,l),
(158,503,l),
(183,505,o),
(203,505,qs),
(254,505,o),
(279,495,qs),
(328,476,o),
(328,413,qs),
(328,350,o)
);
},
{
closed = 1;
nodes = (
(339,302,qs),
(338,302,o),
(328,304,q),
(328,305,l),
(334,307,o),
(339,310,qs),
(377,325,o),
(395,348,qs),
(417,376,o),
(417,423,qs),
(417,508,o),
(339,536,qs),
(289,554,o),
(185,554,qs),
(25,554,l),
(25,518,l),
(72,495,l),
(72,110,l),
(25,87,l),
(25,50,l),
(189,50,ls),
(296,50,o),
(333,62,qs),
(428,92,o),
(428,186,qs),
(428,282,o)
);
}
);
width = 453;
}
);
note = afii10067;
unicode = 1074;
},
{
glyphname = afii10068;
lastChange = "2024-07-02 17:53:05 +0000";
layers = (
{
layerId = m01;
shapes = (
{
closed = 1;
nodes = (
(25,518,l),
(72,495,l),
(72,110,l),
(25,87,l),
(25,50,l),
(205,50,l),
(205,87,l),
(158,109,l),
(158,503,l),
(315,503,l),
(360,390,l),
(411,390,l),
(393,554,l),
(25,554,l)
);
}
);
width = 429;
}
);
note = afii10068;
unicode = 1075;
},
{
glyphname = afii10069;
lastChange = "2024-07-02 17:53:05 +0000";
layers = (
{
layerId = m01;
shapes = (
{
closed = 1;
nodes = (
(163,102,l),
(171,117,o),
(183,147,qs),
(224,254,o),
(225,503,q),
(377,503,l),
(377,102,l)
);
},
{
closed = 1;
nodes = (
(463,102,l),
(463,495,l),
(510,518,l),
(510,554,l),
(108,554,l),
(108,518,l),
(174,490,l),
(171,411,o),
(157,312,qs),
(141,202,o),
(123,164,qs),
(98,109,o),
(86,102,q),
(29,102,l),
(11,-83,l),
(69,-83,l),
(107,50,l),
(449,50,l),
(486,-83,l),
(544,-83,l),
(526,102,l)
);
}
);
width = 563;
}
);
note = afii10069;
unicode = 1076;
},
{
glyphname = afii10070;
lastChange = "2024-07-02 17:53:05 +0000";
layers = (
{
layerId = m01;
shapes = (
{
closed = 1;
nodes = (
(248,519,o),
(258,519,qs),
(330,519,o),
(342,444,qs),
(346,419,o),
(346,396,qs),
(346,383,l),
(115,383,l),
(127,440,o),
(160,475,qs),
(193,512,o),
(238,518,qs)
);
},
{
closed = 1;
nodes = (
(428,356,o),
(428,373,qs),
(428,436,o),
(410,480,qs),
(378,563,o),
(260,563,qs),
(157,563,o),
(84,482,qs),
(11,401,o),
(11,292,qs),
(11,181,o),
(76,112,qs),
(144,42,o),
(256,42,qs),
(365,42,o),
(426,140,q),
(395,157,l),
(364,126,o),
(345,114,qs),
(317,96,o),
(281,94,qs),
(271,94,ls),
(211,94,o),
(162,146,qs),
(107,204,o),
(104,289,qs),
(104,301,o),
(104,310,qs),
(104,330,o),
(106,339,q),
(427,339,l)
);
}
);
width = 447;
}
);
note = afii10070;
unicode = 1077;
},
{
glyphname = afii10072;
lastChange = "2024-07-02 17:53:05 +0000";
layers = (
{
layerId = m01;
shapes = (
{
closed = 1;
nodes = (
(694,104,o),
(688,104,qs),
(683,104,o),
(676,106,qs),
(650,115,o),
(635,164,qs),
(611,238,o),
(611,256,q),
(554,308,o),
(519,317,q),
(519,319,l),
(631,491,l),
(696,518,l),
(696,554,l),
(523,554,l),
(523,518,l),
(570,495,l),
(470,324,l),
(408,324,l),
(408,495,l),
(451,518,l),
(451,554,l),
(285,554,l),
(285,518,l),
(328,495,l),
(328,324,l),
(266,324,l),
(167,495,l),
(213,518,l),
(213,554,l),
(40,554,l),
(40,518,l),
(106,491,l),
(217,319,l),
(217,318,l),
(183,308,o),
(125,256,q),
(125,238,o),
(102,164,qs),
(86,115,o),
(60,106,qs),
(54,104,o),
(48,104,qs),
(42,104,o),
(37,106,q),
(22,59,l),
(58,42,o),
(104,42,qs),
(138,42,o),
(156,73,qs),
(166,89,o),
(182,143,qs),
(194,184,o),
(196,235,q),
(203,247,o),
(214,258,qs),
(235,281,o),
(255,281,qs),
(328,281,l),
(328,109,l),
(285,87,l),
(285,50,l),
(451,50,l),
(451,87,l),
(408,109,l),
(408,281,l),
(482,281,ls),
(513,281,o),
(541,235,q),
(543,184,o),
(554,143,qs),
(570,89,o),
(580,73,qs),
(599,42,o),
(633,42,qs),
(679,42,o),
(715,59,q),
(699,106,l)
);
}
);
width = 725;
}
);
note = afii10072;
unicode = 1078;
},
{
glyphname = afii10073;
lastChange = "2024-07-02 17:53:05 +0000";
layers = (
{
layerId = m01;
shapes = (
{
closed = 1;
nodes = (
(288,302,q),
(288,305,l),
(298,307,o),
(302,309,qs),
(338,324,o),
(360,351,qs),
(384,381,o),
(384,422,qs),
(384,563,o),
(199,563,qs),
(135,563,o),
(86,536,qs),
(45,512,o),
(31,480,q),
(45,391,l),
(98,391,l),
(96,413,o),
(96,426,qs),
(96,438,o),
(97,444,qs),
(106,480,o),
(127,496,qs),
(152,515,o),
(199,515,qs),
(296,515,o),
(296,422,qs),
(296,357,o),
(230,337,qs),
(212,333,o),
(162,333,qs),
(143,333,o),
(120,333,q),
(120,282,l),
(145,283,o),
(166,283,qs),
(206,283,o),
(230,277,qs),
(297,258,o),
(297,183,qs),
(297,123,o),
(255,102,qs),
(229,90,o),
(194,90,qs),
(180,90,o),
(165,92,qs),
(106,99,o),
(48,157,q),
(18,140,l),
(73,51,o),
(189,42,qs),
(202,42,o),
(215,42,qs),
(269,42,o),
(312,60,qs),
(391,93,o),
(391,179,qs),
(391,230,o),
(364,261,qs),
(343,284,o),
(302,299,qs),
(297,300,o)
);
}
);
width = 409;
}
);
note = afii10073;
unicode = 1079;
},
{
glyphname = afii10074;
lastChange = "2024-07-02 17:53:05 +0000";
layers = (
{
layerId = m01;
shapes = (
{
closed = 1;
nodes = (
(339,518,l),
(386,495,l),
(386,451,l),
(158,221,l),
(158,495,l),
(205,518,l),
(205,554,l),
(25,554,l),
(25,518,l),
(72,495,l),
(72,110,l),
(25,87,l),
(25,50,l),
(205,50,l),
(205,87,l),
(158,109,l),
(158,153,l),
(386,383,l),
(386,110,l),
(339,87,l),
(339,50,l),
(519,50,l),
(519,87,l),
(472,109,l),
(472,495,l),
(519,518,l),
(519,554,l),
(339,554,l)
);
}
);
width = 545;
}
);
note = afii10074;
unicode = 1080;
},
{
glyphname = afii10075;
lastChange = "2024-07-02 17:53:05 +0000";
layers = (
{
layerId = m01;
shapes = (
{
closed = 1;
nodes = (
(519,554,l),
(339,554,l),
(339,518,l),
(386,495,l),
(386,451,l),
(158,221,l),
(158,495,l),
(205,518,l),
(205,554,l),
(25,554,l),
(25,518,l),
(72,495,l),
(72,110,l),
(25,87,l),
(25,50,l),
(205,50,l),
(205,87,l),
(158,109,l),
(158,153,l),
(386,383,l),
(386,110,l),
(339,87,l),
(339,50,l),
(519,50,l),
(519,87,l),
(472,109,l),
(472,495,l),
(519,518,l)
);
},
{
closed = 1;
nodes = (
(419,642,qs),
(432,663,o),
(432,690,qs),
(432,693,ls),
(431,717,o),
(421,729,qs),
(412,740,o),
(390,744,qs),
(384,744,o),
(380,744,qs),
(361,744,o),
(349,732,qs),
(341,723,o),
(341,710,qs),
(341,703,o),
(343,696,qs),
(346,685,o),
(353,677,q),
(353,675,ls),
(353,664,o),
(343,652,qs),
(324,628,o),
(272,628,qs),
(220,628,o),
(200,652,qs),
(192,664,o),
(192,675,qs),
(192,677,l),
(198,685,o),
(202,696,qs),
(204,703,o),
(204,709,qs),
(204,723,o),
(195,732,qs),
(184,744,o),
(164,744,qs),
(160,744,o),
(155,744,qs),
(132,740,o),
(124,729,qs),
(113,717,o),
(112,693,qs),
(112,688,ls),
(112,662,o),
(125,642,qs),
(155,594,o),
(272,594,qs),
(389,594,o)
);
}
);
width = 545;
}
);
note = afii10075;
unicode = 1081;
},
{
glyphname = afii10076;
lastChange = "2024-07-02 17:53:05 +0000";
layers = (
{
layerId = m01;
shapes = (
{
closed = 1;
nodes = (
(469,104,o),
(463,104,qs),
(457,104,o),
(451,106,qs),
(425,115,o),
(410,164,qs),
(386,238,o),
(382,256,q),
(325,308,o),
(291,318,q),
(290,319,l),
(402,491,l),
(467,518,l),
(467,554,l),
(294,554,l),
(294,518,l),
(341,495,l),
(241,324,l),
(162,324,l),
(162,495,l),
(205,518,l),
(205,554,l),
(25,554,l),
(25,518,l),
(76,495,l),
(76,110,l),
(25,87,l),
(25,50,l),
(205,50,l),
(205,87,l),
(162,109,l),
(162,276,l),
(253,276,ls),
(284,276,o),
(312,235,q),
(318,184,o),
(329,143,qs),
(345,89,o),
(355,73,qs),
(374,42,o),
(408,42,qs),
(454,42,o),
(490,59,q),
(474,106,l)
);
}
);
width = 500;
}
);
note = afii10076;
unicode = 1082;
},
{
glyphname = afii10077;
lastChange = "2024-07-02 17:53:05 +0000";
layers = (
{
layerId = m01;
shapes = (
{
closed = 1;
nodes = (
(515,554,l),
(94,554,l),
(94,518,l),
(160,491,l),
(156,266,o),
(123,164,qs),
(108,115,o),
(68,106,qs),
(58,104,o),
(47,104,qs),
(35,104,o),
(23,106,q),
(7,59,l),
(33,42,o),
(79,42,qs),
(165,42,o),
(187,127,qs),
(213,226,o),
(215,503,q),
(378,503,l),
(378,110,l),
(329,87,l),
(329,50,l),
(515,50,l),
(515,87,l),
(461,110,l),
(461,495,l),
(515,518,l)
);
}
);
width = 540;
}
);
note = afii10077;
unicode = 1083;
},
{
glyphname = afii10078;
lastChange = "2024-07-02 17:53:05 +0000";
layers = (
{
layerId = m01;
shapes = (
{
closed = 1;
nodes = (
(340,167,l),
(220,554,l),
(71,554,l),
(71,518,l),
(117,495,l),
(73,114,l),
(11,87,l),
(11,50,l),
(181,50,l),
(181,87,l),
(126,111,l),
(163,436,l),
(171,436,l),
(301,50,l),
(357,50,l),
(490,436,l),
(495,436,l),
(536,111,l),
(482,87,l),
(482,50,l),
(673,50,l),
(673,87,l),
(619,112,l),
(572,495,l),
(616,518,l),
(616,554,l),
(477,554,l)
);
}
);
width = 684;
}
);
note = afii10078;
unicode = 1084;
},
{
glyphname = afii10079;
lastChange = "2024-07-02 17:53:05 +0000";
layers = (
{
layerId = m01;
shapes = (
{
closed = 1;
nodes = (
(353,518,l),
(400,495,l),
(400,325,l),
(162,325,l),
(162,495,l),
(209,518,l),
(209,554,l),
(29,554,l),
(29,518,l),
(76,495,l),
(76,110,l),
(29,87,l),
(29,50,l),
(209,50,l),
(209,87,l),
(162,109,l),
(162,282,l),
(400,282,l),
(400,110,l),
(353,87,l),
(353,50,l),
(533,50,l),
(533,87,l),
(486,109,l),
(486,495,l),
(533,518,l),
(533,554,l),
(353,554,l)
);
}
);
width = 562;
}
);
note = afii10079;
unicode = 1085;
},
{
glyphname = afii10080;
lastChange = "2024-07-02 17:53:05 +0000";
layers = (
{
layerId = m01;
shapes = (
{
closed = 1;
nodes = (
(280,94,o),
(274,94,qs),
(217,94,o),
(171,145,qs),
(120,202,o),
(112,289,qs),
(110,302,o),
(110,315,qs),
(110,385,o),
(145,440,qs),
(185,505,o),
(250,510,qs),
(256,511,o),
(261,511,qs),
(319,511,o),
(365,459,qs),
(416,402,o),
(424,316,qs),
(426,303,o),
(426,290,qs),
(426,220,o),
(391,165,qs),
(351,100,o),
(286,94,qs)
);
},
{
closed = 1;
nodes = (
(89,480,qs),
(14,397,o),
(14,288,qs),
(14,181,o),
(89,111,qs),
(162,42,o),
(268,42,qs),
(372,42,o),
(446,125,qs),
(521,207,o),
(521,316,qs),
(521,423,o),
(446,494,qs),
(374,563,o),
(268,563,qs),
(165,563,o)
);
}
);
width = 536;
}
);
note = afii10080;
unicode = 1086;
},
{
glyphname = afii10081;
lastChange = "2024-07-02 17:53:05 +0000";
layers = (
{
layerId = m01;
shapes = (
{
closed = 1;
nodes = (
(25,518,l),
(72,495,l),
(72,110,l),
(25,87,l),
(25,50,l),
(205,50,l),
(205,87,l),
(158,109,l),
(158,503,l),
(386,503,l),
(386,110,l),
(339,87,l),
(339,50,l),
(519,50,l),
(519,87,l),
(472,109,l),
(472,495,l),
(519,518,l),
(519,554,l),
(25,554,l)
);
}
);
width = 545;
}
);
note = afii10081;
unicode = 1087;
},
{
glyphname = afii10082;
lastChange = "2024-07-02 17:53:05 +0000";
layers = (
{
layerId = m01;
shapes = (
{
closed = 1;
nodes = (
(326,94,o),
(320,94,qs),
(262,94,o),
(218,137,qs),
(166,187,o),
(159,271,qs),
(159,276,o),
(158,297,q),
(161,374,o),
(200,441,q),
(241,502,o),
(298,509,qs),
(304,510,o),
(310,510,qs),
(366,510,o),
(411,459,qs),
(460,402,o),
(468,316,qs),
(469,302,o),
(469,289,qs),
(469,220,o),
(437,165,qs),
(397,100,o),
(333,94,qs)
);
},
{
closed = 1;
nodes = (
(158,446,q),
(151,556,l),
(25,549,l),
(25,512,l),
(72,490,l),
(72,-142,l),
(25,-165,l),
(25,-202,l),
(205,-202,l),
(205,-165,l),
(158,-143,l),
(158,99,l),
(227,42,o),
(315,42,qs),
(421,42,o),
(492,123,qs),
(565,206,o),
(565,332,qs),
(565,433,o),
(497,500,qs),
(432,563,o),
(341,563,qs),
(212,563,o)
);
}
);
width = 580;
}
);
note = afii10082;
unicode = 1088;
},
{
glyphname = afii10083;
lastChange = "2024-07-02 17:53:05 +0000";
layers = (
{
layerId = m01;
shapes = (
{
closed = 1;
nodes = (
(271,94,ls),
(211,94,o),
(162,146,qs),
(107,204,o),
(104,289,qs),
(104,302,ls),
(104,393,o),
(140,449,qs),
(178,506,o),
(244,514,qs),
(253,516,o),
(263,516,qs),
(296,516,o),
(321,498,qs),
(350,479,o),
(359,444,qs),
(360,438,o),
(360,428,qs),
(360,415,o),
(357,390,q),
(410,390,l),
(424,480,l),
(410,513,o),
(372,536,qs),
(326,563,o),
(263,563,qs),
(159,563,o),
(84,482,qs),
(11,401,o),
(11,292,qs),
(11,181,o),
(77,112,qs),
(145,42,o),
(256,42,qs),
(365,42,o),
(426,140,q),
(396,157,l),
(364,126,o),
(346,114,qs),
(318,96,o),
(281,94,qs)
);
}
);
width = 437;
}
);
note = afii10083;
unicode = 1089;
},
{
glyphname = afii10084;
lastChange = "2024-07-02 17:53:05 +0000";
layers = (
{
layerId = m01;
shapes = (
{
closed = 1;
nodes = (
(11,390,l),
(62,390,l),
(106,503,l),
(205,503,l),
(205,110,l),
(158,87,l),
(158,50,l),
(338,50,l),
(338,87,l),
(292,109,l),
(292,503,l),
(391,503,l),
(435,390,l),
(486,390,l),
(468,554,l),
(29,554,l)
);
}
);
width = 497;
}
);
note = afii10084;
unicode = 1090;
},
{
glyphname = afii10085;
lastChange = "2024-07-02 17:53:05 +0000";
layers = (
{
layerId = m01;
shapes = (
{
closed = 1;
nodes = (
(348,518,l),
(405,495,l),
(286,123,l),
(286,199,o),
(162,495,q),
(220,518,l),
(220,554,l),
(11,554,l),
(11,518,l),
(72,495,l),
(251,50,l),
(220,-50,o),
(168,-119,qs),
(145,-148,o),
(116,-151,qs),
(113,-152,o),
(109,-152,qs),
(100,-152,o),
(88,-145,q),
(65,-193,l),
(97,-217,o),
(143,-217,qs),
(205,-217,o),
(261,-109,qs),
(279,-72,o),
(317,42,qs),
(464,494,l),
(526,518,l),
(526,554,l),
(348,554,l)
);
}
);
width = 537;
}
);
note = afii10085;
unicode = 1091;
},
{
glyphname = afii10086;
lastChange = "2024-07-02 17:53:05 +0000";
layers = (
{
layerId = m01;
shapes = (
{
closed = 1;
nodes = (
(639,87,ls),
(575,87,o),
(531,138,qs),
(487,194,o),
(481,289,q),
(481,342,l),
(487,413,o),
(518,458,qs),
(552,505,o),
(605,510,qs),
(611,511,o),
(616,511,qs),
(672,511,o),
(713,459,qs),
(757,404,o),
(765,316,qs),
(766,299,o),
(766,283,qs),
(766,209,o),
(739,158,qs),
(704,93,o),
(641,87,qs)
);
},
{
closed = 1;
nodes = (
(275,94,o),
(269,94,qs),
(213,94,o),
(173,145,qs),
(129,201,o),
(121,289,qs),
(120,306,o),
(120,322,qs),
(120,396,o),
(147,447,qs),
(181,512,o),
(245,518,qs),
(251,518,o),
(256,518,qs),
(312,518,o),
(353,467,q),
(397,404,o),
(405,309,qs),
(405,301,o),
(405,293,qs),
(405,271,ls),
(402,202,o),
(371,152,qs),
(337,99,o),
(281,94,qs)
);
},
{
closed = 1;
nodes = (
(540,563,o),
(486,480,qs),
(485,477,o),
(483,469,qs),
(482,459,o),
(481,459,q),
(481,806,l),
(480,806,l),
(359,792,l),
(359,755,l),
(405,732,l),
(405,459,l),
(403,470,ls),
(401,482,o),
(401,482,q),
(347,563,o),
(263,563,qs),
(160,563,o),
(92,485,qs),
(25,409,o),
(25,299,qs),
(25,189,o),
(92,116,qs),
(160,42,o),
(263,42,qs),
(351,42,o),
(402,119,q),
(403,128,ls),
(405,137,o),
(405,138,qs),
(405,-142,l),
(359,-165,l),
(359,-202,l),
(528,-202,l),
(528,-165,l),
(481,-143,l),
(481,138,ls),
(481,137,o),
(483,126,qs),
(485,115,l),
(534,42,o),
(623,42,qs),
(726,42,o),
(793,120,qs),
(860,196,o),
(860,306,qs),
(860,415,o),
(793,488,qs),
(726,563,o),
(623,563,qs)
);
}
);
width = 886;
}
);
note = afii10086;
unicode = 1092;
},
{
glyphname = afii10087;
lastChange = "2024-07-02 17:53:05 +0000";
layers = (
{
layerId = m01;
shapes = (
{
closed = 1;
nodes = (
(348,518,l),
(402,495,l),
(284,349,l),
(176,495,l),
(230,518,l),
(230,554,l),
(22,554,l),
(22,518,l),
(76,495,l),
(230,304,l),
(78,110,l),
(18,87,l),
(18,50,l),
(202,50,l),
(202,87,l),
(148,109,l),
(266,261,l),
(379,109,l),
(325,87,l),
(325,50,l),
(537,50,l),
(537,87,l),
(483,110,l),
(320,309,l),
(474,495,l),
(532,518,l),
(532,554,l),
(348,554,l)
);
}
);
width = 555;
}
);
note = afii10087;
unicode = 1093;
},
{
glyphname = afii10088;
lastChange = "2024-07-02 17:53:05 +0000";
layers = (
{
layerId = m01;
shapes = (
{
closed = 1;
nodes = (
(334,518,l),
(381,495,l),
(381,102,l),
(158,102,l),
(158,495,l),
(205,518,l),
(205,554,l),
(25,554,l),
(25,518,l),
(72,495,l),
(72,109,l),
(25,87,l),
(25,50,l),
(453,50,l),
(490,-83,l),
(549,-83,l),
(531,102,l),
(467,102,l),
(467,495,l),
(514,518,l),
(514,554,l),
(334,554,l)
);
}
);
width = 567;
}
);
note = afii10088;
unicode = 1094;
},
{
glyphname = afii10089;
lastChange = "2024-07-02 17:53:05 +0000";
layers = (
{
layerId = m01;
shapes = (
{
closed = 1;
nodes = (
(526,554,l),
(346,554,l),
(346,518,l),
(392,495,l),
(392,360,ls),
(392,337,o),
(356,313,q),
(317,294,o),
(269,294,qs),
(233,294,o),
(206,307,qs),
(177,320,o),
(166,345,qs),
(158,364,o),
(158,388,qs),
(158,495,l),
(205,518,l),
(205,554,l),
(25,554,l),
(25,518,l),
(72,495,l),
(72,369,ls),
(73,330,o),
(94,302,qs),
(119,268,o),
(168,253,qs),
(202,243,o),
(240,243,qs),
(256,243,o),
(273,244,qs),
(320,249,o),
(343,260,qs),
(388,281,o),
(392,301,q),
(392,110,l),
(346,87,l),
(346,50,l),
(526,50,l),
(526,87,l),
(479,109,l),
(479,495,l),
(526,518,l)
);
}
);
width = 551;
}
);
note = afii10089;
unicode = 1095;
},
{
glyphname = afii10090;
lastChange = "2024-07-02 17:53:05 +0000";
layers = (
{
layerId = m01;
shapes = (
{
closed = 1;
nodes = (
(299,518,l),
(346,495,l),
(346,102,l),
(158,102,l),
(158,495,l),
(205,518,l),
(205,554,l),
(25,554,l),
(25,518,l),
(72,495,l),
(72,109,l),
(25,87,l),
(25,50,l),
(752,50,l),
(752,87,l),
(706,110,l),
(706,495,l),
(752,518,l),
(752,554,l),
(572,554,l),
(572,518,l),
(619,495,l),
(619,102,l),
(432,102,l),
(432,495,l),
(479,518,l),
(479,554,l),
(299,554,l)
);
}
);
width = 778;
}
);
note = afii10090;
unicode = 1096;
},
{
glyphname = afii10091;
lastChange = "2024-07-02 17:53:05 +0000";
layers = (
{
layerId = m01;
shapes = (
{
closed = 1;
nodes = (
(299,518,l),
(346,495,l),
(346,102,l),
(158,102,l),
(158,495,l),
(205,518,l),
(205,554,l),
(25,554,l),
(25,518,l),
(72,495,l),
(72,109,l),
(25,87,l),
(25,50,l),
(691,50,l),
(729,-83,l),
(787,-83,l),
(769,102,l),
(706,102,l),
(706,495,l),
(752,518,l),
(752,554,l),
(572,554,l),
(572,518,l),
(619,495,l),
(619,102,l),
(432,102,l),
(432,495,l),
(479,518,l),
(479,554,l),
(299,554,l)
);
}
);
width = 805;
}
);
note = afii10091;
unicode = 1097;
},
{
glyphname = afii10092;
lastChange = "2024-07-02 17:53:05 +0000";
layers = (
{
layerId = m01;
shapes = (
{
closed = 1;
nodes = (
(389,105,qs),
(375,104,o),
(359,104,qs),
(330,104,o),
(294,109,q),
(294,292,l),
(307,293,o),
(318,293,qs),
(391,293,o),
(426,276,qs),
(473,255,o),
(473,195,qs),
(473,188,o),
(472,180,qs),
(467,114,o)
);
},
{
closed = 1;
nodes = (
(485,326,qs),
(438,344,o),
(348,344,qs),
(323,344,o),
(294,343,q),
(294,554,l),
(25,554,l),
(7,390,l),
(58,390,l),
(103,503,l),
(208,503,l),
(208,110,l),
(161,87,l),
(161,50,l),
(302,50,ls),
(439,50,o),
(476,62,qs),
(518,76,o),
(543,112,qs),
(566,146,o),
(566,193,qs),
(566,201,ls),
(562,296,o)
);
}
);
width = 582;
}
);
note = afii10092;
unicode = 1098;
},
{
glyphname = afii10093;
lastChange = "2024-07-02 17:53:05 +0000";
layers = (
{
layerId = m01;
shapes = (
{
closed = 1;
nodes = (
(632,554,l),
(452,554,l),
(452,518,l),
(499,495,l),
(499,110,l),
(452,87,l),
(452,50,l),
(632,50,l),
(632,87,l),
(585,109,l),
(585,495,l),
(632,518,l)
);
},
{
closed = 1;
nodes = (
(246,105,qs),
(232,104,o),
(217,104,qs),
(190,104,o),
(158,109,q),
(158,292,l),
(170,293,o),
(180,293,qs),
(248,293,o),
(284,276,qs),
(330,256,o),
(330,195,qs),
(330,188,o),
(330,180,qs),
(324,114,o)
);
},
{
closed = 1;
nodes = (
(205,518,l),
(205,554,l),
(25,554,l),
(25,518,l),
(72,495,l),
(72,110,l),
(25,87,l),
(25,50,l),
(166,50,ls),
(297,50,o),
(333,62,qs),
(376,76,o),
(400,112,qs),
(423,146,o),
(423,193,qs),
(423,201,ls),
(419,296,o),
(342,326,qs),
(295,344,o),
(210,344,qs),
(186,344,o),
(158,343,q),
(158,495,l)
);
}
);
width = 657;
}
);
note = afii10093;
unicode = 1099;
},
{
glyphname = afii10094;
lastChange = "2024-07-02 17:53:05 +0000";
layers = (
{
layerId = m01;
shapes = (
{
closed = 1;
nodes = (
(253,105,qs),
(239,104,o),
(223,104,qs),
(194,104,o),
(158,109,q),
(158,292,l),
(171,293,o),
(182,293,qs),
(255,293,o),
(290,276,qs),
(338,255,o),
(338,194,qs),
(338,187,o),
(337,180,qs),
(331,114,o)
);
},
{
closed = 1;
nodes = (
(348,326,qs),
(302,344,o),
(212,344,qs),
(187,344,o),
(158,343,q),
(158,495,l),
(205,518,l),
(205,554,l),
(25,554,l),
(25,518,l),
(72,495,l),
(72,110,l),
(25,87,l),
(25,50,l),
(166,50,ls),
(303,50,o),
(341,62,qs),
(382,76,o),
(407,112,qs),
(430,146,o),
(430,193,qs),
(430,201,ls),
(426,296,o)
);
}
);
width = 450;
}
);
note = afii10094;
unicode = 1100;
},
{
glyphname = afii10095;
lastChange = "2024-07-02 17:53:05 +0000";
layers = (
{
layerId = m01;
shapes = (
{
closed = 1;
nodes = (
(69,536,qs),
(24,512,o),
(11,480,q),
(24,390,l),
(78,390,l),
(76,415,o),
(76,430,qs),
(76,438,o),
(76,444,qs),
(83,480,o),
(102,495,qs),
(125,513,o),
(172,513,qs),
(238,513,o),
(286,457,qs),
(335,401,o),
(338,316,qs),
(338,314,l),
(337,314,ls),
(322,314,o),
(222,333,qs),
(202,337,o),
(185,337,qs),
(141,337,o),
(110,312,qs),
(89,294,o),
(81,273,q),
(107,264,l),
(110,270,o),
(122,275,qs),
(135,282,o),
(154,282,qs),
(168,282,o),
(184,278,qs),
(258,264,o),
(273,263,qs),
(282,262,o),
(290,262,qs),
(316,262,o),
(336,270,q),
(328,189,o),
(285,140,qs),
(243,91,o),
(185,91,qs),
(109,91,o),
(44,157,q),
(13,140,l),
(40,98,o),
(79,73,qs),
(127,42,o),
(188,42,qs),
(291,42,o),
(362,123,qs),
(431,203,o),
(431,313,qs),
(431,423,o),
(365,492,qs),
(297,563,o),
(184,563,qs),
(120,563,o)
);
}
);
width = 442;
}
);
note = afii10095;
unicode = 1101;
},
{
glyphname = afii10096;
lastChange = "2024-07-02 17:53:05 +0000";
layers = (
{
layerId = m01;
shapes = (
{
closed = 1;
nodes = (
(510,91,o),
(505,91,qs),
(455,91,o),
(411,145,qs),
(364,202,o),
(356,289,qs),
(354,303,o),
(354,317,qs),
(354,387,o),
(385,441,qs),
(423,507,o),
(480,513,qs),
(485,513,o),
(490,513,qs),
(540,513,o),
(584,460,qs),
(631,403,o),
(639,316,qs),
(641,302,o),
(641,288,qs),
(641,218,o),
(610,164,qs),
(572,98,o),
(516,92,qs)
);
},
{
closed = 1;
nodes = (
(336,490,qs),
(267,420,o),
(259,318,q),
(158,318,l),
(158,495,l),
(205,518,l),
(205,554,l),
(25,554,l),
(25,518,l),
(72,495,l),
(72,110,l),
(25,87,l),
(25,50,l),
(205,50,l),
(205,87,l),
(158,109,l),
(158,274,l),
(259,274,l),
(266,174,o),
(336,108,qs),
(405,42,o),
(498,42,qs),
(593,42,o),
(665,121,qs),
(737,199,o),
(737,309,qs),
(737,417,o),
(665,490,qs),
(595,563,o),
(498,563,qs),
(407,563,o)
);
}
);
width = 747;
}
);
note = afii10096;
unicode = 1102;
},
{
glyphname = afii10097;
lastChange = "2024-07-02 17:53:05 +0000";
layers = (
{
layerId = m01;
shapes = (
{
closed = 1;
nodes = (
(195,494,qs),
(222,505,o),
(283,505,qs),
(301,505,o),
(323,504,q),
(323,324,l),
(284,324,ls),
(146,326,o),
(146,413,qs),
(146,474,o)
);
},
{
closed = 1;
nodes = (
(456,554,l),
(323,554,ls),
(183,554,o),
(132,534,qs),
(55,504,o),
(55,411,qs),
(55,352,o),
(96,320,qs),
(131,292,o),
(184,292,q),
(147,274,o),
(118,247,q),
(114,238,o),
(91,164,qs),
(76,115,o),
(50,106,qs),
(43,104,o),
(37,104,qs),
(32,104,o),
(27,106,q),
(11,59,l),
(47,42,o),
(93,42,qs),
(127,42,o),
(145,73,qs),
(155,89,o),
(171,143,qs),
(183,184,o),
(189,226,q),
(195,240,o),
(212,253,qs),
(246,281,o),
(323,281,q),
(323,109,l),
(276,87,l),
(276,50,l),
(456,50,l),
(456,87,l),
(409,110,l),
(409,495,l),
(456,518,l)
);
}
);
width = 481;
}
);
note = afii10097;
unicode = 1103;
},
{
glyphname = afii10071;
lastChange = "2024-07-02 17:53:05 +0000";
layers = (
{
layerId = m01;
shapes = (
{
closed = 1;
nodes = (
(370,594,o),
(382,606,qs),
(394,618,o),
(394,634,qs),
(394,651,ls),
(394,667,o),
(382,679,qs),
(370,691,o),
(353,691,qs),
(341,691,ls),
(324,691,o),
(312,679,qs),
(300,667,o),
(300,651,qs),
(300,634,ls),
(300,618,o),
(312,606,qs),
(324,594,o),
(341,594,qs),
(353,594,ls)
);
},
{
closed = 1;
nodes = (
(178,594,o),
(189,606,qs),
(202,618,o),
(202,634,qs),
(202,651,ls),
(202,667,o),
(189,679,qs),
(178,691,o),
(161,691,qs),
(148,691,ls),
(132,691,o),
(120,679,qs),
(108,667,o),
(108,651,qs),
(108,634,ls),
(108,618,o),
(120,606,qs),
(132,594,o),
(148,594,qs),
(161,594,ls)
);
},
{
closed = 1;
nodes = (
(248,519,o),
(258,519,qs),
(330,519,o),
(342,444,qs),
(346,419,o),
(346,396,qs),
(346,383,l),
(115,383,l),
(127,440,o),
(160,475,qs),
(193,512,o),
(238,518,qs)
);
},
{
closed = 1;
nodes = (
(428,356,o),
(428,373,qs),
(428,436,o),
(410,480,qs),
(378,563,o),
(260,563,qs),
(157,563,o),
(84,482,qs),
(11,401,o),
(11,292,qs),
(11,181,o),
(76,112,qs),
(144,42,o),
(256,42,qs),
(365,42,o),
(426,140,q),
(395,157,l),
(364,126,o),
(345,114,qs),
(317,96,o),
(281,94,qs),
(271,94,ls),
(211,94,o),
(162,146,qs),
(107,204,o),
(104,289,qs),
(104,301,o),
(104,310,qs),
(104,330,o),
(106,339,q),
(427,339,l)
);
}
);
width = 444;
}
);
note = afii10071;
unicode = 1105;
},
{
glyphname = afii10101;
lastChange = "2024-07-02 17:53:05 +0000";
layers = (
{
layerId = m01;
shapes = (
{
closed = 1;
nodes = (
(361,126,o),
(342,114,qs),
(314,96,o),
(277,94,qs),
(269,94,ls),
(212,94,o),
(166,140,qs),
(115,191,o),
(106,269,q),
(127,261,o),
(152,261,qs),
(161,261,o),
(169,261,qs),
(184,263,o),
(258,276,qs),
(274,280,o),
(288,280,qs),
(307,280,o),
(320,274,qs),
(332,269,o),
(336,262,q),
(361,272,l),
(353,292,o),
(332,310,qs),
(301,336,o),
(257,336,qs),
(240,336,o),
(220,332,qs),
(120,312,o),
(105,312,qs),
(104,312,l),
(106,402,o),
(143,456,qs),
(179,506,o),
(240,514,qs),
(250,516,o),
(259,516,qs),
(292,516,o),
(318,498,qs),
(346,479,o),
(355,444,qs),
(356,438,o),
(356,428,qs),
(356,415,o),
(354,390,q),
(407,390,l),
(420,480,l),
(407,513,o),
(369,536,qs),
(323,563,o),
(259,563,qs),
(156,563,o),
(83,482,qs),
(11,401,o),
(11,292,qs),
(11,181,o),
(75,112,qs),
(141,42,o),
(253,42,qs),
(361,42,o),
(423,140,q),
(392,157,l)
);
}
);
width = 434;
}
);
note = afii10101;
unicode = 1108;
},
{
glyphname = afii10103;
lastChange = "2024-07-02 17:53:05 +0000";
layers = (
{
layerId = m01;
shapes = (
{
closed = 1;
nodes = (
(142,616,o),
(154,628,qs),
(166,639,o),
(166,656,qs),
(166,672,ls),
(166,689,o),
(154,701,qs),
(142,713,o),
(125,713,qs),
(113,713,ls),
(96,713,o),
(84,701,qs),
(72,689,o),
(72,672,qs),
(72,656,ls),
(72,639,o),
(84,628,qs),
(96,616,o),
(113,616,qs),
(125,616,ls)
);
},
{
closed = 1;
nodes = (
(166,554,l),
(25,554,l),
(25,518,l),
(79,495,l),
(79,110,l),
(25,87,l),
(25,50,l),
(220,50,l),
(220,87,l),
(166,109,l)
);
}
);
width = 245;
}
);
note = afii10103;
unicode = 1110;
},
{
glyphname = afii10104;
lastChange = "2024-07-02 17:53:05 +0000";
layers = (
{
layerId = m01;
shapes = (
{
closed = 1;
nodes = (
(238,616,o),
(250,628,qs),
(262,639,o),
(262,656,qs),
(262,672,ls),
(262,689,o),
(250,701,qs),
(238,713,o),
(222,713,qs),
(220,713,ls),
(203,713,o),
(192,701,qs),
(179,689,o),
(179,672,qs),
(179,656,ls),
(179,639,o),
(192,628,qs),
(203,616,o),
(220,616,qs),
(222,616,ls)
);
},
{
closed = 1;
nodes = (
(88,616,o),
(99,628,qs),
(112,639,o),
(112,656,qs),
(112,672,ls),
(112,689,o),
(99,701,qs),
(88,713,o),
(71,713,qs),
(69,713,ls),
(53,713,o),
(41,701,qs),
(29,689,o),
(29,672,qs),
(29,656,ls),
(29,639,o),
(41,628,qs),
(53,616,o),
(69,616,qs),
(71,616,ls)
);
},
{
closed = 1;
nodes = (
(202,554,l),
(61,554,l),
(61,518,l),
(115,495,l),
(115,110,l),
(61,87,l),
(61,50,l),
(256,50,l),
(256,87,l),
(202,109,l)
);
}
);
width = 291;
}
);
note = afii10104;
unicode = 1111;
},
{
glyphname = afii10098;
lastChange = "2024-07-02 17:53:05 +0000";
layers = (
{
layerId = m01;
shapes = (
{
closed = 1;
nodes = (
(315,554,l),
(25,554,l),
(25,518,l),
(72,495,l),
(72,110,l),
(25,87,l),
(25,50,l),
(205,50,l),
(205,87,l),
(158,109,l),
(158,503,l),
(393,503,l),
(411,657,l),
(360,657,l)
);
}
);
width = 429;
}
);
note = afii10098;
unicode = 1169;
},
{
glyphname = afii10050;
lastChange = "2024-07-02 17:53:05 +0000";
layers = (
{
layerId = m01;
shapes = (
{
closed = 1;
nodes = (
(559,948,l),
(493,948,l),
(442,806,l),
(36,806,l),
(36,770,l),
(94,747,l),
(94,109,l),
(36,87,l),
(36,50,l),
(245,50,l),
(245,87,l),
(187,109,l),
(187,751,l),
(534,751,l)
);
}
);
width = 584;
}
);
note = afii10050;
unicode = 1168;
},
{
glyphname = afii10023;
lastChange = "2024-07-02 17:53:05 +0000";
layers = (
{
layerId = m01;
shapes = (
{
closed = 1;
nodes = (
(433,846,o),
(445,859,qs),
(458,871,o),
(458,889,qs),
(458,907,ls),
(458,925,o),
(445,937,qs),
(433,950,o),
(414,950,qs),
(400,950,ls),
(383,950,o),
(369,937,qs),
(357,925,o),
(357,907,qs),
(357,889,ls),
(357,871,o),
(369,859,qs),
(383,846,o),
(400,846,qs),
(414,846,ls)
);
},
{
closed = 1;
nodes = (
(212,846,o),
(225,859,qs),
(238,871,o),
(238,889,qs),
(238,907,ls),
(238,925,o),
(225,937,qs),
(212,950,o),
(195,950,qs),
(181,950,ls),
(163,950,o),
(150,937,qs),
(138,925,o),
(138,907,qs),
(138,889,ls),
(138,871,o),
(150,859,qs),
(163,846,o),
(181,846,qs),
(195,846,ls)
);
},
{
closed = 1;
nodes = (
(36,770,l),
(94,747,l),
(94,109,l),
(36,87,l),
(36,50,l),
(548,50,l),
(573,283,l),
(508,283,l),
(456,106,l),
(187,106,l),
(187,398,l),
(325,398,l),
(369,307,l),
(399,307,l),
(392,426,l),
(399,544,l),
(369,544,l),
(325,454,l),
(187,454,l),
(187,751,l),
(456,751,l),
(508,574,l),
(573,574,l),
(548,806,l),
(36,806,l)
);
}
);
width = 599;
}
);
note = afii10023;
unicode = 1025;
},
{
glyphname = afii10053;
lastChange = "2024-07-02 17:53:05 +0000";
layers = (
{
layerId = m01;
shapes = (
{
closed = 1;
nodes = (
(187,387,qs),
(198,385,o),
(210,385,qs),
(233,385,o),
(261,390,qs),
(273,392,o),
(355,408,q),
(372,410,o),
(387,410,qs),
(418,410,o),
(444,405,q),
(461,397,o),
(466,387,q),
(503,395,l),
(500,402,o),
(493,413,qs),
(480,433,o),
(462,449,qs),
(435,472,o),
(400,480,qs),
(377,486,o),
(351,486,qs),
(328,486,o),
(301,481,qs),
(282,477,o),
(238,467,qs),
(202,458,o),
(183,455,qs),
(163,452,o),
(148,452,qs),
(141,452,l),
(145,567,o),
(189,648,q),
(247,737,o),
(351,755,q),
(365,757,o),
(378,757,qs),
(434,757,o),
(473,729,qs),
(518,698,o),
(531,652,q),
(532,644,o),
(532,631,qs),
(532,609,o),
(528,574,q),
(597,574,l),
(617,692,l),
(596,740,o),
(540,774,qs),
(472,815,o),
(377,815,qs),
(233,815,o),
(127,694,qs),
(25,577,o),
(25,413,qs),
(25,253,o),
(122,147,q),
(224,42,o),
(368,42,qs),
(529,42,o),
(620,188,q),
(578,210,l),
(529,160,o),
(501,142,qs),
(456,112,o),
(403,109,qs),
(397,108,o),
(390,108,qs),
(302,108,o),
(219,191,q),
(148,276,o),
(142,399,q),
(164,389,o)
);
}
);
width = 645;
}
);
note = afii10053;
unicode = 1028;
},
{
glyphname = afii10055;
lastChange = "2024-07-02 17:53:05 +0000";
layers = (
{
layerId = m01;
shapes = (
{
closed = 1;
nodes = (
(36,770,l),
(115,747,l),
(115,110,l),
(43,87,l),
(43,50,l),
(281,50,l),
(281,87,l),
(209,110,l),
(209,747,l),
(281,770,l),
(281,806,l),
(36,806,l)
);
},
{
closed = 1;
nodes = (
(187,866,o),
(201,880,qs),
(216,894,o),
(216,914,qs),
(216,933,ls),
(216,953,o),
(201,967,qs),
(187,981,o),
(166,981,qs),
(150,981,ls),
(130,981,o),
(114,967,qs),
(101,953,o),
(101,933,qs),
(101,914,ls),
(101,894,o),
(114,880,qs),
(130,866,o),
(150,866,qs),
(166,866,ls)
);
}
);
width = 317;
}
);
note = afii10055;
unicode = 1030;
},
{
glyphname = afii10056;
lastChange = "2024-07-02 17:53:05 +0000";
layers = (
{
layerId = m01;
shapes = (
{
closed = 1;
nodes = (
(41,770,l),
(120,747,l),
(120,110,l),
(48,87,l),
(48,50,l),
(286,50,l),
(286,87,l),
(214,110,l),
(214,747,l),
(286,770,l),
(286,806,l),
(41,806,l)
);
},
{
closed = 1;
nodes = (
(114,866,o),
(125,881,qs),
(138,894,o),
(138,914,qs),
(138,933,ls),
(138,953,o),
(125,966,qs),
(114,981,o),
(95,981,qs),
(81,981,ls),
(65,981,o),
(51,966,qs),
(40,953,o),
(40,933,qs),
(40,914,ls),
(40,894,o),
(51,881,qs),
(65,866,o),
(81,866,qs),
(95,866,ls)
);
},
{
closed = 1;
nodes = (
(257,866,o),
(269,881,qs),
(282,894,o),
(282,914,qs),
(282,933,ls),
(282,953,o),
(269,966,qs),
(257,981,o),
(239,981,qs),
(225,981,ls),
(209,981,o),
(195,966,qs),
(184,953,o),
(184,933,qs),
(184,914,ls),
(184,894,o),
(195,881,qs),
(209,866,o),
(225,866,qs),
(239,866,ls)
);
}
);
width = 326;
}
);
note = afii10056;
unicode = 1031;
},
{
glyphname = OE;
lastChange = "2024-07-02 17:53:05 +0000";
layers = (
{
layerId = m01;
shapes = (
{
closed = 1;
nodes = (
(513,113,o),
(413,107,qs),
(404,107,o),
(394,107,qs),
(305,107,o),
(232,186,qs),
(152,274,o),
(140,408,qs),
(138,429,o),
(138,450,qs),
(138,557,o),
(192,641,qs),
(255,741,o),
(357,750,qs),
(366,750,o),
(377,750,qs),
(499,750,o),
(556,675,q),
(556,160,l)
);
},
{
closed = 1;
nodes = (
(403,816,qs),
(395,816,o),
(385,815,q),
(238,815,o),
(131,691,qs),
(25,570,o),
(25,407,qs),
(25,249,o),
(131,144,qs),
(235,42,o),
(385,42,qs),
(438,42,o),
(498,50,q),
(1010,50,l),
(1035,283,l),
(970,283,l),
(919,106,l),
(649,106,l),
(649,398,l),
(788,398,l),
(832,307,l),
(861,307,l),
(854,426,l),
(861,544,l),
(832,544,l),
(788,454,l),
(649,454,l),
(649,751,l),
(919,751,l),
(970,574,l),
(1035,574,l),
(1010,806,l),
(503,806,l),
(446,816,o)
);
}
);
width = 1060;
}
);
note = OE;
unicode = 338;
},
{
glyphname = oe;
lastChange = "2024-07-02 17:53:05 +0000";
layers = (
{
layerId = m01;
shapes = (
{
closed = 1;
nodes = (
(654,518,qs),
(665,519,o),
(674,519,qs),
(746,519,o),
(758,444,qs),
(762,419,o),
(762,396,qs),
(762,383,l),
(531,383,l),
(544,440,o),
(576,475,qs),
(609,512,o)
);
},
{
closed = 1;
nodes = (
(297,94,qs),
(291,94,o),
(285,94,qs),
(228,94,o),
(181,145,qs),
(130,202,o),
(122,289,qs),
(121,302,o),
(121,315,qs),
(121,385,o),
(156,440,qs),
(196,505,o),
(261,510,qs),
(266,511,o),
(272,511,qs),
(330,511,o),
(376,459,qs),
(427,402,o),
(435,316,qs),
(436,303,o),
(436,290,qs),
(436,220,o),
(402,165,qs),
(361,100,o)
);
},
{
closed = 1;
nodes = (
(443,494,q),
(378,563,o),
(279,563,qs),
(176,563,o),
(100,480,qs),
(25,397,o),
(25,288,qs),
(25,181,o),
(100,111,qs),
(173,42,o),
(279,42,qs),
(375,42,o),
(443,125,q),
(454,137,o),
(464,150,q),
(476,130,o),
(492,112,qs),
(560,42,o),
(672,42,qs),
(781,42,o),
(842,140,q),
(811,157,l),
(780,126,o),
(761,114,qs),
(733,96,o),
(697,94,qs),
(688,94,ls),
(627,94,o),
(578,146,qs),
(523,204,o),
(521,289,qs),
(520,301,o),
(520,310,qs),
(520,330,o),
(522,339,q),
(843,339,l),
(845,356,o),
(845,373,qs),
(845,436,o),
(827,480,qs),
(794,563,o),
(676,563,qs),
(573,563,o),
(500,482,qs),
(487,468,o),
(477,454,q),
(463,475,o)
);
}
);
width = 869;
}
);
note = oe;
unicode = 339;
},
{
glyphname = perthousand;
lastChange = "2024-07-02 17:53:05 +0000";
layers = (
{
layerId = m01;
shapes = (
{
closed = 1;
nodes = (
(117,705,qs),
(143,732,o),
(180,732,qs),
(217,732,o),
(243,705,qs),
(270,678,o),
(270,639,qs),
(270,600,o),
(243,573,qs),
(217,546,o),
(180,546,qs),
(143,546,o),
(117,573,qs),
(90,600,o),
(90,639,qs),
(90,678,o)
);
},
{
closed = 1;
nodes = (
(282,741,qs),
(240,783,o),
(180,783,qs),
(120,783,o),
(78,741,qs),
(36,698,o),
(36,639,qs),
(36,580,o),
(78,537,qs),
(120,495,o),
(180,495,qs),
(240,495,o),
(282,537,qs),
(324,580,o),
(324,639,qs),
(324,698,o)
);
},
{
closed = 1;
nodes = (
(433,107,qs),
(407,135,o),
(407,174,qs),
(407,212,o),
(433,239,qs),
(460,267,o),
(497,267,qs),
(534,267,o),
(561,239,qs),
(587,212,o),
(587,174,qs),
(587,135,o),
(561,107,qs),
(534,80,o),
(497,80,qs),
(460,80,o)
);
},
{
closed = 1;
nodes = (
(395,275,qs),
(353,233,o),
(353,174,qs),
(353,114,o),
(395,71,qs),
(438,30,o),
(497,30,qs),
(557,30,o),
(599,71,qs),
(641,114,o),
(641,174,qs),
(641,233,o),
(599,275,qs),
(557,318,o),
(497,318,qs),
(438,318,o)
);
},
{
closed = 1;
nodes = (
(107,50,l),
(175,50,l),
(584,770,l),
(526,806,l)
);
},
{
closed = 1;
nodes = (
(782,107,qs),
(755,135,o),
(755,174,qs),
(755,212,o),
(782,239,qs),
(809,267,o),
(845,267,qs),
(883,267,o),
(909,239,qs),
(935,212,o),
(935,174,qs),
(935,135,o),
(909,107,qs),
(883,80,o),
(845,80,qs),
(809,80,o)
);
},
{
closed = 1;
nodes = (
(744,275,qs),
(701,233,o),
(701,174,qs),
(701,114,o),
(744,71,qs),
(786,30,o),
(845,30,qs),
(905,30,o),
(948,71,qs),
(989,114,o),
(989,174,qs),
(989,233,o),
(948,275,qs),
(905,318,o),
(845,318,qs),
(786,318,o)
);
}
